<svg version="1.1" id="Layer_1" xmlns="http://www.w3.org/2000/svg" xmlns:xlink="http://www.w3.org/1999/xlink" x="0px" y="0px"
	 width="100%" viewBox="0 0 1024 1024" enable-background="new 0 0 1024 1024" xml:space="preserve">

<path fill="#3B397B" opacity="1.000000" stroke="none" 
	d="
M698.706116,372.877899 
	C701.883240,373.249725 705.060303,373.621552 708.840149,374.347443 
	C711.627258,375.484070 713.811707,376.266632 716.076111,377.388977 
	C719.685913,383.627899 725.515747,382.950287 731.341675,382.987427 
	C731.577087,383.017700 732.028320,383.165192 732.167847,383.323761 
	C732.507202,383.683136 732.729492,383.854980 733.189453,384.246643 
	C734.602173,385.021301 735.799622,385.547180 737.076416,386.408508 
	C737.364624,387.192017 737.613586,387.626099 737.776001,388.090485 
	C738.585510,390.405182 739.372253,392.727844 740.167114,395.047729 
	C737.559509,395.213348 734.951172,395.497162 732.344849,395.480194 
	C731.438416,395.474304 730.547729,394.697662 729.631042,394.318634 
	C725.085205,392.438995 720.533142,390.574615 715.993652,388.709167 
	C715.000061,392.969269 716.408630,395.335114 721.925964,396.608978 
	C725.348633,397.399231 726.802246,398.956635 726.305420,402.206055 
	C712.700928,396.343262 699.131714,391.649994 684.465454,391.655518 
	C627.824707,391.676941 571.183960,391.813507 514.543213,391.906708 
	C512.788208,391.909607 511.033203,391.907104 509.038971,391.907104 
	C509.038971,394.286224 509.039032,395.934204 509.038971,397.582184 
	C509.036743,446.727295 509.019897,495.872406 509.041504,545.017517 
	C509.047821,559.340393 509.164001,573.663269 509.147034,588.447632 
	C509.064240,607.170715 509.064240,625.432373 509.064240,644.244629 
	C530.081543,644.244629 550.537964,644.244629 570.809448,644.567017 
	C569.900940,645.239075 569.202087,645.823242 568.449768,645.902832 
	C558.267334,646.980652 548.071594,647.936279 537.896790,649.079163 
	C536.616638,649.222900 534.545166,650.064087 534.355469,650.918518 
	C533.112854,656.516479 529.664246,660.127136 524.607849,662.959412 
	C526.405640,663.664062 528.073975,663.966675 529.743835,663.974976 
	C539.238037,664.022156 548.733276,663.943848 558.226624,664.046143 
	C560.155762,664.066895 562.078613,664.678345 563.539368,665.085083 
	C495.664581,665.165283 428.254608,665.259705 360.845062,665.127197 
	C345.896637,665.097839 330.949768,664.267700 315.875610,663.519043 
	C314.487671,663.177979 313.226257,663.124146 311.637756,663.028381 
	C310.877319,662.916138 310.444061,662.845825 309.921692,662.449585 
	C307.349670,660.428589 305.006989,657.616516 302.353088,657.283325 
	C297.615356,656.688477 295.600708,654.591980 294.887848,650.187195 
	C294.704224,649.052490 293.421600,647.467041 292.371490,647.212646 
	C288.351532,646.238464 284.241974,645.526855 280.126495,645.077942 
	C272.737305,644.271851 271.375366,641.299255 276.062134,633.560364 
	C276.925507,635.622620 277.590881,637.092285 278.160980,638.597900 
	C279.462067,642.033936 281.423950,644.075806 285.592957,643.545349 
	C290.061218,642.976807 294.809631,642.067017 299.072723,642.987549 
	C306.636017,644.620728 313.823456,647.982727 321.853912,647.222107 
	C326.956451,646.738831 332.072418,646.068420 337.183655,646.056702 
	C378.449615,645.962036 419.716003,645.962646 460.981934,646.063477 
	C465.430054,646.074402 469.912781,647.481201 474.312683,647.198975 
	C478.609833,646.923401 482.731201,645.740356 486.910828,647.976685 
	C487.746521,648.423767 489.378815,647.381958 490.643799,647.026733 
	C489.712982,645.999756 488.782166,644.972778 487.885529,643.482361 
	C488.018585,629.003723 488.117523,614.988403 488.541260,600.798828 
	C490.416168,596.984558 491.178284,593.392517 488.141907,589.677368 
	C487.960358,588.862671 487.859100,588.396912 487.843689,587.610535 
	C488.020142,586.857056 488.110748,586.424255 488.524200,585.820801 
	C489.554260,580.812073 490.809967,575.978760 490.851562,571.135010 
	C490.931519,561.823792 490.108734,552.508118 490.045013,543.191711 
	C489.903992,522.581482 489.875275,501.968353 490.082916,481.359253 
	C490.140350,475.659424 491.219971,469.972382 491.755157,464.272400 
	C491.844757,463.318146 491.583466,462.321594 491.422272,461.354919 
	C490.965820,458.617798 490.102509,455.890930 490.066315,453.151245 
	C489.912689,441.517883 490.074646,429.880402 489.921600,418.247040 
	C489.898254,416.473083 488.825256,414.712921 488.132721,412.960175 
	C488.027710,412.973969 487.837006,413.066315 487.762360,412.660278 
	C487.799561,405.805023 487.911407,399.355804 487.913788,392.605957 
	C487.099792,391.902985 486.395264,391.500671 485.282593,391.212830 
	C437.462708,391.483215 390.050232,391.853241 342.639740,391.680817 
	C325.659851,391.619080 309.069122,392.876984 292.906982,399.137329 
	C292.454651,399.396393 292.229187,399.587982 291.680878,399.929047 
	C288.593994,401.120117 285.858368,402.195160 282.971130,403.097229 
	C282.433563,402.887024 282.047577,402.849823 281.661621,402.812622 
	C281.766541,403.204803 281.871460,403.596985 281.768738,404.255707 
	C279.142914,405.731049 276.724701,406.939880 273.881287,408.141846 
	C271.659821,408.410919 269.692596,409.281799 268.106537,408.826141 
	C265.595612,408.104767 262.645416,407.009155 261.218781,405.081757 
	C260.258179,403.783966 261.602844,400.779816 262.017395,397.815735 
	C264.163086,399.109894 265.271301,400.311707 266.352020,400.287506 
	C267.551208,400.260590 269.829803,398.811859 269.744690,398.501221 
	C268.474426,393.866302 270.809174,389.940491 271.924438,385.788696 
	C272.393219,385.494171 272.862030,385.199677 273.819641,385.030579 
	C274.850464,384.706665 275.392456,384.257355 275.934448,383.808044 
	C276.039642,383.515656 276.224365,383.287750 276.970490,383.152710 
	C277.635559,383.234222 277.818756,383.287323 278.122864,383.590851 
	C279.473969,383.186523 280.704132,382.531769 281.947449,381.910095 
	C281.960632,381.943146 281.892670,381.964111 282.089417,381.863464 
	C282.538544,381.607422 282.763428,381.419189 283.264160,381.054199 
	C284.377869,380.237701 285.188232,379.565033 285.998596,378.892395 
	C285.998596,378.892395 285.985809,378.968170 286.318970,379.082245 
	C287.427582,379.115875 288.203033,379.035431 289.228058,379.154236 
	C290.986145,378.625061 292.494690,377.896606 294.274170,377.095337 
	C294.915253,376.975311 295.285461,376.928101 295.973572,376.861633 
	C296.855286,376.578796 297.419006,376.315186 298.257996,375.827942 
	C299.681366,375.391693 300.829498,375.179108 302.212280,375.155182 
	C303.274872,374.850433 304.102783,374.357025 304.930664,373.863647 
	C304.930664,373.863617 304.971252,373.939331 305.130615,373.840454 
	C305.546631,373.569977 305.772186,373.364258 305.966644,373.124451 
	C307.076202,372.837677 308.185760,372.550903 309.617737,372.100006 
	C309.940186,371.935883 310.020203,371.923553 310.281708,372.134277 
	C312.014038,372.279358 313.484894,372.213715 315.212402,372.084991 
	C315.645081,372.013489 315.821106,372.005066 316.213867,372.178162 
	C317.288940,372.003571 318.147247,371.647400 319.470154,371.222717 
	C329.622253,371.091095 339.309814,371.027985 349.006378,371.366730 
	C349.784058,373.088776 350.508545,375.511505 351.328857,375.544373 
	C355.609955,375.715973 358.986481,376.804474 361.090302,380.937195 
	C361.339508,381.426727 363.845062,380.767670 365.304718,380.641022 
	C364.757629,379.492310 364.344421,378.252167 363.635529,377.213898 
	C362.169006,375.066040 360.545135,373.025665 359.451355,370.871033 
	C386.696320,370.928070 413.475861,371.055084 440.242615,371.579071 
	C440.921539,373.361389 441.613281,374.746735 443.050476,377.624939 
	C431.806213,377.624939 421.592926,378.334534 411.527405,377.419281 
	C402.046478,376.557129 402.114075,375.804382 400.765961,384.907990 
	C400.032837,389.858673 401.204681,390.772583 406.065430,389.441193 
	C408.046478,388.898560 410.197693,388.632812 412.242188,388.750580 
	C415.012665,388.910126 417.749725,389.894775 420.510345,389.938263 
	C430.312988,390.092804 440.158752,389.463440 449.911316,390.178833 
	C456.816681,390.685333 462.346100,388.597168 467.414825,384.559570 
	C468.648071,383.577209 469.846375,381.469452 469.646393,380.083221 
	C469.458313,378.779449 467.519653,376.944885 466.146698,376.744415 
	C462.245361,376.174774 458.177582,375.826752 454.291229,376.314728 
	C449.846832,376.872772 447.978516,375.704712 449.112793,371.030212 
	C450.183197,370.848389 450.846466,370.760406 451.509766,370.760223 
	C527.691956,370.736969 603.874207,370.669586 680.056152,370.797424 
	C686.273987,370.807861 692.489502,372.152985 698.706116,372.877899 
M338.577759,389.997742 
	C345.402679,389.997742 352.227631,389.997742 359.052551,389.997742 
	C353.330536,384.925201 331.633636,384.598114 327.947784,389.425995 
	C331.630524,389.643890 334.619446,389.820709 338.577759,389.997742 
M378.356598,379.543579 
	C378.608826,380.310547 378.696503,381.613556 379.142151,381.750336 
	C380.934814,382.300629 382.863342,382.800568 384.687622,382.652618 
	C385.368500,382.597443 385.901520,380.719055 386.501923,379.671967 
	C384.662933,378.873810 382.873505,377.885468 380.956665,377.386078 
	C380.330261,377.222961 379.372345,378.332306 378.356598,379.543579 
M474.501068,387.809875 
	C475.853302,388.425934 477.205536,389.041992 478.557770,389.658051 
	C478.841583,388.981232 479.125427,388.304443 479.409271,387.627655 
	C477.878113,387.479187 476.346985,387.330719 474.501068,387.809875 
z"/>
<path fill="#3B3B80" opacity="1.000000" stroke="none" 
	d="
M487.851379,643.945740 
	C488.782166,644.972778 489.712982,645.999756 490.643799,647.026733 
	C489.378815,647.381958 487.746521,648.423767 486.910828,647.976685 
	C482.731201,645.740356 478.609833,646.923401 474.312683,647.198975 
	C469.912781,647.481201 465.430054,646.074402 460.981934,646.063477 
	C419.716003,645.962646 378.449615,645.962036 337.183655,646.056702 
	C332.072418,646.068420 326.956451,646.738831 321.853912,647.222107 
	C313.823456,647.982727 306.636017,644.620728 299.072723,642.987549 
	C294.809631,642.067017 290.061218,642.976807 285.592957,643.545349 
	C281.423950,644.075806 279.462067,642.033936 278.160980,638.597900 
	C277.590881,637.092285 276.925507,635.622620 276.062134,633.560364 
	C271.375366,641.299255 272.737305,644.271851 280.126495,645.077942 
	C284.241974,645.526855 288.351532,646.238464 292.371490,647.212646 
	C293.421600,647.467041 294.704224,649.052490 294.887848,650.187195 
	C295.600708,654.591980 297.615356,656.688477 302.353088,657.283325 
	C305.006989,657.616516 307.349670,660.428589 309.528564,662.500854 
	C307.125092,662.595215 305.025635,662.312500 302.926147,662.029724 
	C296.781403,660.008423 290.636627,657.987122 283.949646,655.559448 
	C281.575531,654.462524 279.743652,653.772095 277.911774,653.081604 
	C277.911774,653.081604 277.973846,653.050659 277.932007,652.715942 
	C277.229004,652.279907 276.567810,652.178528 275.906616,652.077087 
	C275.906616,652.077087 275.970886,652.050842 275.944946,651.721436 
	C275.248260,651.279358 274.577454,651.166687 273.906677,651.054016 
	C273.906677,651.054016 273.976440,651.039917 273.941223,650.704102 
	C272.575165,649.931458 271.244354,649.494507 269.913574,649.057556 
	C269.913574,649.057556 269.980011,649.037781 269.937347,648.688965 
	C268.570404,647.938477 267.246124,647.536743 265.921844,647.135010 
	C265.921844,647.135010 266.008118,647.054688 266.062927,646.723938 
	C265.047638,645.946533 263.977570,645.499939 262.907532,645.053345 
	C262.907532,645.053284 262.976013,645.038879 262.958862,644.718506 
	C261.931335,643.945312 260.920959,643.492493 259.910583,643.039673 
	C259.910614,643.039673 259.984131,643.026611 259.937927,642.718628 
	C256.897003,640.623962 253.902298,638.837158 250.907593,637.050415 
	C250.907593,637.050415 250.979858,637.035400 250.929443,636.704163 
	C250.223709,636.273132 249.568420,636.173340 248.913116,636.073547 
	C248.913116,636.073547 248.991730,636.007324 249.123474,635.716553 
	C248.136810,634.623962 247.018372,633.822083 245.899933,633.020203 
	C245.899948,633.020203 245.991547,633.010864 245.919220,632.683716 
	C245.203415,632.267456 244.559937,632.178406 243.916473,632.089294 
	C243.916473,632.089294 244.003006,632.007629 244.148300,631.721985 
	C241.833633,629.650391 239.373672,627.864502 236.913712,626.078552 
	C236.913712,626.078552 236.997559,626.002441 237.170135,625.721313 
	C235.531326,623.981445 233.719925,622.522766 231.908508,621.064087 
	C231.908508,621.064087 231.973450,621.032410 232.052429,620.653992 
	C231.263077,619.853943 230.394760,619.432251 229.526443,619.010620 
	C229.526443,619.010620 229.207657,619.018555 229.207657,619.018555 
	C229.207657,619.018555 228.982147,618.793091 229.189865,618.271240 
	C228.564072,616.366272 227.887939,614.853943 226.874146,613.618835 
	C199.048065,579.719543 189.228607,540.446533 193.385361,497.517670 
	C195.711960,473.489838 204.703751,451.545349 218.611572,431.705109 
	C219.345840,430.657654 219.483292,429.191803 219.898575,427.920746 
	C219.898575,427.920746 219.995438,427.993256 220.270966,428.159790 
	C222.697937,425.519043 224.849365,422.711761 227.000793,419.904480 
	C227.000778,419.904480 226.996628,419.996826 227.296875,419.964752 
	C229.040573,417.924530 230.484039,415.916351 231.927490,413.908173 
	C231.927490,413.908173 231.992142,413.993164 232.269333,414.161499 
	C234.312180,412.475616 236.077835,410.621429 237.843491,408.767212 
	C237.843491,408.767212 237.844650,408.861298 238.149567,408.848633 
	C243.091965,405.351166 247.757217,401.902069 252.338287,398.344574 
	C253.061005,397.783325 253.403000,396.731873 253.921021,395.907043 
	C253.921021,395.907043 253.982941,395.984497 254.297607,396.094971 
	C254.786133,395.790466 254.959961,395.375458 255.133820,394.960480 
	C255.133820,394.960480 255.295120,394.826813 255.724792,395.050171 
	C256.751221,394.875000 257.347961,394.476440 257.944702,394.077820 
	C262.368958,391.362793 266.793213,388.647766 271.570953,385.860718 
	C270.809174,389.940491 268.474426,393.866302 269.744690,398.501221 
	C269.829803,398.811859 267.551208,400.260590 266.352020,400.287506 
	C265.271301,400.311707 264.163086,399.109894 262.017395,397.815735 
	C261.602844,400.779816 260.258179,403.783966 261.218781,405.081757 
	C262.645416,407.009155 265.595612,408.104767 268.106537,408.826141 
	C269.692596,409.281799 271.659821,408.410919 273.678040,408.420959 
	C270.420380,411.426422 266.940765,414.145935 263.141083,416.883972 
	C255.270416,423.866211 246.739197,430.038696 240.358368,437.946381 
	C223.195282,459.216492 214.039917,483.638214 213.239944,511.332703 
	C212.311325,543.481445 220.076416,572.657471 240.624924,597.703613 
	C246.222549,604.526428 253.440796,610.019775 259.957672,616.095215 
	C260.000061,616.067200 259.901398,616.091003 260.047882,616.393555 
	C265.760742,620.509277 271.327118,624.322388 276.921417,628.135986 
	C276.949371,628.136536 276.904022,628.106445 277.077515,628.395081 
	C278.472900,629.200867 279.694794,629.718018 281.037842,630.419128 
	C281.373810,630.815796 281.628510,630.956177 282.035339,631.213501 
	C282.348572,631.650513 282.608063,631.762573 283.192932,631.822754 
	C283.643677,631.937378 283.827637,631.968018 284.214508,632.251282 
	C285.612030,632.973083 286.806610,633.442261 288.170135,633.994263 
	C288.339111,634.077148 288.713135,634.119629 288.964844,634.377686 
	C292.814484,636.025635 296.412384,637.415588 300.312927,638.906372 
	C301.032532,639.089233 301.449432,639.171143 302.119873,639.463501 
	C303.233154,639.812988 304.092865,639.952087 304.977142,640.064392 
	C305.001709,640.037659 304.930878,640.053833 305.210083,640.306213 
	C311.330933,641.379211 317.172516,642.199829 323.332275,643.074463 
	C324.079285,643.114502 324.508179,643.100525 325.299316,643.287659 
	C327.146912,643.632874 328.632172,643.902100 330.117584,643.902954 
	C382.695526,643.932739 435.273438,643.937500 487.851379,643.945740 
z"/>
<path fill="#8B8EEB" opacity="1.000000" stroke="none" 
	d="
M698.758667,372.475586 
	C692.489502,372.152985 686.273987,370.807861 680.056152,370.797424 
	C603.874207,370.669586 527.691956,370.736969 451.509766,370.760223 
	C450.846466,370.760406 450.183197,370.848389 448.709717,370.946472 
	C445.351471,371.059113 442.803467,371.120605 440.255432,371.182098 
	C413.475861,371.055084 386.696320,370.928070 359.083893,370.801392 
	C357.507996,370.849548 356.764954,370.897369 355.620789,370.878265 
	C354.139893,370.858826 353.060150,370.906342 351.610535,370.884033 
	C350.492889,370.864410 349.745148,370.914642 348.997375,370.964874 
	C339.309814,371.027985 329.622253,371.091095 319.151459,371.172913 
	C317.577850,371.459961 316.787476,371.728271 315.997101,371.996613 
	C315.821106,372.005066 315.645081,372.013489 314.805603,372.030762 
	C312.768127,372.000885 311.394165,371.962219 310.020203,371.923553 
	C310.020203,371.923553 309.940186,371.935883 309.944336,371.976166 
	C315.584473,371.000366 321.219177,369.105835 326.856628,369.097595 
	C444.093628,368.926636 561.330994,368.918243 678.567993,369.102814 
	C685.317261,369.113434 692.063538,371.038971 698.758667,372.475586 
z"/>
<path fill="#8B8EEB" opacity="1.000000" stroke="none" 
	d="
M303.090942,662.380981 
	C305.025635,662.312500 307.125092,662.595215 309.617676,662.826721 
	C310.444061,662.845825 310.877319,662.916138 311.866211,663.309692 
	C313.615295,663.690674 314.808746,663.748474 316.002197,663.806274 
	C330.949768,664.267700 345.896637,665.097839 360.845062,665.127197 
	C428.254608,665.259705 495.664581,665.165283 563.980957,665.158203 
	C599.618713,665.183044 634.350037,665.269104 669.080872,665.168274 
	C676.527100,665.146606 683.983337,664.599426 691.412170,664.008240 
	C696.304016,663.618896 701.155151,662.716919 706.036865,662.039795 
	C706.049316,662.035095 706.059204,662.060120 706.059204,662.060059 
	C699.970093,663.378113 693.906677,665.686035 687.787537,665.844604 
	C659.725525,666.571655 631.648315,666.953308 603.575867,666.991638 
	C513.601135,667.114624 423.625549,667.166565 333.651794,666.837952 
	C323.514923,666.800903 313.387512,664.163696 303.090942,662.380981 
z"/>
<path fill="#8B8EEB" opacity="1.000000" stroke="none" 
	d="
M806.068726,453.932678 
	C808.378479,458.411255 810.993103,462.763245 812.918579,467.401337 
	C815.168579,472.821259 817.190125,478.398041 818.604187,484.082550 
	C819.657410,488.316681 819.628662,492.826782 820.007690,497.220367 
	C820.708740,505.345490 822.023438,513.490173 821.843140,521.599182 
	C821.649841,530.287231 820.555847,539.047241 818.879517,547.584290 
	C817.237305,555.948059 815.167053,564.414307 811.819519,572.206116 
	C808.201538,580.627502 802.536743,588.143921 798.399414,596.374146 
	C793.017151,607.081116 785.368958,616.071289 776.802612,624.008911 
	C768.433960,631.763428 758.725647,638.080078 749.525940,644.921082 
	C748.181458,645.920898 746.395935,646.327820 744.431763,647.023376 
	C744.049072,647.037720 744.032104,647.046326 744.048828,646.696655 
	C745.856995,645.159851 747.609375,643.908325 749.445923,642.795837 
	C765.579285,633.022766 779.248047,620.442200 790.319946,605.286255 
	C808.393921,580.545471 818.326477,552.826782 819.042114,521.539551 
	C818.338196,510.715790 817.566040,500.354919 816.822266,489.624023 
	C816.497375,487.819092 816.144165,486.384125 815.768555,484.688110 
	C815.525696,484.162018 815.305176,483.897034 815.148926,483.254883 
	C814.725403,480.898041 814.237732,478.918335 813.726318,476.705292 
	C813.561768,476.177643 813.345581,475.957306 813.041443,475.447632 
	C812.607483,473.705109 812.186035,472.325867 811.769592,470.691772 
	C811.542175,470.198547 811.309814,469.960175 811.054932,469.533813 
	C811.032349,469.345825 810.868408,469.004547 810.845215,468.640259 
	C809.229919,463.507507 807.637756,458.739014 806.045898,453.957703 
	C806.046082,453.944885 806.068726,453.932678 806.068726,453.932678 
z"/>
<path fill="#8B8EEB" opacity="1.000000" stroke="none" 
	d="
M219.577972,428.036011 
	C219.483292,429.191803 219.345840,430.657654 218.611572,431.705109 
	C204.703751,451.545349 195.711960,473.489838 193.385361,497.517670 
	C189.228607,540.446533 199.048065,579.719543 226.874146,613.618835 
	C227.887939,614.853943 228.564072,616.366272 229.194046,618.111816 
	C224.551208,613.083557 219.732590,607.956543 215.758759,602.242065 
	C209.301254,592.956177 203.842468,583.076843 200.912811,571.996887 
	C198.661728,563.483154 196.175964,555.029663 194.039230,546.488159 
	C192.564911,540.594604 191.204163,534.639038 190.365875,528.631165 
	C189.750671,524.221985 190.081482,519.682739 189.961761,515.202148 
	C189.694946,505.217560 190.598083,495.478516 193.815170,485.859558 
	C196.799866,476.935516 197.970337,467.360199 201.385483,458.637695 
	C204.538055,450.585785 209.528549,443.238464 213.880661,435.679321 
	C215.411911,433.019745 217.450455,430.652191 219.577972,428.036011 
z"/>
<path fill="#8B8EEB" opacity="1.000000" stroke="none" 
	d="
M782.152283,416.834778 
	C791.788269,425.526520 797.872498,436.867676 804.858215,447.517578 
	C805.830811,449.000275 805.662598,451.231232 806.045654,453.524231 
	C806.068726,453.932678 806.046082,453.944885 805.700684,453.902740 
	C802.658386,449.129547 800.259094,444.195160 797.197510,439.713196 
	C792.092957,432.240326 786.564392,425.057007 781.449097,417.522705 
	C781.839844,417.140717 781.996033,416.987762 782.152283,416.834778 
z"/>
<path fill="#8B8EEB" opacity="1.000000" stroke="none" 
	d="
M744.052490,647.049255 
	C732.617859,654.405151 720.205933,659.329834 706.476562,662.039307 
	C706.059204,662.060120 706.049316,662.035095 706.169434,661.691589 
	C715.225159,657.941284 724.158081,654.527344 733.097778,651.131165 
	C736.734924,649.749512 740.386841,648.406738 744.032104,647.046265 
	C744.032104,647.046326 744.049072,647.037720 744.052490,647.049255 
z"/>
<path fill="#8B8EEB" opacity="1.000000" stroke="none" 
	d="
M253.595886,396.050537 
	C253.403000,396.731873 253.061005,397.783325 252.338287,398.344574 
	C247.757217,401.902069 243.091965,405.351166 238.102661,408.844971 
	C241.101410,402.399475 247.540802,399.731628 253.595886,396.050537 
z"/>
<path fill="#8B8EEB" opacity="1.000000" stroke="none" 
	d="
M736.997131,386.073029 
	C735.799622,385.547180 734.602173,385.021301 733.149231,384.005615 
	C732.677429,383.221008 732.388916,383.104156 732.028320,383.165192 
	C732.028320,383.165192 731.577087,383.017700 731.122070,382.721100 
	C728.787598,381.267456 726.908142,380.110382 725.039490,378.954712 
	C725.050354,378.956085 725.057007,378.933868 725.057007,378.933868 
	C730.636353,381.371704 736.215759,383.809540 741.927856,386.598389 
	C742.060608,386.949402 742.028442,386.954498 741.668091,387.070465 
	C739.870850,386.815308 738.433960,386.444183 736.997131,386.073029 
z"/>
<path fill="#8B8EEB" opacity="1.000000" stroke="none" 
	d="
M760.092651,397.897644 
	C763.336121,400.361694 766.579651,402.825745 769.942749,405.613708 
	C770.062317,405.937622 770.040527,405.955200 769.712158,406.158630 
	C766.268616,403.560852 763.153442,400.759583 760.051697,397.943054 
	C760.065186,397.927795 760.092651,397.897644 760.092651,397.897644 
z"/>
<path fill="#8B8EEB" opacity="1.000000" stroke="none" 
	d="
M715.996094,377.049194 
	C713.811707,376.266632 711.627258,375.484070 709.274048,374.399109 
	C714.313354,375.486359 719.521545,376.876007 724.893311,378.599792 
	C725.057007,378.933868 725.050354,378.956085 724.656982,379.064209 
	C721.507812,378.464630 718.751953,377.756897 715.996094,377.049194 
z"/>
<path fill="#8B8EEB" opacity="1.000000" stroke="none" 
	d="
M301.977600,374.966492 
	C300.829498,375.179108 299.681366,375.391693 297.934937,375.829590 
	C296.776276,376.330231 296.215942,376.605560 295.655640,376.880920 
	C295.285461,376.928101 294.915253,376.975311 293.929199,377.072784 
	C291.868378,377.733673 290.423431,378.344330 288.978516,378.954987 
	C288.203033,379.035431 287.427582,379.115875 286.281250,379.075073 
	C290.962372,377.313019 296.014343,375.672272 301.517273,374.285400 
	C301.968201,374.539246 301.977600,374.966492 301.977600,374.966492 
z"/>
<path fill="#8B8EEB" opacity="1.000000" stroke="none" 
	d="
M751.060852,391.929962 
	C753.981262,393.704285 756.901733,395.478607 759.957397,397.575287 
	C760.092651,397.897644 760.065186,397.927795 759.710144,398.125732 
	C756.583313,396.200439 753.811462,394.077209 751.044556,391.948883 
	C751.049500,391.943787 751.060852,391.929962 751.060852,391.929962 
z"/>
<path fill="#8B8EEB" opacity="1.000000" stroke="none" 
	d="
M770.071899,405.927429 
	C772.407166,407.671539 774.732788,409.425873 777.059143,411.558533 
	C777.059875,411.936890 777.044861,411.959564 776.701538,412.117249 
	C774.252319,410.168335 772.146423,408.061768 770.040527,405.955200 
	C770.040527,405.955200 770.062317,405.937622 770.071899,405.927429 
z"/>
<path fill="#8B8EEB" opacity="1.000000" stroke="none" 
	d="
M251.036713,637.370117 
	C253.902298,638.837158 256.897003,640.623962 259.943787,642.755493 
	C257.052521,641.296814 254.109161,639.493286 251.036713,637.370117 
z"/>
<path fill="#8B8EEB" opacity="1.000000" stroke="none" 
	d="
M226.643295,419.946594 
	C224.849365,422.711761 222.697937,425.519043 220.226013,428.119019 
	C222.032288,425.270752 224.159042,422.629761 226.643295,419.946594 
z"/>
<path fill="#8B8EEB" opacity="1.000000" stroke="none" 
	d="
M236.952881,626.433594 
	C239.373672,627.864502 241.833633,629.650391 244.106964,631.766113 
	C241.610886,630.326843 239.301468,628.557739 236.952881,626.433594 
z"/>
<path fill="#8B8EEB" opacity="1.000000" stroke="none" 
	d="
M231.544983,413.925842 
	C230.484039,415.916351 229.040573,417.924530 227.250717,419.962585 
	C228.323700,417.976135 229.743088,415.959808 231.544983,413.925842 
z"/>
<path fill="#8B8EEB" opacity="1.000000" stroke="none" 
	d="
M777.069946,411.927612 
	C778.657043,413.359589 780.234131,414.800873 781.981750,416.538452 
	C781.996033,416.987762 781.839844,417.140717 781.175781,417.320374 
	C779.460144,415.551239 778.252502,413.755402 777.044861,411.959564 
	C777.044861,411.959564 777.059875,411.936890 777.069946,411.927612 
z"/>
<path fill="#8B8EEB" opacity="1.000000" stroke="none" 
	d="
M237.465302,408.652344 
	C236.077835,410.621429 234.312180,412.475616 232.228912,414.126556 
	C233.636581,412.128021 235.361832,410.332764 237.465302,408.652344 
z"/>
<path fill="#8B8EEB" opacity="1.000000" stroke="none" 
	d="
M231.948837,621.425415 
	C233.719925,622.522766 235.531326,623.981445 237.132462,625.763489 
	C235.277847,624.653503 233.633499,623.220154 231.948837,621.425415 
z"/>
<path fill="#8B8EEB" opacity="1.000000" stroke="none" 
	d="
M278.031555,653.410034 
	C279.743652,653.772095 281.575531,654.462524 283.572205,655.436462 
	C281.875153,655.059448 280.013245,654.398987 278.031555,653.410034 
z"/>
<path fill="#8B8EEB" opacity="1.000000" stroke="none" 
	d="
M285.624207,378.939575 
	C285.188232,379.565033 284.377869,380.237701 283.023956,381.070679 
	C282.170380,381.383911 281.974457,381.628265 281.892670,381.964111 
	C281.892670,381.964111 281.960632,381.943146 281.573090,381.939087 
	C280.445801,381.941589 279.706055,381.948181 278.979370,381.971832 
	C278.992432,381.988892 278.957275,381.958649 278.957275,381.958649 
	C281.054779,380.968018 283.152283,379.977386 285.624207,378.939575 
z"/>
<path fill="#8B8EEB" opacity="1.000000" stroke="none" 
	d="
M746.091125,388.895081 
	C747.661194,389.692291 749.231262,390.489532 750.931091,391.608337 
	C751.060852,391.929962 751.049500,391.943787 750.691040,392.104431 
	C748.899048,391.161133 747.465637,390.057220 746.048645,388.940491 
	C746.065125,388.927704 746.091125,388.895081 746.091125,388.895081 
z"/>
<path fill="#3B3B80" opacity="1.000000" stroke="none" 
	d="
M302.212280,375.155151 
	C301.977600,374.966492 301.968201,374.539246 301.932922,374.328491 
	C302.656067,374.058899 303.414490,374.000122 304.551758,373.902466 
	C304.102783,374.357025 303.274872,374.850433 302.212280,375.155151 
z"/>
<path fill="#8B8EEB" opacity="1.000000" stroke="none" 
	d="
M266.022491,647.469727 
	C267.246124,647.536743 268.570404,647.938477 269.942322,648.723328 
	C268.701019,648.672424 267.412079,648.238403 266.022491,647.469727 
z"/>
<path fill="#8B8EEB" opacity="1.000000" stroke="none" 
	d="
M742.068726,386.935242 
	C743.321594,387.373505 744.566284,387.825928 745.951050,388.586731 
	C746.091125,388.895081 746.065125,388.927704 745.737976,389.165833 
	C744.283386,388.587463 743.155884,387.770996 742.028442,386.954498 
	C742.028442,386.954498 742.060608,386.949402 742.068726,386.935242 
z"/>
<path fill="#8B8EEB" opacity="1.000000" stroke="none" 
	d="
M245.945801,633.363525 
	C247.018372,633.822083 248.136810,634.623962 249.092926,635.757874 
	C247.950974,635.295593 246.971313,634.501221 245.945801,633.363525 
z"/>
<path fill="#8B8EEB" opacity="1.000000" stroke="none" 
	d="
M263.024963,645.369080 
	C263.977570,645.499939 265.047638,645.946533 266.016785,646.756958 
	C264.991394,646.642151 264.066895,646.163452 263.024963,645.369080 
z"/>
<path fill="#8B8EEB" opacity="1.000000" stroke="none" 
	d="
M270.059326,649.370972 
	C271.244354,649.494507 272.575165,649.931458 273.946686,650.739258 
	C272.726624,650.634949 271.465820,650.159729 270.059326,649.370972 
z"/>
<path fill="#8B8EEB" opacity="1.000000" stroke="none" 
	d="
M260.027740,643.351013 
	C260.920959,643.492493 261.931335,643.945312 262.962097,644.753357 
	C262.036652,644.626465 261.090790,644.144409 260.027740,643.351013 
z"/>
<path fill="#8B8EEB" opacity="1.000000" stroke="none" 
	d="
M229.717102,619.328613 
	C230.394760,619.432251 231.263077,619.853943 232.043915,620.689087 
	C231.273544,620.617249 230.590652,620.131897 229.717102,619.328613 
z"/>
<path fill="#3B3B80" opacity="1.000000" stroke="none" 
	d="
M275.644104,383.863220 
	C275.392456,384.257355 274.850464,384.706665 274.105713,384.988708 
	C274.386597,384.520416 274.870209,384.219391 275.644104,383.863220 
z"/>
<path fill="#8B8EEB" opacity="1.000000" stroke="none" 
	d="
M274.022797,651.354431 
	C274.577454,651.166687 275.248260,651.279358 275.948303,651.755981 
	C275.364716,651.964905 274.751801,651.809875 274.022797,651.354431 
z"/>
<path fill="#8B8EEB" opacity="1.000000" stroke="none" 
	d="
M276.016113,652.382080 
	C276.567810,652.178528 277.229004,652.279907 277.936523,652.750366 
	C277.363770,652.975281 276.744690,652.831177 276.016113,652.382080 
z"/>
<path fill="#8B8EEB" opacity="1.000000" stroke="none" 
	d="
M278.001923,383.340454 
	C277.818756,383.287323 277.635559,383.234222 277.183105,383.084229 
	C277.381653,382.659760 277.849426,382.332123 278.637268,381.981567 
	C278.957275,381.958649 278.992432,381.988892 278.962372,382.274963 
	C278.622192,382.820831 278.312042,383.080658 278.001923,383.340454 
z"/>
<path fill="#8B8EEB" opacity="1.000000" stroke="none" 
	d="
M249.040863,636.365112 
	C249.568420,636.173340 250.223709,636.273132 250.936157,636.740479 
	C250.385071,636.957520 249.776840,636.807068 249.040863,636.365112 
z"/>
<path fill="#8B8EEB" opacity="1.000000" stroke="none" 
	d="
M244.034576,632.387817 
	C244.559937,632.178406 245.203415,632.267456 245.923615,632.729492 
	C245.384476,632.963806 244.768585,632.825073 244.034576,632.387817 
z"/>
<path fill="#8B8EEB" opacity="1.000000" stroke="none" 
	d="
M257.590881,394.042328 
	C257.347961,394.476440 256.751221,394.875000 255.796539,395.126526 
	C256.038086,394.655243 256.637573,394.331024 257.590881,394.042328 
z"/>
<path fill="#3B3B80" opacity="1.000000" stroke="none" 
	d="
M305.718903,373.155518 
	C305.772186,373.364258 305.546631,373.569977 305.092285,373.859741 
	C305.086731,373.714142 305.278931,373.450378 305.718903,373.155518 
z"/>
<path fill="#8B8EEB" opacity="1.000000" stroke="none" 
	d="
M254.836060,394.977234 
	C254.959961,395.375458 254.786133,395.790466 254.255417,396.068970 
	C254.111801,395.619629 254.325043,395.306824 254.836060,394.977234 
z"/>
<path fill="#FFFFFF" opacity="1.000000" stroke="none" 
	d="
M509.229828,587.986145 
	C509.164001,573.663269 509.047821,559.340393 509.041504,545.017517 
	C509.019897,495.872406 509.036743,446.727295 509.038971,397.582184 
	C509.039032,395.934204 509.038971,394.286224 509.038971,391.907104 
	C511.033203,391.907104 512.788208,391.909607 514.543213,391.906708 
	C571.183960,391.813507 627.824707,391.676941 684.465454,391.655518 
	C699.131714,391.649994 712.700928,396.343262 726.315430,402.197266 
	C726.676941,402.274323 726.682312,402.298279 726.902649,402.552612 
	C729.085571,403.834656 731.048096,404.862366 733.278564,406.107971 
	C739.565552,410.607025 745.706116,414.728729 751.576599,419.204712 
	C761.736450,426.950958 770.942505,435.725220 777.304565,446.935760 
	C782.164062,455.498779 786.393127,464.419525 790.915771,473.553680 
	C798.374451,491.974152 799.615234,510.783051 797.473999,530.048340 
	C795.631042,532.025757 793.893738,533.786072 792.640259,535.841492 
	C788.229370,543.074341 784.850342,551.124878 779.516357,557.571594 
	C762.768372,577.813477 740.922302,588.019592 714.486084,588.013672 
	C646.067322,587.998352 577.648560,587.994507 509.229828,587.986145 
z"/>
<path fill="#C2D9F9" opacity="1.000000" stroke="none" 
	d="
M509.147034,588.447632 
	C577.648560,587.994507 646.067322,587.998352 714.486084,588.013672 
	C740.922302,588.019592 762.768372,577.813477 779.516357,557.571594 
	C784.850342,551.124878 788.229370,543.074341 792.640259,535.841492 
	C793.893738,533.786072 795.631042,532.025757 797.571167,530.486816 
	C797.661255,533.768616 797.537659,536.736267 796.959900,539.612549 
	C789.993286,574.294189 772.180542,602.109924 743.070557,622.156128 
	C725.655823,634.148621 706.276978,641.854309 684.553101,644.009888 
	C681.740295,644.045593 679.370239,644.121338 676.540222,644.126038 
	C671.720154,644.118408 667.360107,644.181824 662.536255,644.173096 
	C644.382446,644.140564 626.692444,644.180176 608.539795,644.146606 
	C602.717957,644.120056 597.358887,644.166565 591.560059,644.142456 
	C588.747681,644.118896 586.375061,644.165894 583.543823,644.140869 
	C579.054932,644.127441 575.024658,644.186035 570.994324,644.244629 
	C550.537964,644.244629 530.081543,644.244629 509.064240,644.244629 
	C509.064240,625.432373 509.064240,607.170715 509.147034,588.447632 
z"/>
<path fill="#42BCF6" opacity="1.000000" stroke="none" 
	d="
M488.201355,585.991394 
	C488.110748,586.424255 488.020142,586.857056 487.547424,587.579285 
	C486.770996,587.819824 486.376648,587.770996 485.986755,587.290344 
	C485.993530,585.192383 486.247986,583.476746 485.933319,581.872803 
	C485.554321,579.940735 485.221741,577.082825 483.939148,576.416992 
	C480.108490,574.428284 475.764557,573.455017 471.753967,571.769104 
	C470.631104,571.297058 469.385345,569.795837 469.259888,568.650146 
	C469.138153,567.539124 470.154480,565.473267 471.065979,565.213745 
	C477.020294,563.517944 476.395416,559.747803 475.940674,554.691833 
	C475.191528,546.362427 471.442017,537.283875 479.158386,529.885498 
	C479.766663,529.302307 479.894348,528.036987 479.938660,527.074585 
	C480.333496,518.500549 481.142670,509.915436 477.977692,501.572174 
	C477.036774,499.091766 476.349426,497.238068 473.184753,496.718475 
	C471.615784,496.460907 470.324890,494.129791 469.034637,492.628143 
	C465.611237,488.643890 466.182098,482.130463 460.624603,479.340698 
	C460.136078,479.095490 460.245728,475.730133 461.020630,475.204651 
	C466.737030,471.327972 467.744568,465.476379 467.931946,459.399902 
	C468.120209,453.294952 467.892456,447.169159 467.639679,441.061096 
	C467.434540,436.103943 464.632538,433.388306 460.167206,433.996643 
	C460.617798,435.439575 461.062103,436.795410 461.464630,438.163513 
	C463.029144,443.481049 462.492615,449.419922 458.834747,452.706757 
	C454.504730,456.597534 455.493683,458.408691 458.748383,461.559631 
	C459.481964,462.269867 459.617798,464.684906 458.985565,465.430664 
	C458.269989,466.274689 455.676941,466.819946 455.133179,466.271881 
	C453.561737,464.688049 452.286194,462.604889 451.532867,460.490387 
	C451.062805,459.170898 451.747955,457.439880 451.914703,455.893524 
	C450.519379,456.359497 449.145782,456.915802 447.720917,457.259125 
	C446.794983,457.482269 445.794861,457.418915 444.826935,457.443085 
	C438.589355,457.598938 432.349487,457.687592 426.114563,457.914001 
	C422.691284,458.038300 419.276154,458.388641 415.857361,458.637085 
	C415.769745,458.172241 415.682129,457.707397 415.594482,457.242554 
	C416.425049,456.473053 417.255585,455.703552 418.322693,454.714874 
	C417.344604,454.379333 416.892303,454.089081 416.439423,454.088196 
	C398.613220,454.053314 380.786926,454.022736 362.960907,454.079529 
	C361.697113,454.083557 359.975647,454.350464 359.245850,455.180206 
	C353.664307,461.526123 346.764984,458.758942 340.172729,458.215637 
	C338.564514,458.083099 336.495270,457.311005 335.424194,458.020264 
	C331.659821,460.513062 327.836700,460.770905 323.531494,460.137177 
	C321.340515,459.814667 318.894012,460.513214 316.707062,461.205322 
	C315.737488,461.512146 314.265137,463.332397 314.479889,463.810608 
	C317.354034,470.211700 310.797485,471.372498 308.468262,474.810120 
	C308.157928,475.268127 306.606842,475.543060 306.272217,475.225800 
	C302.744263,471.881042 295.236359,474.845306 294.919434,467.040710 
	C291.715271,469.122711 289.110565,470.507721 286.908386,472.369080 
	C285.714264,473.378418 285.205902,475.199066 284.388153,476.653748 
	C285.982300,477.207916 287.843872,478.574432 289.117493,478.155121 
	C292.214325,477.135590 293.556305,477.947235 293.902954,480.985840 
	C294.279846,484.289642 292.850647,486.602539 289.476562,485.873993 
	C283.985687,484.688477 278.642670,482.811432 273.255493,481.166443 
	C272.858765,481.045349 272.508301,480.489929 272.306366,480.057098 
	C270.216156,475.576080 266.885834,476.508942 264.115967,478.751404 
	C260.094177,482.007416 257.687622,480.477325 255.049362,477.057770 
	C254.253708,476.026428 251.851501,474.963135 251.044357,475.422852 
	C246.538284,477.989410 242.795013,476.340942 239.072586,473.622620 
	C240.988907,467.839600 242.851028,462.436127 244.996094,456.833984 
	C253.198608,446.051544 262.271698,436.773254 273.668060,429.774384 
	C289.270569,420.192291 306.132538,414.295197 324.294739,413.201355 
	C338.348633,412.354919 352.497894,413.107666 366.604767,413.121613 
	C384.878754,413.139648 403.152710,413.139404 421.426697,413.129730 
	C443.563477,413.118011 465.700226,413.088287 487.837006,413.066315 
	C487.837006,413.066315 488.027710,412.973969 488.049622,413.425049 
	C488.064209,447.802338 488.036469,481.728577 488.056671,515.654785 
	C488.070618,539.100342 488.150787,562.545837 488.201355,585.991394 
M314.710846,452.866394 
	C358.669434,452.860138 402.628021,452.854156 446.586609,452.846100 
	C447.751984,452.845886 448.939697,452.964294 450.078766,452.784790 
	C454.475098,452.092133 457.962769,449.905396 459.551208,445.665497 
	C461.097046,441.539337 460.184814,437.184235 456.764832,434.791107 
	C453.867279,432.763641 449.783661,431.499908 446.222351,431.494263 
	C403.433105,431.426300 360.643433,431.652618 317.853882,431.816223 
	C315.359314,431.825745 312.834015,431.734406 310.377655,432.079163 
	C305.899902,432.707581 301.558380,436.828613 301.081940,440.676941 
	C300.456238,445.730865 302.455322,449.547333 307.087860,451.572296 
	C309.118134,452.459808 311.536560,452.459290 314.710846,452.866394 
M393.500000,429.995056 
	C403.319733,429.994537 413.145142,430.184875 422.956207,429.893127 
	C426.538391,429.786621 430.154114,428.746857 433.601410,427.651093 
	C434.434784,427.386169 435.398895,424.346344 435.049164,424.046967 
	C432.107910,421.528900 429.147736,418.084045 425.672699,417.335815 
	C418.442078,415.779022 410.899963,415.236877 403.472137,415.114532 
	C385.834717,414.824005 368.185669,414.827301 350.549683,415.157257 
	C346.143707,415.239685 341.174683,415.746826 339.574921,421.741028 
	C339.210754,423.105621 336.684204,424.082458 334.976166,424.838501 
	C333.631195,425.433868 332.014435,425.415131 330.518372,425.669128 
	C330.549988,426.169464 330.581635,426.669800 330.613251,427.170135 
	C351.031982,431.736084 371.846741,429.473328 393.500000,429.995056 
M286.678070,446.579041 
	C283.136566,443.964203 279.548431,444.200867 276.114502,446.661865 
	C273.699066,448.392944 271.385468,450.294556 269.192505,452.301453 
	C264.957764,456.176941 264.550049,462.814484 268.155273,466.953552 
	C271.267853,470.526978 276.169525,470.536041 281.002808,466.942322 
	C282.332031,465.954010 283.621765,464.908875 284.889618,463.842255 
	C291.424561,458.344360 291.980591,454.361328 286.678070,446.579041 
M280.299652,475.302521 
	C277.244629,472.903809 275.155060,473.898468 273.370636,477.252594 
	C276.401123,479.534363 278.379883,478.216125 280.299652,475.302521 
z"/>
<path fill="#3C3A7E" opacity="1.000000" stroke="none" 
	d="
M684.995911,644.049927 
	C706.276978,641.854309 725.655823,634.148621 743.070557,622.156128 
	C772.180542,602.109924 789.993286,574.294189 796.959900,539.612549 
	C797.537659,536.736267 797.661255,533.768616 797.898682,530.405029 
	C799.615234,510.783051 798.374451,491.974152 791.014771,473.266846 
	C792.553772,473.177643 794.348633,473.399536 795.373901,474.405609 
	C796.667419,475.675049 797.333130,477.584259 798.424622,479.487762 
	C803.095520,475.997131 800.975952,465.171448 810.868408,469.004547 
	C810.868408,469.004547 811.032349,469.345825 811.135620,469.756348 
	C811.372375,470.454895 811.547668,470.714813 811.764648,470.946625 
	C812.186035,472.325867 812.607483,473.705109 813.127075,475.653687 
	C813.362854,476.488953 813.537781,476.727509 813.750061,476.938660 
	C814.237732,478.918335 814.725403,480.898041 815.228638,483.494995 
	C815.426453,484.391235 815.608704,484.670197 815.790894,484.949188 
	C816.144165,486.384125 816.497375,487.819092 816.421387,489.625000 
	C811.329224,490.511688 808.294312,488.034821 805.362122,484.772125 
	C803.827515,483.064453 801.353516,482.200958 799.303772,480.956238 
	C798.762024,481.386566 798.220276,481.816864 797.678528,482.247192 
	C798.427979,485.307098 799.547058,488.329803 799.859253,491.433685 
	C800.904968,501.831787 801.531067,512.273132 802.659241,522.660889 
	C802.848511,524.403137 804.476196,526.970825 805.905212,527.336548 
	C807.518433,527.749451 810.775574,526.594604 811.357422,525.264221 
	C813.053040,521.386902 815.621155,521.167908 818.973999,522.002441 
	C818.326477,552.826782 808.393921,580.545471 790.319946,605.286255 
	C779.248047,620.442200 765.579285,633.022766 749.445923,642.795837 
	C747.609375,643.908325 745.856995,645.159851 744.048828,646.696594 
	C740.386841,648.406738 736.734924,649.749512 733.097778,651.131165 
	C724.158081,654.527344 715.225159,657.941284 706.156982,661.696289 
	C701.155151,662.716919 696.304016,663.618896 691.412170,664.008240 
	C683.983337,664.599426 676.527100,665.146606 669.080872,665.168274 
	C634.350037,665.269104 599.618713,665.183044 564.445923,665.090698 
	C562.078613,664.678345 560.155762,664.066895 558.226624,664.046143 
	C548.733276,663.943848 539.238037,664.022156 529.743835,663.974976 
	C528.073975,663.966675 526.405640,663.664062 524.607849,662.959412 
	C529.664246,660.127136 533.112854,656.516479 534.355469,650.918518 
	C534.545166,650.064087 536.616638,649.222900 537.896790,649.079163 
	C548.071594,647.936279 558.267334,646.980652 568.449768,645.902832 
	C569.202087,645.823242 569.900940,645.239075 570.809448,644.567017 
	C575.024658,644.186035 579.054932,644.127441 583.675659,644.455933 
	C587.070374,647.411560 589.757812,648.546570 591.999817,644.213074 
	C597.358887,644.166565 602.717957,644.120056 608.694458,644.465942 
	C611.611145,645.570557 613.884766,646.776184 616.214783,646.897522 
	C621.962341,647.196716 627.735779,646.999451 633.498840,646.999756 
	C641.445923,647.000244 649.399536,647.172791 657.335266,646.872498 
	C659.253906,646.799927 661.113403,645.162903 663.000061,644.245239 
	C667.360107,644.181824 671.720154,644.118408 676.626953,644.442505 
	C680.611084,648.630615 681.756470,648.516418 684.995911,644.049927 
z"/>
<path fill="#80DCF9" opacity="1.000000" stroke="none" 
	d="
M487.762360,412.660278 
	C465.700226,413.088287 443.563477,413.118011 421.426697,413.129730 
	C403.152710,413.139404 384.878754,413.139648 366.604767,413.121613 
	C352.497894,413.107666 338.348633,412.354919 324.294739,413.201355 
	C306.132538,414.295197 289.270569,420.192291 273.668060,429.774384 
	C262.271698,436.773254 253.198608,446.051544 245.080719,456.430023 
	C245.361740,454.313324 245.514877,452.239319 246.373260,450.516754 
	C251.984070,439.257202 257.747559,428.073761 263.461151,416.865479 
	C266.940765,414.145935 270.420380,411.426422 274.103271,408.427795 
	C276.724701,406.939880 279.142914,405.731049 282.012451,404.233337 
	C282.809540,403.842865 283.029175,403.618134 283.122742,403.270203 
	C285.858368,402.195160 288.593994,401.120117 291.926636,399.922363 
	C292.832916,399.633179 293.026825,399.378754 293.105377,399.036407 
	C309.069122,392.876984 325.659851,391.619080 342.639740,391.680817 
	C390.050232,391.853241 437.462708,391.483215 485.509644,391.408264 
	C486.770966,391.961700 487.397125,392.434143 488.023254,392.906586 
	C487.911407,399.355804 487.799561,405.805023 487.762360,412.660278 
z"/>
<path fill="#3B3B80" opacity="1.000000" stroke="none" 
	d="
M810.845215,468.640259 
	C800.975952,465.171448 803.095520,475.997131 798.424622,479.487762 
	C797.333130,477.584259 796.667419,475.675049 795.373901,474.405609 
	C794.348633,473.399536 792.553772,473.177643 791.001648,472.894348 
	C786.393127,464.419525 782.164062,455.498779 777.304565,446.935760 
	C770.942505,435.725220 761.736450,426.950958 751.576599,419.204712 
	C745.706116,414.728729 739.565552,410.607025 733.242920,405.730042 
	C732.199219,401.220215 729.293945,402.083221 726.682312,402.298279 
	C726.682312,402.298279 726.676941,402.274323 726.666870,402.283142 
	C726.802246,398.956635 725.348633,397.399231 721.925964,396.608978 
	C716.408630,395.335114 715.000061,392.969269 715.993652,388.709167 
	C720.533142,390.574615 725.085205,392.438995 729.631042,394.318634 
	C730.547729,394.697662 731.438416,395.474304 732.344849,395.480194 
	C734.951172,395.497162 737.559509,395.213348 740.167114,395.047729 
	C739.372253,392.727844 738.585510,390.405182 737.776001,388.090485 
	C737.613586,387.626099 737.364624,387.192017 737.076416,386.408508 
	C738.433960,386.444183 739.870850,386.815308 741.668091,387.070465 
	C743.155884,387.770996 744.283386,388.587463 745.721497,389.178650 
	C747.465637,390.057220 748.899048,391.161133 750.686096,392.109497 
	C753.811462,394.077209 756.583313,396.200439 759.696655,398.140991 
	C763.153442,400.759583 766.268616,403.560852 769.712158,406.158630 
	C772.146423,408.061768 774.252319,410.168335 776.701538,412.117249 
	C778.252502,413.755402 779.460144,415.551239 780.941101,417.549438 
	C786.564392,425.057007 792.092957,432.240326 797.197510,439.713196 
	C800.259094,444.195160 802.658386,449.129547 805.700500,453.915558 
	C807.637756,458.739014 809.229919,463.507507 810.845215,468.640259 
z"/>
<path fill="#3C3A7E" opacity="1.000000" stroke="none" 
	d="
M440.242615,371.579071 
	C442.803467,371.120605 445.351471,371.059113 448.302612,371.081299 
	C447.978516,375.704712 449.846832,376.872772 454.291229,376.314728 
	C458.177582,375.826752 462.245361,376.174774 466.146698,376.744415 
	C467.519653,376.944885 469.458313,378.779449 469.646393,380.083221 
	C469.846375,381.469452 468.648071,383.577209 467.414825,384.559570 
	C462.346100,388.597168 456.816681,390.685333 449.911316,390.178833 
	C440.158752,389.463440 430.312988,390.092804 420.510345,389.938263 
	C417.749725,389.894775 415.012665,388.910126 412.242188,388.750580 
	C410.197693,388.632812 408.046478,388.898560 406.065430,389.441193 
	C401.204681,390.772583 400.032837,389.858673 400.765961,384.907990 
	C402.114075,375.804382 402.046478,376.557129 411.527405,377.419281 
	C421.592926,378.334534 431.806213,377.624939 443.050476,377.624939 
	C441.613281,374.746735 440.921539,373.361389 440.242615,371.579071 
M428.747833,383.827667 
	C429.142059,384.320740 429.536316,384.813782 429.930573,385.306885 
	C430.136017,385.106293 430.341492,384.905701 430.546936,384.705078 
	C430.071716,384.299408 429.596497,383.893738 428.747833,383.827667 
z"/>
<path fill="#2F85EA" opacity="1.000000" stroke="none" 
	d="
M485.982300,587.722168 
	C486.376648,587.770996 486.770996,587.819824 487.461609,587.899902 
	C487.859100,588.396912 487.960358,588.862671 488.069550,590.127075 
	C488.123810,594.274902 488.170135,597.624023 488.216461,600.973145 
	C488.117523,614.988403 488.018585,629.003723 487.885529,643.482361 
	C435.273438,643.937500 382.695526,643.932739 330.117584,643.902954 
	C328.632172,643.902100 327.146912,643.632874 325.644531,643.045349 
	C335.204559,642.398499 344.781372,642.033752 354.358704,642.019348 
	C396.437073,641.955994 438.515717,641.950439 480.593872,642.063416 
	C484.718842,642.074463 486.144592,640.722656 486.068665,636.591614 
	C485.860901,625.285828 485.927704,613.973083 486.029236,602.664368 
	C486.075500,597.510315 486.267151,592.398621 483.376770,587.941833 
	C484.494171,587.857971 485.238251,587.790039 485.982300,587.722168 
z"/>
<path fill="#3B3B80" opacity="1.000000" stroke="none" 
	d="
M488.524170,585.820801 
	C488.150787,562.545837 488.070618,539.100342 488.056671,515.654785 
	C488.036469,481.728577 488.064209,447.802338 488.154602,413.411255 
	C488.825256,414.712921 489.898254,416.473083 489.921600,418.247040 
	C490.074646,429.880402 489.912689,441.517883 490.066315,453.151245 
	C490.102509,455.890930 490.965820,458.617798 491.422272,461.354919 
	C491.583466,462.321594 491.844757,463.318146 491.755157,464.272400 
	C491.219971,469.972382 490.140350,475.659424 490.082916,481.359253 
	C489.875275,501.968353 489.903992,522.581482 490.045013,543.191711 
	C490.108734,552.508118 490.931519,561.823792 490.851562,571.135010 
	C490.809967,575.978760 489.554260,580.812073 488.524170,585.820801 
z"/>
<path fill="#3B3B80" opacity="1.000000" stroke="none" 
	d="
M338.093079,389.997650 
	C334.619446,389.820709 331.630524,389.643890 327.947784,389.425995 
	C331.633636,384.598114 353.330536,384.925201 359.052551,389.997742 
	C352.227631,389.997742 345.402679,389.997742 338.093079,389.997650 
z"/>
<path fill="#3B3B80" opacity="1.000000" stroke="none" 
	d="
M349.006378,371.366730 
	C349.745148,370.914642 350.492889,370.864410 351.862396,371.089844 
	C353.663391,371.225403 354.842651,371.085297 356.021912,370.945190 
	C356.764954,370.897369 357.507996,370.849548 358.618530,370.871399 
	C360.545135,373.025665 362.169006,375.066040 363.635529,377.213898 
	C364.344421,378.252167 364.757629,379.492310 365.304718,380.641022 
	C363.845062,380.767670 361.339508,381.426727 361.090302,380.937195 
	C358.986481,376.804474 355.609955,375.715973 351.328857,375.544373 
	C350.508545,375.511505 349.784058,373.088776 349.006378,371.366730 
z"/>
<path fill="#3B3B80" opacity="1.000000" stroke="none" 
	d="
M378.461334,379.201660 
	C379.372345,378.332306 380.330261,377.222961 380.956665,377.386078 
	C382.873505,377.885468 384.662933,378.873810 386.501923,379.671967 
	C385.901520,380.719055 385.368500,382.597443 384.687622,382.652618 
	C382.863342,382.800568 380.934814,382.300629 379.142151,381.750336 
	C378.696503,381.613556 378.608826,380.310547 378.461334,379.201660 
z"/>
<path fill="#3B3B80" opacity="1.000000" stroke="none" 
	d="
M716.076111,377.388977 
	C718.751953,377.756897 721.507812,378.464630 724.646118,379.062866 
	C726.908142,380.110382 728.787598,381.267456 730.886658,382.690857 
	C725.515747,382.950287 719.685913,383.627899 716.076111,377.388977 
z"/>
<path fill="#3B3B80" opacity="1.000000" stroke="none" 
	d="
M488.541260,600.798828 
	C488.170135,597.624023 488.123810,594.274902 488.149841,590.476074 
	C491.178284,593.392517 490.416168,596.984558 488.541260,600.798828 
z"/>
<path fill="#3C3A7E" opacity="1.000000" stroke="none" 
	d="
M474.658447,387.496063 
	C476.346985,387.330719 477.878113,387.479187 479.409271,387.627655 
	C479.125427,388.304443 478.841583,388.981232 478.557770,389.658051 
	C477.205536,389.041992 475.853302,388.425934 474.658447,387.496063 
z"/>
<path fill="#3B3B80" opacity="1.000000" stroke="none" 
	d="
M289.228058,379.154236 
	C290.423431,378.344330 291.868378,377.733673 293.658264,377.145599 
	C292.494690,377.896606 290.986145,378.625061 289.228058,379.154236 
z"/>
<path fill="#3B3B80" opacity="1.000000" stroke="none" 
	d="
M278.122864,383.590851 
	C278.312042,383.080658 278.622192,382.820831 278.949310,382.257904 
	C279.706055,381.948181 280.445801,381.941589 281.559906,381.906006 
	C280.704132,382.531769 279.473969,383.186523 278.122864,383.590851 
z"/>
<path fill="#3B3B80" opacity="1.000000" stroke="none" 
	d="
M315.875610,663.519043 
	C314.808746,663.748474 313.615295,663.690674 312.193359,663.351562 
	C313.226257,663.124146 314.487671,663.177979 315.875610,663.519043 
z"/>
<path fill="#3B3B80" opacity="1.000000" stroke="none" 
	d="
M316.213867,372.178162 
	C316.787476,371.728271 317.577850,371.459961 318.686890,371.241455 
	C318.147247,371.647400 317.288940,372.003571 316.213867,372.178162 
z"/>
<path fill="#3B3B80" opacity="1.000000" stroke="none" 
	d="
M310.281708,372.134277 
	C311.394165,371.962219 312.768127,372.000885 314.548889,372.093811 
	C313.484894,372.213715 312.014038,372.279358 310.281708,372.134277 
z"/>
<path fill="#3B3B80" opacity="1.000000" stroke="none" 
	d="
M282.971130,403.097229 
	C283.029175,403.618134 282.809540,403.842865 282.220093,403.966797 
	C281.871460,403.596985 281.766541,403.204803 281.661621,402.812622 
	C282.047577,402.849823 282.433563,402.887024 282.971130,403.097229 
z"/>
<path fill="#3B3B80" opacity="1.000000" stroke="none" 
	d="
M487.913788,392.605957 
	C487.397125,392.434143 486.770966,391.961700 485.917786,391.293823 
	C486.395264,391.500671 487.099792,391.902985 487.913788,392.605957 
z"/>
<path fill="#3B3B80" opacity="1.000000" stroke="none" 
	d="
M295.973572,376.861664 
	C296.215942,376.605560 296.776276,376.330231 297.659668,376.053223 
	C297.419006,376.315186 296.855286,376.578796 295.973572,376.861664 
z"/>
<path fill="#3B3B80" opacity="1.000000" stroke="none" 
	d="
M292.906982,399.137329 
	C293.026825,399.378754 292.832916,399.633179 292.277893,399.806335 
	C292.229187,399.587982 292.454651,399.396393 292.906982,399.137329 
z"/>
<path fill="#3B3B80" opacity="1.000000" stroke="none" 
	d="
M732.167847,383.323761 
	C732.388916,383.104156 732.677429,383.221008 732.934021,383.756836 
	C732.729492,383.854980 732.507202,383.683136 732.167847,383.323761 
z"/>
<path fill="#3B3B80" opacity="1.000000" stroke="none" 
	d="
M282.089417,381.863464 
	C281.974457,381.628265 282.170380,381.383911 282.720581,381.214569 
	C282.763428,381.419189 282.538544,381.607422 282.089417,381.863464 
z"/>
<path fill="#2B8AF2" opacity="1.000000" stroke="none" 
	d="
M483.003448,587.957825 
	C486.267151,592.398621 486.075500,597.510315 486.029236,602.664368 
	C485.927704,613.973083 485.860901,625.285828 486.068665,636.591614 
	C486.144592,640.722656 484.718842,642.074463 480.593872,642.063416 
	C438.515717,641.950439 396.437073,641.955994 354.358704,642.019348 
	C344.781372,642.033752 335.204559,642.398499 325.282288,642.844238 
	C324.508179,643.100525 324.079285,643.114502 323.046143,642.841797 
	C316.604889,641.721375 310.767883,640.887634 304.930878,640.053833 
	C304.930878,640.053833 305.001709,640.037659 304.898865,639.761108 
	C303.819458,639.407349 302.842896,639.330261 301.866333,639.253052 
	C301.449432,639.171143 301.032532,639.089233 300.213562,638.575806 
	C296.112030,636.802795 292.412567,635.461243 288.713135,634.119629 
	C288.713135,634.119629 288.339111,634.077148 288.038818,633.681641 
	C286.496216,632.856934 285.253906,632.427795 284.011566,631.998657 
	C283.827637,631.968018 283.643677,631.937378 283.047119,631.677368 
	C282.421478,631.266235 282.184326,631.125000 281.923096,631.024231 
	C281.628510,630.956177 281.373810,630.815796 280.946167,630.065674 
	C279.456909,629.054321 278.180450,628.580383 276.903992,628.106445 
	C276.904022,628.106445 276.949371,628.136536 276.883545,627.783447 
	C272.420074,621.799011 267.008331,617.680542 259.901398,616.091003 
	C259.901398,616.091003 260.000061,616.067200 259.913025,615.739502 
	C258.033997,613.343384 256.319336,611.200439 254.424179,609.231262 
	C253.055664,607.809265 251.164810,606.832336 249.993683,605.287842 
	C244.320099,597.805420 238.403610,590.452271 233.450089,582.506592 
	C231.549850,579.458618 231.477890,574.926208 231.716202,571.142273 
	C231.772720,570.245117 236.414276,569.570435 238.979172,568.921509 
	C240.580154,568.516602 242.303284,567.964050 243.855484,568.210144 
	C244.960236,568.385254 246.219696,569.597778 246.785706,570.675293 
	C247.589828,572.206177 247.828064,575.502136 248.294785,575.499695 
	C250.952621,575.485840 254.356781,575.554993 256.087189,574.007812 
	C258.732910,571.642212 261.238403,571.479065 264.565765,571.970215 
	C265.645355,572.406494 266.482513,572.643188 267.141418,573.124146 
	C282.194580,584.110901 299.111450,587.807495 317.550049,587.195312 
	C331.328949,586.737793 345.153168,587.644775 359.306030,588.177734 
	C361.619598,588.606750 363.583954,588.968262 365.549072,588.972107 
	C386.987030,589.013794 408.425873,588.917786 429.862030,589.120117 
	C432.141083,589.141602 434.382568,590.880554 436.679474,591.718445 
	C442.193878,593.729980 447.709229,595.745361 453.283997,597.577332 
	C454.049530,597.828979 455.156403,597.047119 456.103821,596.739380 
	C459.528595,595.627014 462.911102,594.354065 466.388031,593.440369 
	C470.569214,592.341431 474.861237,591.660339 479.031158,590.525818 
	C479.858765,590.300659 480.351105,588.843140 481.332153,587.938416 
	C482.112000,587.934570 482.557709,587.946167 483.003448,587.957825 
z"/>
<path fill="#2F85EA" opacity="1.000000" stroke="none" 
	d="
M264.240295,571.884338 
	C261.238403,571.479065 258.732910,571.642212 256.087189,574.007812 
	C254.356781,575.554993 250.952621,575.485840 248.294785,575.499695 
	C247.828064,575.502136 247.589828,572.206177 246.785706,570.675293 
	C246.219696,569.597778 244.960236,568.385254 243.855484,568.210144 
	C242.303284,567.964050 240.580154,568.516602 238.979172,568.921509 
	C236.414276,569.570435 231.772720,570.245117 231.716202,571.142273 
	C231.477890,574.926208 231.549850,579.458618 233.450089,582.506592 
	C238.403610,590.452271 244.320099,597.805420 249.993683,605.287842 
	C251.164810,606.832336 253.055664,607.809265 254.424179,609.231262 
	C256.319336,611.200439 258.033997,613.343384 259.870605,615.767578 
	C253.440796,610.019775 246.222549,604.526428 240.624924,597.703613 
	C220.076416,572.657471 212.311325,543.481445 213.239944,511.332703 
	C214.039917,483.638214 223.195282,459.216492 240.358368,437.946381 
	C246.739197,430.038696 255.270416,423.866211 263.141083,416.883972 
	C257.747559,428.073761 251.984070,439.257202 246.373260,450.516754 
	C245.514877,452.239319 245.361740,454.313324 244.797775,456.628723 
	C242.851028,462.436127 240.988907,467.839600 238.978790,474.008942 
	C235.011871,489.460205 235.545624,504.421570 236.221466,519.356689 
	C236.391815,523.120972 237.325897,526.924011 238.406860,530.561279 
	C243.201569,546.694397 251.558914,560.654907 264.240295,571.884338 
z"/>
<path fill="#2F85EA" opacity="1.000000" stroke="none" 
	d="
M260.047882,616.393555 
	C267.008331,617.680542 272.420074,621.799011 276.855591,627.782959 
	C271.327118,624.322388 265.760742,620.509277 260.047882,616.393555 
z"/>
<path fill="#2F85EA" opacity="1.000000" stroke="none" 
	d="
M305.210083,640.306274 
	C310.767883,640.887634 316.604889,641.721375 322.728027,642.787781 
	C317.172516,642.199829 311.330933,641.379211 305.210083,640.306274 
z"/>
<path fill="#2F85EA" opacity="1.000000" stroke="none" 
	d="
M288.964844,634.377686 
	C292.412567,635.461243 296.112030,636.802795 299.910889,638.474976 
	C296.412384,637.415588 292.814484,636.025635 288.964844,634.377686 
z"/>
<path fill="#2F85EA" opacity="1.000000" stroke="none" 
	d="
M277.077515,628.395142 
	C278.180450,628.580383 279.456909,629.054321 280.825012,629.881714 
	C279.694794,629.718018 278.472900,629.200867 277.077515,628.395142 
z"/>
<path fill="#2F85EA" opacity="1.000000" stroke="none" 
	d="
M284.214508,632.251282 
	C285.253906,632.427795 286.496216,632.856934 287.869873,633.598755 
	C286.806610,633.442261 285.612030,632.973083 284.214508,632.251282 
z"/>
<path fill="#2F85EA" opacity="1.000000" stroke="none" 
	d="
M302.119873,639.463501 
	C302.842896,639.330261 303.819458,639.407349 304.874298,639.787842 
	C304.092865,639.952087 303.233154,639.812988 302.119873,639.463501 
z"/>
<path fill="#2F85EA" opacity="1.000000" stroke="none" 
	d="
M282.035339,631.213501 
	C282.184326,631.125000 282.421478,631.266235 282.780334,631.593384 
	C282.608063,631.762573 282.348572,631.650513 282.035339,631.213501 
z"/>
<path fill="#3B397B" opacity="1.000000" stroke="none" 
	d="
M355.620789,370.878235 
	C354.842651,371.085297 353.663391,371.225403 352.232239,371.159698 
	C353.060150,370.906342 354.139893,370.858826 355.620789,370.878235 
z"/>
<path fill="#3B3B80" opacity="1.000000" stroke="none" 
	d="
M819.042114,521.539551 
	C815.621155,521.167908 813.053040,521.386902 811.357422,525.264221 
	C810.775574,526.594604 807.518433,527.749451 805.905212,527.336548 
	C804.476196,526.970825 802.848511,524.403137 802.659241,522.660889 
	C801.531067,512.273132 800.904968,501.831787 799.859253,491.433685 
	C799.547058,488.329803 798.427979,485.307098 797.678528,482.247192 
	C798.220276,481.816864 798.762024,481.386566 799.303772,480.956238 
	C801.353516,482.200958 803.827515,483.064453 805.362122,484.772125 
	C808.294312,488.034821 811.329224,490.511688 816.393066,489.994995 
	C817.566040,500.354919 818.338196,510.715790 819.042114,521.539551 
z"/>
<path fill="#3B3B80" opacity="1.000000" stroke="none" 
	d="
M815.768555,484.688110 
	C815.608704,484.670197 815.426453,484.391235 815.164429,483.872162 
	C815.305176,483.897034 815.525696,484.162018 815.768555,484.688110 
z"/>
<path fill="#3B3B80" opacity="1.000000" stroke="none" 
	d="
M813.726318,476.705292 
	C813.537781,476.727509 813.362854,476.488953 813.139648,476.016968 
	C813.345581,475.957306 813.561768,476.177643 813.726318,476.705292 
z"/>
<path fill="#3B3B80" opacity="1.000000" stroke="none" 
	d="
M811.769592,470.691772 
	C811.547668,470.714813 811.372375,470.454895 811.158142,469.944336 
	C811.309814,469.960175 811.542175,470.198547 811.769592,470.691772 
z"/>
<path fill="#3B397B" opacity="1.000000" stroke="none" 
	d="
M726.902649,402.552612 
	C729.293945,402.083221 732.199219,401.220215 732.974976,405.512146 
	C731.048096,404.862366 729.085571,403.834656 726.902649,402.552612 
z"/>
<path fill="#3B397B" opacity="1.000000" stroke="none" 
	d="
M662.536255,644.173096 
	C661.113403,645.162903 659.253906,646.799927 657.335266,646.872498 
	C649.399536,647.172791 641.445923,647.000244 633.498840,646.999756 
	C627.735779,646.999451 621.962341,647.196716 616.214783,646.897522 
	C613.884766,646.776184 611.611145,645.570557 609.157227,644.539062 
	C626.692444,644.180176 644.382446,644.140564 662.536255,644.173096 
z"/>
<path fill="#3B397B" opacity="1.000000" stroke="none" 
	d="
M684.553101,644.009888 
	C681.756470,648.516418 680.611084,648.630615 677.087036,644.513550 
	C679.370239,644.121338 681.740295,644.045593 684.553101,644.009888 
z"/>
<path fill="#3B397B" opacity="1.000000" stroke="none" 
	d="
M591.560059,644.142456 
	C589.757812,648.546570 587.070374,647.411560 584.134277,644.528015 
	C586.375061,644.165894 588.747681,644.118896 591.560059,644.142456 
z"/>
<path fill="#43BFF9" opacity="1.000000" stroke="none" 
	d="
M264.565765,571.970215 
	C251.558914,560.654907 243.201569,546.694397 238.406860,530.561279 
	C237.325897,526.924011 236.391815,523.120972 236.221466,519.356689 
	C235.545624,504.421570 235.011871,489.460205 238.924591,474.388489 
	C242.795013,476.340942 246.538284,477.989410 251.044357,475.422852 
	C251.851501,474.963135 254.253708,476.026428 255.049362,477.057770 
	C257.687622,480.477325 260.094177,482.007416 264.115967,478.751404 
	C266.885834,476.508942 270.216156,475.576080 272.306366,480.057098 
	C272.508301,480.489929 272.858765,481.045349 273.255493,481.166443 
	C278.642670,482.811432 283.985687,484.688477 289.476562,485.873993 
	C292.850647,486.602539 294.279846,484.289642 293.902954,480.985840 
	C293.556305,477.947235 292.214325,477.135590 289.117493,478.155121 
	C287.843872,478.574432 285.982300,477.207916 284.388153,476.653748 
	C285.205902,475.199066 285.714264,473.378418 286.908386,472.369080 
	C289.110565,470.507721 291.715271,469.122711 294.919434,467.040710 
	C295.236359,474.845306 302.744263,471.881042 306.272217,475.225800 
	C306.606842,475.543060 308.157928,475.268127 308.468262,474.810120 
	C310.797485,471.372498 317.354034,470.211700 314.479889,463.810608 
	C314.265137,463.332397 315.737488,461.512146 316.707062,461.205322 
	C318.894012,460.513214 321.340515,459.814667 323.531494,460.137177 
	C327.836700,460.770905 331.659821,460.513062 335.424194,458.020264 
	C336.495270,457.311005 338.564514,458.083099 340.172729,458.215637 
	C346.764984,458.758942 353.664307,461.526123 359.245850,455.180206 
	C359.975647,454.350464 361.697113,454.083557 362.960907,454.079529 
	C380.786926,454.022736 398.613220,454.053314 416.439423,454.088196 
	C416.892303,454.089081 417.344604,454.379333 418.322693,454.714874 
	C417.255585,455.703552 416.425049,456.473053 415.594482,457.242554 
	C415.682129,457.707397 415.769745,458.172241 415.857361,458.637085 
	C419.276154,458.388641 422.691284,458.038300 426.114563,457.914001 
	C432.349487,457.687592 438.589355,457.598938 444.826935,457.443085 
	C445.794861,457.418915 446.794983,457.482269 447.720917,457.259125 
	C449.145782,456.915802 450.519379,456.359497 451.914703,455.893524 
	C451.747955,457.439880 451.062805,459.170898 451.532867,460.490387 
	C452.286194,462.604889 453.561737,464.688049 455.133179,466.271881 
	C455.676941,466.819946 458.269989,466.274689 458.985565,465.430664 
	C459.617798,464.684906 459.481964,462.269867 458.748383,461.559631 
	C455.493683,458.408691 454.504730,456.597534 458.834747,452.706757 
	C462.492615,449.419922 463.029144,443.481049 461.464630,438.163513 
	C461.062103,436.795410 460.617798,435.439575 460.167206,433.996643 
	C464.632538,433.388306 467.434540,436.103943 467.639679,441.061096 
	C467.892456,447.169159 468.120209,453.294952 467.931946,459.399902 
	C467.744568,465.476379 466.737030,471.327972 461.020630,475.204651 
	C460.245728,475.730133 460.136078,479.095490 460.624603,479.340698 
	C466.182098,482.130463 465.611237,488.643890 469.034637,492.628143 
	C470.324890,494.129791 471.615784,496.460907 473.184753,496.718475 
	C476.349426,497.238068 477.036774,499.091766 477.977692,501.572174 
	C481.142670,509.915436 480.333496,518.500549 479.938660,527.074585 
	C479.894348,528.036987 479.766663,529.302307 479.158386,529.885498 
	C471.442017,537.283875 475.191528,546.362427 475.940674,554.691833 
	C476.395416,559.747803 477.020294,563.517944 471.065979,565.213745 
	C470.154480,565.473267 469.138153,567.539124 469.259888,568.650146 
	C469.385345,569.795837 470.631104,571.297058 471.753967,571.769104 
	C475.764557,573.455017 480.108490,574.428284 483.939148,576.416992 
	C485.221741,577.082825 485.554321,579.940735 485.933319,581.872803 
	C486.247986,583.476746 485.993530,585.192383 485.986755,587.290344 
	C485.238251,587.790039 484.494171,587.857971 483.376770,587.941833 
	C482.557709,587.946167 482.112000,587.934570 480.863770,587.925354 
	C439.693268,587.933167 399.325226,587.938660 358.957184,587.944153 
	C345.153168,587.644775 331.328949,586.737793 317.550049,587.195312 
	C299.111450,587.807495 282.194580,584.110901 267.141418,573.124146 
	C266.482513,572.643188 265.645355,572.406494 264.565765,571.970215 
z"/>
<path fill="#F7FEFF" opacity="1.000000" stroke="none" 
	d="
M314.244812,452.864197 
	C311.536560,452.459290 309.118134,452.459808 307.087860,451.572296 
	C302.455322,449.547333 300.456238,445.730865 301.081940,440.676941 
	C301.558380,436.828613 305.899902,432.707581 310.377655,432.079163 
	C312.834015,431.734406 315.359314,431.825745 317.853882,431.816223 
	C360.643433,431.652618 403.433105,431.426300 446.222351,431.494263 
	C449.783661,431.499908 453.867279,432.763641 456.764832,434.791107 
	C460.184814,437.184235 461.097046,441.539337 459.551208,445.665497 
	C457.962769,449.905396 454.475098,452.092133 450.078766,452.784790 
	C448.939697,452.964294 447.751984,452.845886 446.586609,452.846100 
	C402.628021,452.854156 358.669434,452.860138 314.244812,452.864197 
z"/>
<path fill="#43BFF9" opacity="1.000000" stroke="none" 
	d="
M393.000000,429.995056 
	C371.846741,429.473328 351.031982,431.736084 330.613251,427.170135 
	C330.581635,426.669800 330.549988,426.169464 330.518372,425.669128 
	C332.014435,425.415131 333.631195,425.433868 334.976166,424.838501 
	C336.684204,424.082458 339.210754,423.105621 339.574921,421.741028 
	C341.174683,415.746826 346.143707,415.239685 350.549683,415.157257 
	C368.185669,414.827301 385.834717,414.824005 403.472137,415.114532 
	C410.899963,415.236877 418.442078,415.779022 425.672699,417.335815 
	C429.147736,418.084045 432.107910,421.528900 435.049164,424.046967 
	C435.398895,424.346344 434.434784,427.386169 433.601410,427.651093 
	C430.154114,428.746857 426.538391,429.786621 422.956207,429.893127 
	C413.145142,430.184875 403.319733,429.994537 393.000000,429.995056 
z"/>
<path fill="#F7FEFF" opacity="1.000000" stroke="none" 
	d="
M286.965851,446.839691 
	C291.980591,454.361328 291.424561,458.344360 284.889618,463.842255 
	C283.621765,464.908875 282.332031,465.954010 281.002808,466.942322 
	C276.169525,470.536041 271.267853,470.526978 268.155273,466.953552 
	C264.550049,462.814484 264.957764,456.176941 269.192505,452.301453 
	C271.385468,450.294556 273.699066,448.392944 276.114502,446.661865 
	C279.548431,444.200867 283.136566,443.964203 286.965851,446.839691 
z"/>
<path fill="#43BFF9" opacity="1.000000" stroke="none" 
	d="
M280.236389,475.618011 
	C278.379883,478.216125 276.401123,479.534363 273.370636,477.252594 
	C275.155060,473.898468 277.244629,472.903809 280.236389,475.618011 
z"/>
<path fill="#3B397B" opacity="1.000000" stroke="none" 
	d="
M428.934570,383.657867 
	C429.596497,383.893738 430.071716,384.299408 430.546936,384.705078 
	C430.341492,384.905701 430.136017,385.106293 429.930542,385.306885 
	C429.536316,384.813782 429.142059,384.320740 428.934570,383.657867 
z"/>
<path fill="#2F85EA" opacity="1.000000" stroke="none" 
	d="
M359.306030,588.177734 
	C399.325226,587.938660 439.693268,587.933167 480.529663,587.940796 
	C480.351105,588.843140 479.858765,590.300659 479.031158,590.525818 
	C474.861237,591.660339 470.569214,592.341431 466.388031,593.440369 
	C462.911102,594.354065 459.528595,595.627014 456.103821,596.739380 
	C455.156403,597.047119 454.049530,597.828979 453.283997,597.577332 
	C447.709229,595.745361 442.193878,593.729980 436.679474,591.718445 
	C434.382568,590.880554 432.141083,589.141602 429.862030,589.120117 
	C408.425873,588.917786 386.987030,589.013794 365.549072,588.972107 
	C363.583954,588.968262 361.619598,588.606750 359.306030,588.177734 
z"/>
</svg>