<?xml version="1.0" encoding="UTF-8"?>
<svg enable-background="new 0 0 1024 1024" version="1.1" viewBox="0 0 1024 1024" xml:space="preserve" xmlns="http://www.w3.org/2000/svg">

<path d="m698.71 372.88c3.1771 0.37183 6.3542 0.74365 10.134 1.4695 2.7871 1.1366 4.9716 1.9192 7.236 3.0415 3.6098 6.2389 9.4396 5.5613 15.266 5.5984 0.23541 0.030273 0.68664 0.17776 0.82617 0.33633 0.33936 0.35938 0.56164 0.53122 1.0216 0.92288 1.4127 0.77466 2.6102 1.3005 3.887 2.1619 0.28821 0.78351 0.53717 1.2176 0.69958 1.682 0.80951 2.3147 1.5963 4.6374 2.3911 6.9572-2.6076 0.16562-5.2159 0.44943-7.8223 0.43246-0.90643-0.00589-1.7971-0.78253-2.7138-1.1616-4.5458-1.8796-9.0979-3.744-13.637-5.6095-0.99359 4.2601 0.41498 6.6259 5.9323 7.8998 3.4227 0.79025 4.8763 2.3477 4.3795 5.5971-13.604-5.8628-27.174-10.556-41.84-10.551-56.641 0.021423-113.28 0.15799-169.92 0.25119-1.755 0.002899-3.51 3.96e-4 -5.5042 3.96e-4 0 2.3791 6.1e-5 4.0271 0 5.6751-0.002228 49.145-0.019074 98.29 0.002533 147.44 0.006317 14.323 0.1225 28.646 0.10553 43.43-0.082794 18.723-0.082794 36.985-0.082794 55.797 21.017 0 41.474 0 61.745 0.32239-0.90851 0.67206-1.6074 1.2562-2.3597 1.3358-10.182 1.0778-20.378 2.0334-30.553 3.1763-1.2802 0.14374-3.3516 0.98492-3.5413 1.8394-1.2426 5.598-4.6912 9.2086-9.7476 12.041 1.7978 0.70465 3.4661 1.0073 5.136 1.0156 9.4942 0.04718 18.989-0.031128 28.483 0.071167 1.9291 0.020752 3.852 0.6322 5.3127 1.0389-67.875 0.0802-135.28 0.17462-202.69 0.042114-14.948-0.029358-29.895-0.8595-44.969-1.6082-1.3879-0.34106-2.6494-0.3949-4.2379-0.49066-0.76044-0.11224-1.1937-0.18256-1.7161-0.5788-2.572-2.021-4.9147-4.8331-7.5686-5.1663-4.7377-0.59485-6.7524-2.6913-7.4652-7.0961-0.18362-1.1347-1.4662-2.7202-2.5164-2.9745-4.02-0.97418-8.1295-1.6858-12.245-2.1347-7.3892-0.80609-8.7511-3.7787-4.0644-11.518 0.86337 2.0623 1.5287 3.5319 2.0988 5.0375 1.3011 3.436 3.263 5.4779 7.432 4.9474 4.4683-0.56854 9.2167-1.4783 13.48-0.5578 7.5633 1.6332 14.751 4.9952 22.781 4.2346 5.1025-0.48328 10.219-1.1537 15.33-1.1654 41.266-0.094666 82.532-0.094056 123.8 0.006775 4.4481 0.010925 8.9308 1.4177 13.331 1.1355 4.2972-0.27557 8.4185-1.4586 12.598 0.77771 0.83569 0.44708 2.468-0.59473 3.733-0.94995-0.93082-1.027-1.8616-2.054-2.7583-3.5444 0.13306-14.479 0.23199-28.494 0.65573-42.684 1.8749-3.8143 2.637-7.4063-0.39935-11.121-0.18155-0.8147-0.28281-1.2805-0.29822-2.0668 0.17645-0.75348 0.26706-1.1863 0.68051-1.7897 1.0301-5.0087 2.2858-9.842 2.3274-14.686 0.079957-9.3112-0.74283-18.627-0.80655-27.943-0.14102-20.61-0.16974-41.223 0.037903-61.832 0.057434-5.6998 1.1371-11.387 1.6722-17.087 0.0896-0.95425-0.17169-1.9508-0.33288-2.9175-0.45645-2.7371-1.3198-5.464-1.356-8.2037-0.15363-11.633 0.008331-23.271-0.14472-34.904-0.023346-1.774-1.0963-3.5341-1.7889-5.2869-0.10501 0.013794-0.29572 0.10614-0.37036-0.2999 0.037201-6.8553 0.14905-13.304 0.15143-20.054-0.814-0.70297-1.5185-1.1053-2.6312-1.3931-47.82 0.27038-95.232 0.64041-142.64 0.46799-16.98-0.061737-33.571 1.1962-49.733 7.4565-0.45233 0.25906-0.6778 0.45065-1.2261 0.79172-3.0869 1.1911-5.8225 2.2661-8.7097 3.1682-0.53757-0.2102-0.92355-0.24741-1.3095-0.28461 0.10492 0.39218 0.20984 0.78436 0.10712 1.4431-2.6258 1.4753-5.044 2.6842-7.8875 3.8861-2.2215 0.26907-4.1887 1.14-5.7748 0.6843-2.5109-0.72137-5.4611-1.817-6.8878-3.7444-0.9606-1.2978 0.38406-4.3019 0.79861-7.266 2.1457 1.2942 3.2539 2.496 4.3346 2.4718 1.1992-0.026916 3.4778-1.4756 3.3927-1.7863-1.2703-4.6349 1.0645-8.5607 2.1797-12.713 0.46878-0.29452 0.93759-0.58902 1.8952-0.75812 1.0308-0.32391 1.5728-0.77322 2.1148-1.2225 0.10519-0.29239 0.28992-0.52029 1.036-0.65533 0.66507 0.081512 0.84827 0.13461 1.1524 0.43814 1.3511-0.40433 2.5813-1.0591 3.8246-1.6808 0.013183 0.033051-0.054779 0.054016 0.14197-0.046631 0.44913-0.25604 0.67401-0.44428 1.1747-0.80926 1.1137-0.8165 1.9241-1.4892 2.7344-2.1618 0 0-0.012787 0.075775 0.32037 0.18985 1.1086 0.03363 1.8841-0.046814 2.9091 0.071991 1.7581-0.52918 3.2666-1.2576 5.0461-2.0589 0.64108-0.12003 1.0113-0.16724 1.6994-0.2337 0.88171-0.28284 1.4454-0.54645 2.2844-1.0337 1.4234-0.43625 2.5715-0.64883 3.9543-0.67276 1.0626-0.30475 1.8905-0.79816 2.7184-1.2915 0-3e-5 0.040588 0.075684 0.19995-0.023193 0.41602-0.27048 0.64157-0.4762 0.83603-0.716 1.1096-0.28677 2.2191-0.57355 3.6511-1.0244 0.32245-0.16412 0.40247-0.17645 0.66397 0.034271 1.7323 0.14508 3.2032 0.079438 4.9307-0.049286 0.43268-0.071502 0.6087-0.079925 1.0015 0.093171 1.0751-0.17459 1.9334-0.53076 3.2563-0.95544 10.152-0.13162 19.84-0.19473 29.536 0.14401 0.77768 1.722 1.5022 4.1448 2.3225 4.1776 4.2811 0.1716 7.6576 1.2601 9.7614 5.3928 0.24921 0.48953 2.7548-0.16952 4.2144-0.29617-0.54709-1.1487-0.9603-2.3889-1.6692-3.4271-1.4665-2.1479-3.0904-4.1882-4.1842-6.3429 27.245 0.057037 54.025 0.18405 80.791 0.70804 0.67892 1.7823 1.3707 3.1677 2.8079 6.0459-11.244 0-21.458 0.7096-31.523-0.20566-9.4809-0.86215-9.4133-1.6149-10.761 7.4887-0.73312 4.9507 0.43872 5.8646 5.2995 4.5332 1.981-0.54263 4.1323-0.80838 6.1768-0.69061 2.7705 0.15955 5.5075 1.1442 8.2682 1.1877 9.8026 0.15454 19.648-0.47482 29.401 0.24057 6.9054 0.5065 12.435-1.5817 17.504-5.6193 1.2332-0.98236 2.4316-3.0901 2.2316-4.4763-0.18808-1.3038-2.1267-3.1383-3.4997-3.3388-3.9013-0.56964-7.9691-0.91766-11.855-0.42969-4.4444 0.55804-6.3127-0.61002-5.1784-5.2845 1.0704-0.18182 1.7337-0.26981 2.397-0.26999 76.182-0.023254 152.36-0.090637 228.55 0.037201 6.2178 0.010437 12.433 1.3556 18.65 2.0805m-360.13 17.12h20.475c-5.722-5.0725-27.419-5.3996-31.105-0.57175 3.6827 0.2179 6.6717 0.39471 10.63 0.57175m39.779-10.454c0.25223 0.76697 0.3399 2.07 0.78555 2.2068 1.7927 0.55029 3.7212 1.0502 5.5455 0.90228 0.68088-0.055175 1.2139-1.9336 1.8143-2.9807-1.839-0.79816-3.6284-1.7865-5.5453-2.2859-0.6264-0.16312-1.5843 0.94623-2.6001 2.1575m96.144 8.2663c1.3522 0.61606 2.7045 1.2321 4.0567 1.8482 0.28381-0.67682 0.56766-1.3536 0.8515-2.0304-1.5312-0.14847-3.0623-0.29694-4.9082 0.18222z" fill="#3B397B"/>
<path d="m487.85 643.95c0.93079 1.027 1.8616 2.054 2.7924 3.081-1.265 0.35522-2.8973 1.397-3.733 0.94995-4.1796-2.2363-8.301-1.0533-12.598-0.77771-4.3999 0.28223-8.8826-1.1246-13.331-1.1355-41.266-0.10083-82.532-0.10144-123.8-0.006775-5.1112 0.011718-10.227 0.68213-15.33 1.1654-8.0305 0.76062-15.218-2.6014-22.781-4.2346-4.2631-0.92053-9.0115-0.010742-13.48 0.5578-4.169 0.53046-6.1309-1.5114-7.432-4.9474-0.5701-1.5056-1.2355-2.9753-2.0988-5.0375-4.6868 7.7389-3.3248 10.711 4.0644 11.518 4.1155 0.44891 8.225 1.1605 12.245 2.1347 1.0501 0.2544 2.3327 1.8398 2.5164 2.9745 0.71286 4.4048 2.7275 6.5013 7.4652 7.0961 2.6539 0.33319 4.9966 3.1453 7.1755 5.2175-2.4035 0.094361-4.5029-0.18835-6.6024-0.47113-6.1447-2.0213-12.29-4.0426-18.977-6.4703-2.3741-1.0969-4.206-1.7874-6.0379-2.4778 0 0 0.062072-0.030945 0.020233-0.36566-0.703-0.43604-1.3642-0.53741-2.0254-0.63886 0 0 0.06427-0.026245 0.03833-0.35565-0.69669-0.44208-1.3675-0.55475-2.0383-0.66742 0 0 0.069763-0.014099 0.034546-0.34991-1.3661-0.77264-2.6969-1.2096-4.0276-1.6465 0 0 0.066437-0.019775 0.023773-0.36859-1.3669-0.75049-2.6912-1.1522-4.0155-1.554 0 0 0.086274-0.080322 0.14108-0.41107-1.0153-0.7774-2.0854-1.224-3.1554-1.6706 0-6.1e-5 0.068481-0.014466 0.05133-0.33484-1.0275-0.77319-2.0379-1.226-3.0483-1.6788 3.1e-5 0 0.073548-0.013062 0.027344-0.32104-3.0409-2.0947-6.0356-3.8815-9.0303-5.6682 0 0 0.072265-0.015015 0.02185-0.34625-0.70573-0.43103-1.361-0.53082-2.0163-0.63062 0 0 0.078614-0.066223 0.21036-0.35699-0.98666-1.0926-2.1051-1.8945-3.2235-2.6964 1.5e-5 0 0.091614-0.009339 0.019287-0.33649-0.7158-0.41626-1.3593-0.50531-2.0027-0.59442 0 0 0.086533-0.081665 0.23183-0.36731-2.3147-2.0716-4.7746-3.8575-7.2346-5.6434 0 0 0.083847-0.076111 0.25642-0.35724-1.6388-1.7399-3.4502-3.1985-5.2616-4.6572 0 0 0.064942-0.031677 0.14392-0.4101-0.78935-0.80005-1.6577-1.2217-2.526-1.6434 0 0-0.31879 0.007935-0.31879 0.007935s-0.22551-0.22546-0.017792-0.74732c-0.62579-1.905-1.3019-3.4173-2.3157-4.6524-27.826-33.899-37.646-73.172-33.489-116.1 2.3266-24.028 11.318-45.972 25.226-65.813 0.73427-1.0475 0.87172-2.5133 1.287-3.7844 0 0 0.096863 0.07251 0.37239 0.23904 2.427-2.6407 4.5784-5.448 6.7298-8.2553-1.5e-5 0-0.004165 0.092346 0.29608 0.060272 1.7437-2.0402 3.1872-4.0484 4.6306-6.0566 0 0 0.064652 0.084991 0.34184 0.25333 2.0428-1.6859 3.8085-3.5401 5.5742-5.3943 0 0 0.001159 0.094086 0.30608 0.081421 4.9424-3.4975 9.6076-6.9466 14.189-10.504 0.72272-0.56125 1.0647-1.6127 1.5827-2.4375 0 0 0.06192 0.077454 0.37659 0.18793 0.48853-0.3045 0.66235-0.71951 0.83621-1.1345 0 0 0.1613-0.13367 0.59097 0.089691 1.0264-0.17517 1.6232-0.57373 2.2199-0.97235 4.4243-2.715 8.8485-5.4301 13.626-8.2171-0.76178 4.0798-3.0965 8.0056-1.8263 12.641 0.085113 0.31064-2.1935 1.7594-3.3927 1.7863-1.0807 0.024201-2.1889-1.1776-4.3346-2.4718-0.41455 2.9641-1.7592 5.9682-0.79861 7.266 1.4266 1.9274 4.3768 3.023 6.8878 3.7444 1.5861 0.45566 3.5533-0.41522 5.5715-0.40518-3.2577 3.0055-6.7373 5.725-10.537 8.463-7.8707 6.9822-16.402 13.155-22.783 21.062-17.163 21.27-26.318 45.692-27.118 73.386-0.92862 32.149 6.8365 61.325 27.385 86.371 5.5976 6.8228 12.816 12.316 19.333 18.392 0.042389-0.028015-0.056274-0.004212 0.09021 0.29834 5.7129 4.1157 11.279 7.9288 16.874 11.742 0.027954 5.5e-4 -0.017395-0.029541 0.1561 0.2591 1.3954 0.80579 2.6173 1.3229 3.9603 2.024 0.33597 0.39667 0.59067 0.53705 0.9975 0.79437 0.31323 0.43701 0.57272 0.54907 1.1576 0.60925 0.45074 0.11462 0.6347 0.14526 1.0216 0.42853 1.3975 0.7218 2.5921 1.191 3.9556 1.743 0.16898 0.082885 0.543 0.12537 0.79471 0.38342 3.8496 1.6479 7.4475 3.0379 11.348 4.5287 0.7196 0.18286 1.1365 0.26477 1.8069 0.55713 1.1133 0.34949 1.973 0.48859 2.8573 0.60089 0.024567-0.026733-0.046264-0.010559 0.23294 0.24182 6.1208 1.073 11.962 1.8936 18.122 2.7682 0.74701 0.040039 1.1759 0.026062 1.967 0.2132 1.8476 0.34522 3.3329 0.61444 4.8183 0.6153 52.578 0.029785 105.16 0.034546 157.73 0.042786z" fill="#3B3B80"/>
<path d="m698.76 372.48c-6.2692-0.3226-12.485-1.6677-18.703-1.6782-76.182-0.12784-152.36-0.060455-228.55-0.037201-0.6633 1.83e-4 -1.3266 0.088166-2.8 0.18625-3.3582 0.11264-5.9062 0.17413-8.4543 0.23563-26.78-0.12701-53.559-0.25403-81.172-0.38071-1.5759 0.048156-2.3189 0.095977-3.4631 0.076873-1.4809-0.019439-2.5606 0.028077-4.0103 0.005768-1.1176-0.019623-1.8654 0.030609-2.6132 0.080841-9.6876 0.063111-19.375 0.12622-29.846 0.20804-1.5736 0.28705-2.364 0.55536-3.1544 0.8237-0.176 0.008453-0.35202 0.016876-1.1915 0.034149-2.0375-0.029877-3.4114-0.068543-4.7854-0.10721 0 0-0.080017 0.01233-0.075867 0.052613 5.6401-0.9758 11.275-2.8703 16.912-2.8786 117.24-0.17096 234.47-0.17935 351.71 0.005219 6.7493 0.01062 13.496 1.9362 20.191 3.3728z" fill="#8B8EEB"/>
<path d="m303.09 662.38c1.9347-0.068481 4.0342 0.21423 6.5267 0.44574 0.82638 0.019104 1.2596 0.089417 2.2485 0.48297 1.7491 0.38098 2.9425 0.43878 4.136 0.49658 14.948 0.46143 29.894 1.2916 44.843 1.3209 67.41 0.13251 134.82 0.038086 203.14 0.031006 35.638 0.024841 70.369 0.1109 105.1 0.010071 7.4462-0.021668 14.902-0.56885 22.331-1.16 4.8918-0.38934 9.743-1.2913 14.625-1.9684 0.012451-0.0047 0.022339 0.020325 0.022339 0.020264-6.0891 1.3181-12.153 3.626-18.272 3.7845-28.062 0.72705-56.139 1.1087-84.212 1.147-89.975 0.12299-179.95 0.17493-269.92-0.15369-10.137-0.037049-20.264-2.6743-30.561-4.457z" fill="#8B8EEB"/>
<path d="m806.07 453.93c2.3098 4.4786 4.9244 8.8306 6.8499 13.469 2.25 5.4199 4.2715 10.997 5.6856 16.681 1.0532 4.2341 1.0245 8.7442 1.4035 13.138 0.70105 8.1251 2.0157 16.27 1.8354 24.379-0.1933 8.688-1.2873 17.448-2.9636 25.985-1.6422 8.3638-3.7125 16.83-7.06 24.622-3.618 8.4214-9.2828 15.938-13.42 24.168-5.3823 10.707-13.03 19.697-21.597 27.635-8.3687 7.7545-18.077 14.071-27.277 20.912-1.3445 0.99982-3.13 1.4067-5.0942 2.1023-0.38269 0.014344-0.39966 0.02295-0.38294-0.32672 1.8082-1.5368 3.5605-2.7883 5.3971-3.9008 16.133-9.7731 29.802-22.354 40.874-37.51 18.074-24.741 28.007-52.459 28.722-83.747-0.70392-10.824-1.4761-21.185-2.2198-31.916-0.32489-1.8049-0.6781-3.2399-1.0537-4.9359-0.24286-0.52609-0.46338-0.79108-0.61963-1.4332-0.42352-2.3568-0.91119-4.3365-1.4226-6.5496-0.16455-0.52765-0.38074-0.74799-0.68488-1.2577-0.43396-1.7425-0.85541-3.1218-1.2719-4.7559-0.22742-0.49322-0.45978-0.7316-0.71466-1.158-0.022583-0.18799-0.18652-0.52927-0.20972-0.89355-1.6153-5.1328-3.2075-9.9012-4.7993-14.683 1.84e-4 -0.012818 0.022828-0.025025 0.022828-0.025025z" fill="#8B8EEB"/>
<path d="m219.58 428.04c-0.09468 1.1558-0.23213 2.6216-0.9664 3.6691-13.908 19.84-22.9 41.785-25.226 65.813-4.1568 42.929 5.6627 82.202 33.489 116.1 1.0138 1.2351 1.6899 2.7474 2.3199 4.493-4.6428-5.0283-9.4615-10.155-13.435-15.87-6.4575-9.2859-11.916-19.165-14.846-30.245-2.2511-8.5137-4.7368-16.967-6.8736-25.509-1.4743-5.8936-2.8351-11.849-3.6734-17.857-0.6152-4.4092-0.28439-8.9484-0.40411-13.429-0.26682-9.9846 0.63632-19.724 3.8534-29.343 2.9847-8.924 4.1552-18.499 7.5703-27.222 3.1526-8.0519 8.1431-15.399 12.495-22.958 1.5312-2.6596 3.5698-5.0271 5.6973-7.6433z" fill="#8B8EEB"/>
<path d="m782.15 416.83c9.636 8.6917 15.72 20.033 22.706 30.683 0.9726 1.4827 0.80438 3.7137 1.1874 6.0067 0.023072 0.40845 4.28e-4 0.42065-0.34497 0.37851-3.0423-4.7732-5.4416-9.7076-8.5032-14.19-5.1046-7.4729-10.633-14.656-15.748-22.19 0.39075-0.38199 0.54694-0.53494 0.70319-0.68793z" fill="#8B8EEB"/>
<path d="m744.05 647.05c-11.435 7.3559-23.847 12.281-37.576 14.99-0.41736 0.020813-0.42725-0.004212-0.30713-0.34772 9.0557-3.7503 17.989-7.1642 26.928-10.56 3.6371-1.3817 7.2891-2.7244 10.934-4.0849 0 6.1e-5 0.016968-0.008545 0.020386 0.00299z" fill="#8B8EEB"/>
<path d="m253.6 396.05c-0.19289 0.68134-0.53488 1.7328-1.2576 2.294-4.5811 3.5575-9.2463 7.0066-14.236 10.5 2.9987-6.4455 9.4381-9.1133 15.493-12.794z" fill="#8B8EEB"/>
<path d="m737 386.07c-1.1975-0.52585-2.395-1.0517-3.8479-2.0674-0.4718-0.78461-0.76032-0.90146-1.1209-0.84042 0 0-0.45123-0.14749-0.90625-0.44409-2.3345-1.4536-4.2139-2.6107-6.0826-3.7664 0.010864 0.001373 0.017517-0.020844 0.017517-0.020844 5.5793 2.4378 11.159 4.8757 16.871 7.6645 0.13275 0.35101 0.10059 0.35611-0.25976 0.47208-1.7972-0.25516-3.2341-0.62628-4.671-0.99744z" fill="#8B8EEB"/>
<path d="m760.09 397.9c3.2435 2.464 6.487 4.9281 9.8501 7.7161 0.11957 0.32391 0.097778 0.34149-0.23059 0.54492-3.4435-2.5978-6.5587-5.399-9.6605-8.2156 0.013489-0.015259 0.040954-0.04541 0.040954-0.04541z" fill="#8B8EEB"/>
<path d="m716 377.05c-2.1844-0.78256-4.3688-1.5651-6.722-2.6501 5.0393 1.0872 10.247 2.4769 15.619 4.2007 0.1637 0.33408 0.15704 0.35629-0.23633 0.46442-3.1492-0.59958-5.905-1.3073-8.6609-2.015z" fill="#8B8EEB"/>
<path d="m301.98 374.97c-1.1481 0.21262-2.2962 0.4252-4.0427 0.8631-1.1587 0.50064-1.719 0.77597-2.2793 1.0513-0.37018 0.047181-0.74039 0.094391-1.7264 0.19186-2.0608 0.66089-3.5058 1.2715-4.9507 1.8822-0.77548 0.080444-1.5509 0.16089-2.6973 0.12009 4.6811-1.7621 9.7331-3.4028 15.236-4.7897 0.45093 0.25385 0.46033 0.68109 0.46033 0.68109z" fill="#8B8EEB"/>
<path d="m751.06 391.93c2.9204 1.7743 5.8409 3.5486 8.8965 5.6453 0.13525 0.32236 0.10779 0.35251-0.24725 0.55044-3.1268-1.9253-5.8987-4.0485-8.6656-6.1768 0.004944-0.005096 0.016296-0.018921 0.016296-0.018921z" fill="#8B8EEB"/>
<path d="m770.07 405.93c2.3353 1.7441 4.6609 3.4984 6.9872 5.6311 7.32e-4 0.37836-0.014282 0.40103-0.3576 0.55872-2.4492-1.9489-4.5551-4.0555-6.661-6.162 0 0 0.02179-0.017578 0.031372-0.027771z" fill="#8B8EEB"/>
<path d="m251.04 637.37c2.8656 1.467 5.8603 3.2538 8.9071 5.3854-2.8913-1.4587-5.8346-3.2622-8.9071-5.3854z" fill="#8B8EEB"/>
<path d="m226.64 419.95c-1.7939 2.7652-3.9454 5.5724-6.4173 8.1724 1.8063-2.8483 3.933-5.4893 6.4173-8.1724z" fill="#8B8EEB"/>
<path d="m236.95 626.43c2.4208 1.4309 4.8808 3.2168 7.1541 5.3325-2.4961-1.4393-4.8055-3.2084-7.1541-5.3325z" fill="#8B8EEB"/>
<path d="m231.54 413.93c-1.0609 1.9905-2.5044 3.9987-4.2943 6.0367 1.073-1.9864 2.4924-4.0028 4.2943-6.0367z" fill="#8B8EEB"/>
<path d="m777.07 411.93c1.5871 1.432 3.1642 2.8733 4.9118 4.6108 0.014283 0.44931-0.14191 0.60226-0.80597 0.78192-1.7156-1.7691-2.9233-3.565-4.1309-5.3608 0 0 0.015014-0.022674 0.025085-0.031952z" fill="#8B8EEB"/>
<path d="m237.47 408.65c-1.3875 1.9691-3.1531 3.8233-5.2364 5.4742 1.4077-1.9985 3.1329-3.7938 5.2364-5.4742z" fill="#8B8EEB"/>
<path d="m231.95 621.43c1.7711 1.0974 3.5825 2.556 5.1836 4.3381-1.8546-1.11-3.499-2.5433-5.1836-4.3381z" fill="#8B8EEB"/>
<path d="m278.03 653.41c1.7121 0.36206 3.544 1.0525 5.5406 2.0264-1.6971-0.37701-3.559-1.0375-5.5406-2.0264z" fill="#8B8EEB"/>
<path d="m285.62 378.94c-0.43598 0.62546-1.2463 1.2981-2.6003 2.1311-0.85358 0.31323-1.0495 0.55759-1.1313 0.89343 0 0 0.067962-0.020965-0.31958-0.025024-1.1273 0.002502-1.867 0.009094-2.5937 0.032745 0.013062 0.01706-0.022095-0.013183-0.022095-0.013183 2.0975-0.99063 4.195-1.9813 6.6669-3.0191z" fill="#8B8EEB"/>
<path d="m746.09 388.9c1.5701 0.79721 3.1401 1.5945 4.84 2.7133 0.12976 0.32162 0.11841 0.33545-0.24005 0.49609-1.792-0.9433-3.2254-2.0472-4.6424-3.1639 0.01648-0.012787 0.04248-0.04541 0.04248-0.04541z" fill="#8B8EEB"/>
<path d="m302.21 375.16c-0.23468-0.18866-0.24408-0.6159-0.27936-0.82666 0.72314-0.26959 1.4816-0.32837 2.6188-0.42602-0.44898 0.45456-1.2769 0.94797-2.3395 1.2527z" fill="#3B3B80"/>
<path d="m266.02 647.47c1.2236 0.067016 2.5479 0.46875 3.9198 1.2536-1.2413-0.050904-2.5302-0.48492-3.9198-1.2536z" fill="#8B8EEB"/>
<path d="m742.07 386.94c1.2529 0.43826 2.4976 0.89069 3.8823 1.6515 0.14008 0.30835 0.11408 0.34097-0.21307 0.5791-1.4546-0.57837-2.5821-1.3948-3.7095-2.2113 0 0 0.032166-0.005096 0.040284-0.019256z" fill="#8B8EEB"/>
<path d="m245.95 633.36c1.0726 0.45856 2.191 1.2604 3.1471 2.3943-1.142-0.46228-2.1216-1.2567-3.1471-2.3943z" fill="#8B8EEB"/>
<path d="m263.02 645.37c0.95261 0.13086 2.0227 0.57745 2.9918 1.3879-1.0254-0.11481-1.9499-0.59351-2.9918-1.3879z" fill="#8B8EEB"/>
<path d="m270.06 649.37c1.185 0.12354 2.5158 0.56049 3.8874 1.3683-1.2201-0.10431-2.4809-0.57953-3.8874-1.3683z" fill="#8B8EEB"/>
<path d="m260.03 643.35c0.89322 0.14148 1.9036 0.5943 2.9344 1.4023-0.92544-0.12689-1.8713-0.60895-2.9344-1.4023z" fill="#8B8EEB"/>
<path d="m229.72 619.33c0.67766 0.10364 1.546 0.52533 2.3268 1.3605-0.77037-0.071838-1.4533-0.55719-2.3268-1.3605z" fill="#8B8EEB"/>
<path d="m275.64 383.86c-0.25165 0.39414-0.79364 0.84344-1.5384 1.1255 0.28088-0.46829 0.7645-0.76932 1.5384-1.1255z" fill="#3B3B80"/>
<path d="m274.02 651.35c0.55466-0.18774 1.2255-0.075073 1.9255 0.40155-0.58359 0.20892-1.1965 0.053894-1.9255-0.40155z" fill="#8B8EEB"/>
<path d="m276.02 652.38c0.5517-0.20355 1.2129-0.10217 1.9204 0.36829-0.57275 0.22492-1.1918 0.080811-1.9204-0.36829z" fill="#8B8EEB"/>
<path d="m278 383.34c-0.18317-0.053131-0.36636-0.10623-0.81882-0.25622 0.19855-0.42447 0.66632-0.75211 1.4542-1.1027 0.32001-0.022918 0.35516 0.007325 0.3251 0.2934-0.34018 0.54587-0.65033 0.8057-0.96045 1.0655z" fill="#8B8EEB"/>
<path d="m249.04 636.37c0.52756-0.19177 1.1828-0.09198 1.8953 0.37537-0.55109 0.21704-1.1593 0.066589-1.8953-0.37537z" fill="#8B8EEB"/>
<path d="m244.03 632.39c0.52536-0.20941 1.1688-0.12036 1.889 0.34168-0.53914 0.23431-1.155 0.095581-1.889-0.34168z" fill="#8B8EEB"/>
<path d="m257.59 394.04c-0.24292 0.43411-0.83966 0.83267-1.7943 1.0842 0.24155-0.47128 0.84103-0.7955 1.7943-1.0842z" fill="#8B8EEB"/>
<path d="m305.72 373.16c0.053283 0.20874-0.17227 0.41446-0.62662 0.70422-0.005554-0.1456 0.18665-0.40936 0.62662-0.70422z" fill="#3B3B80"/>
<path d="m254.84 394.98c0.1239 0.39822-0.049927 0.81323-0.58064 1.0917-0.14362-0.44934 0.069626-0.76215 0.58064-1.0917z" fill="#8B8EEB"/>
<path d="m509.23 587.99c-0.065827-14.323-0.18201-28.646-0.18832-42.969-0.021607-49.145-0.004761-98.29-0.002533-147.44 6.1e-5 -1.648 0-3.296 0-5.6751 1.9942 0 3.7492 0.002503 5.5042-3.96e-4 56.641-0.093201 113.28-0.22977 169.92-0.25119 14.666-0.005524 28.235 4.6877 41.85 10.542 0.36151 0.077057 0.36688 0.10101 0.58722 0.35535 2.1829 1.282 4.1454 2.3098 6.3759 3.5554 6.287 4.4991 12.428 8.6208 18.298 13.097 10.16 7.7462 19.366 16.521 25.728 27.731 4.8595 8.563 9.0886 17.484 13.611 26.618 7.4587 18.42 8.6995 37.229 6.5582 56.495-1.843 1.9774-3.5803 3.7377-4.8337 5.7932-4.4109 7.2328-7.7899 15.283-13.124 21.73-16.748 20.242-38.594 30.448-65.03 30.442-68.419-0.01532-136.84-0.019165-205.26-0.027527z" fill="#fff"/>
<path d="m509.15 588.45c68.502-0.45312 136.92-0.44928 205.34-0.43396 26.436 0.00592 48.282-10.2 65.03-30.442 5.334-6.4467 8.713-14.497 13.124-21.73 1.2535-2.0554 2.9908-3.8157 4.9309-5.3547 0.090088 3.2818-0.033508 6.2495-0.61127 9.1257-6.9666 34.682-24.779 62.497-53.889 82.544-17.415 11.992-36.794 19.698-58.517 21.854-2.8128 0.035705-5.1829 0.11145-8.0129 0.11615-4.8201-0.00763-9.1801 0.055786-14.004 0.047058-18.154-0.032532-35.844 0.00708-53.996-0.02649-5.8218-0.02655-11.181 0.019959-16.98-0.00415-2.8124-0.02356-5.185 0.023438-8.0162-0.001587-4.4889-0.013428-8.5192 0.045166-12.549 0.10376h-61.93c0-18.812 0-37.074 0.082794-55.797z" fill="#C2D9F9"/>
<path d="m488.2 585.99c-0.090607 0.43286-0.18121 0.86566-0.65393 1.5879-0.77643 0.24054-1.1708 0.19171-1.5607-0.28894 0.006775-2.098 0.26123-3.8136-0.053436-5.4175-0.379-1.9321-0.71158-4.79-1.9942-5.4558-3.8307-1.9887-8.1746-2.962-12.185-4.6479-1.1229-0.47205-2.3686-1.9733-2.4941-3.119-0.12174-1.111 0.89459-3.1769 1.8061-3.4364 5.9543-1.6958 5.3294-5.4659 4.8747-10.522-0.74915-8.3294-4.4987-17.408 3.2177-24.806 0.60828-0.58319 0.73596-1.8485 0.78027-2.8109 0.39484-8.574 1.204-17.159-1.961-25.502-0.94092-2.4804-1.6283-4.3341-4.7929-4.8537-1.569-0.25757-2.8599-2.5887-4.1501-4.0903-3.4234-3.9843-2.8525-10.498-8.41-13.287-0.48852-0.24521-0.37888-3.6106 0.39603-4.136 5.7164-3.8767 6.7239-9.7283 6.9113-15.805 0.18826-6.105-0.03949-12.231-0.29227-18.339-0.20514-4.9572-3.0071-7.6728-7.4725-7.0645 0.45059 1.4429 0.8949 2.7988 1.2974 4.1669 1.5645 5.3175 1.028 11.256-2.6299 14.543-4.33 3.8908-3.3411 5.7019-0.086364 8.8529 0.73358 0.71024 0.86942 3.1253 0.23718 3.871-0.71558 0.84402-3.3086 1.3893-3.8524 0.84122-1.5714-1.5838-2.847-3.667-3.6003-5.7815-0.47006-1.3195 0.21509-3.0505 0.38184-4.5969-1.3953 0.46597-2.7689 1.0223-4.1938 1.3656-0.92593 0.22314-1.9261 0.15979-2.894 0.18396-6.2376 0.15585-12.477 0.24451-18.712 0.47092-3.4233 0.1243-6.8384 0.47464-10.257 0.72308-0.087616-0.46484-0.17523-0.92969-0.26288-1.3945 0.83057-0.7695 1.6611-1.539 2.7282-2.5277-0.97809-0.33554-1.4304-0.62579-1.8833-0.62668-17.826-0.034882-35.652-0.06546-53.479-0.008667-1.2638 0.004028-2.9853 0.27094-3.7151 1.1007-5.5815 6.3459-12.481 3.5787-19.073 3.0354-1.6082-0.13254-3.6775-0.90463-4.7485-0.19537-3.7644 2.4928-7.5875 2.7506-11.893 2.1169-2.191-0.32251-4.6375 0.37604-6.8244 1.0681-0.96957 0.30682-2.4419 2.1271-2.2272 2.6053 2.8741 6.4011-3.6824 7.5619-6.0116 11-0.31033 0.45801-1.8614 0.73294-2.196 0.41568-3.528-3.3448-11.036-0.38049-11.353-8.1851-3.2042 2.082-5.8089 3.467-8.011 5.3284-1.1941 1.0093-1.7025 2.83-2.5202 4.2847 1.5941 0.55417 3.4557 1.9207 4.7293 1.5014 3.0968-1.0195 4.4388-0.20789 4.7855 2.8307 0.37689 3.3038-1.0523 5.6167-4.4264 4.8882-5.4909-1.1855-10.834-3.0626-16.221-4.7076-0.39673-0.12109-0.74719-0.67651-0.94913-1.1093-2.0902-4.481-5.4205-3.5482-8.1904-1.3057-4.0218 3.256-6.4283 1.7259-9.0666-1.6936-0.79565-1.0313-3.1979-2.0946-4.005-1.6349-4.5061 2.5666-8.2493 0.91809-11.972-1.8002 1.9163-5.783 3.7784-11.186 5.9235-16.789 8.2025-10.782 17.276-20.061 28.672-27.06 15.603-9.5821 32.464-15.479 50.627-16.573 14.054-0.84644 28.203-0.093689 42.31-0.079742 18.274 0.018035 36.548 0.017791 54.822 0.008117 22.137-0.011719 44.274-0.041443 66.41-0.063415 0 0 0.1907-0.092346 0.21262 0.35873 0.014587 34.377-0.013153 68.304 0.007049 102.23 0.013947 23.446 0.094116 46.891 0.14468 70.337m-173.49-133.12c43.959-0.006256 87.917-0.012238 131.88-0.020294 1.1654-2.14e-4 2.3531 0.11819 3.4922-0.06131 4.3963-0.69266 7.884-2.8794 9.4724-7.1193 1.5458-4.1262 0.63361-8.4813-2.7864-10.874-2.8976-2.0275-6.9812-3.2912-10.542-3.2968-42.789-0.067963-85.579 0.15836-128.37 0.32196-2.4946 0.009522-5.0199-0.081817-7.4762 0.26294-4.4778 0.62842-8.8193 4.7494-9.2957 8.5978-0.6257 5.0539 1.3734 8.8704 6.0059 10.895 2.0303 0.88751 4.4487 0.88699 7.623 1.2941m78.789-22.871c9.8197-5.19e-4 19.645 0.18982 29.456-0.10193 3.5822-0.10651 7.1979-1.1463 10.645-2.242 0.83337-0.26492 1.7975-3.3047 1.4478-3.6041-2.9413-2.5181-5.9014-5.9629-9.3765-6.7112-7.2306-1.5568-14.773-2.0989-22.201-2.2213-17.637-0.29053-35.286-0.28723-52.922 0.042725-4.406 0.082428-9.375 0.58957-10.975 6.5838-0.36417 1.3646-2.8907 2.3414-4.5988 3.0975-1.345 0.59537-2.9617 0.57663-4.4578 0.83063 0.031616 0.50034 0.063263 1.0007 0.094879 1.501 20.419 4.5659 41.233 2.3032 62.887 2.8249m-106.82 16.584c-3.5415-2.6148-7.1296-2.3782-10.564 0.082824-2.4154 1.7311-4.729 3.6327-6.922 5.6396-4.2347 3.8755-4.6425 10.513-1.0372 14.652 3.1126 3.5734 8.0143 3.5825 12.848-0.01123 1.3292-0.98831 2.619-2.0334 3.8868-3.1001 6.5349-5.4979 7.091-9.4809 1.7885-17.263m-6.3784 28.723c-3.055-2.3987-5.1446-1.4041-6.929 1.9501 3.0305 2.2818 5.0092 0.96353 6.929-1.9501z" fill="#42BCF6"/>
<path d="m685 644.05c21.281-2.1956 40.66-9.9013 58.075-21.894 29.11-20.046 46.923-47.862 53.889-82.544 0.57776-2.8763 0.70136-5.8439 0.93878-9.2075 1.7166-19.622 0.47577-38.431-6.8839-57.138 1.539-0.089203 3.3339 0.13269 4.3591 1.1388 1.2935 1.2694 1.9592 3.1786 3.0507 5.0822 4.6709-3.4906 2.5513-14.316 12.444-10.483 0 0 0.16394 0.34128 0.26721 0.7518 0.23676 0.69855 0.41205 0.95846 0.62903 1.1903 0.42139 1.3792 0.84284 2.7585 1.3624 4.7071 0.23578 0.83527 0.41071 1.0738 0.62299 1.285 0.48767 1.9797 0.97534 3.9594 1.4786 6.5563 0.19782 0.89624 0.38007 1.1752 0.56226 1.4542 0.35327 1.4349 0.70648 2.8699 0.63049 4.6758-5.0922 0.88669-8.1271-1.5902-11.059-4.8529-1.5346-1.7077-4.0086-2.5712-6.0584-3.8159-0.54175 0.43033-1.0835 0.86063-1.6252 1.291 0.74945 3.0599 1.8685 6.0826 2.1807 9.1865 1.0457 10.398 1.6718 20.839 2.8 31.227 0.18927 1.7422 1.817 4.3099 3.246 4.6757 1.6132 0.4129 4.8704-0.74194 5.4522-2.0723 1.6956-3.8773 4.2637-4.0963 7.6166-3.2618-0.64752 30.824-10.58 58.543-28.654 83.284-11.072 15.156-24.741 27.737-40.874 37.51-1.8365 1.1125-3.5889 2.364-5.3971 3.9008-3.662 1.7101-7.3139 3.0529-10.951 4.4346-8.9397 3.3962-17.873 6.8101-26.941 10.565-5.0018 1.0206-9.853 1.9226-14.745 2.312-7.4288 0.59119-14.885 1.1384-22.331 1.16-34.731 0.10083-69.462 0.01477-104.63-0.077576-2.3673-0.41235-4.2902-1.0238-6.2193-1.0446-9.4933-0.1023-18.989-0.023987-28.483-0.071167-1.6699-0.008301-3.3382-0.31091-5.136-1.0156 5.0564-2.8323 8.505-6.4429 9.7476-12.041 0.1897-0.85443 2.2612-1.6956 3.5413-1.8394 10.175-1.1429 20.371-2.0985 30.553-3.1763 0.75232-0.07959 1.4512-0.66376 2.3597-1.3358 4.2152-0.38098 8.2455-0.43958 12.866-0.11108 3.3947 2.9556 6.0822 4.0906 8.3242-0.24286 5.3591-0.046509 10.718-0.093018 16.695 0.25287 2.9167 1.1046 5.1903 2.3102 7.5203 2.4316 5.7476 0.29919 11.521 0.10193 17.284 0.10223 7.9471 4.88e-4 15.901 0.17304 23.836-0.12726 1.9186-0.072571 3.7781-1.7096 5.6648-2.6273 4.36-0.063415 8.7201-0.12683 13.627 0.19727 3.9841 4.1881 5.1295 4.0739 8.369-0.39258z" fill="#3C3A7E"/>
<path d="m487.76 412.66c-22.062 0.42801-44.199 0.45773-66.336 0.46945-18.274 0.009674-36.548 0.009918-54.822-0.008117-14.107-0.013947-28.256-0.76669-42.31 0.079742-18.162 1.0938-35.024 6.9909-50.627 16.573-11.396 6.9989-20.469 16.277-28.587 26.656 0.28102-2.1167 0.43416-4.1907 1.2925-5.9133 5.6108-11.26 11.374-22.443 17.088-33.651 3.4796-2.7195 6.9592-5.4391 10.642-8.4377 2.6214-1.4879 5.0396-2.6967 7.9092-4.1945 0.79709-0.39047 1.0167-0.6152 1.1103-0.96313 2.7356-1.075 5.4713-2.1501 8.8039-3.3478 0.90628-0.28918 1.1002-0.54361 1.1787-0.88596 15.964-6.1594 32.554-7.4173 49.534-7.3556 47.41 0.17242 94.823-0.1976 142.87-0.27255 1.2613 0.55344 1.8875 1.0259 2.5136 1.4983-0.11185 6.4492-0.22369 12.898-0.26089 19.754z" fill="#80DCF9"/>
<path d="m810.85 468.64c-9.8693-3.4688-7.7497 7.3569-12.421 10.848-1.0915-1.9035-1.7572-3.8127-3.0507-5.0822-1.0253-1.0061-2.8201-1.228-4.3723-1.5113-4.6085-8.4748-8.8376-17.396-13.697-25.959-6.3621-11.211-15.568-19.985-25.728-27.731-5.8705-4.476-12.011-8.5977-18.334-13.475-1.0437-4.5098-3.949-3.6468-6.5606-3.4318 0 0-0.005371-0.023956-0.015442-0.015137 0.13538-3.3265-1.3182-4.8839-4.7409-5.6742-5.5173-1.2739-6.9259-3.6397-5.9323-7.8998 4.5395 1.8654 9.0916 3.7298 13.637 5.6095 0.91669 0.37903 1.8074 1.1557 2.7138 1.1616 2.6063 0.016968 5.2147-0.26685 7.8223-0.43246-0.79486-2.3199-1.5816-4.6425-2.3911-6.9572-0.16242-0.46439-0.41138-0.89847-0.69958-1.682 1.3575 0.035675 2.7944 0.4068 4.5917 0.66196 1.4878 0.70053 2.6153 1.517 4.0534 2.1082 1.7441 0.87857 3.1776 1.9825 4.9646 2.9308 3.1254 1.9677 5.8972 4.0909 9.0106 6.0315 3.4568 2.6186 6.572 5.4199 10.016 8.0176 2.4343 1.9031 4.5402 4.0097 6.9894 5.9586 1.551 1.6382 2.7586 3.434 4.2396 5.4322 5.6233 7.5076 11.152 14.691 16.256 22.164 3.0616 4.482 5.4609 9.4164 8.503 14.202 1.9373 4.8235 3.5294 9.5919 5.1447 14.725z" fill="#3B3B80"/>
<path d="m440.24 371.58c2.5609-0.45847 5.1089-0.51996 8.06-0.49777-0.3241 4.6234 1.5442 5.7915 5.9886 5.2334 3.8864-0.48798 7.9541-0.13995 11.855 0.42969 1.373 0.20047 3.3116 2.035 3.4997 3.3388 0.19998 1.3862-0.99832 3.494-2.2316 4.4763-5.0687 4.0376-10.598 6.1258-17.504 5.6193-9.7526-0.71539-19.598-0.086029-29.401-0.24057-2.7606-0.043488-5.4977-1.0281-8.2682-1.1877-2.0445-0.11777-4.1957 0.14798-6.1768 0.69061-4.8607 1.3314-6.0326 0.41748-5.2995-4.5332 1.3481-9.1036 1.2805-8.3509 10.761-7.4887 10.066 0.91525 20.279 0.20566 31.523 0.20566-1.4372-2.8782-2.1289-4.2636-2.8079-6.0459m-11.495 12.249c0.39423 0.49307 0.78848 0.98612 1.1827 1.4792 0.20544-0.20059 0.41092-0.40118 0.61636-0.60181-0.47522-0.40567-0.95044-0.81134-1.7991-0.87741z" fill="#3C3A7E"/>
<path d="m485.98 587.72c0.39435 0.048828 0.7887 0.097656 1.4793 0.17773 0.39749 0.49701 0.49875 0.96277 0.60794 2.2272 0.05426 4.1478 0.10058 7.4969 0.14691 10.846-0.098938 14.015-0.19788 28.031-0.33093 42.509-52.612 0.45514-105.19 0.45038-157.77 0.42059-1.4854-8.54e-4 -2.9707-0.27008-4.4731-0.8576 9.56-0.64685 19.137-1.0116 28.714-1.026 42.078-0.063354 84.157-0.068909 126.24 0.044068 4.125 0.011047 5.5507-1.3408 5.4748-5.4718-0.20776-11.306-0.14096-22.619-0.039429-33.927 0.046264-5.1541 0.23792-10.266-2.6525-14.723 1.1174-0.083862 1.8615-0.15179 2.6055-0.21966z" fill="#2F85EA"/>
<path d="m488.52 585.82c-0.37338-23.275-0.45355-46.72-0.4675-70.166-0.020202-33.926 0.007538-67.852 0.097931-102.24 0.67065 1.3017 1.7437 3.0618 1.767 4.8358 0.15305 11.633-0.008911 23.271 0.14472 34.904 0.036194 2.7397 0.8995 5.4666 1.356 8.2037 0.16119 0.96668 0.42248 1.9632 0.33288 2.9175-0.53519 5.7-1.6148 11.387-1.6722 17.087-0.20764 20.609-0.17892 41.222-0.037903 61.832 0.063721 9.3164 0.88651 18.632 0.80655 27.943-0.041595 4.8438-1.2973 9.6771-2.3274 14.686z" fill="#3B3B80"/>
<path d="m338.09 390c-3.4736-0.17694-6.4626-0.35376-10.145-0.57166 3.6859-4.8279 25.383-4.5008 31.105 0.57175-6.8249 0-13.65 0-20.959-9.2e-5z" fill="#3B3B80"/>
<path d="m349.01 371.37c0.73877-0.45209 1.4865-0.50232 2.856-0.27689 1.801 0.13556 2.9803-0.004547 4.1595-0.14465 0.74304-0.047821 1.4861-0.095642 2.5966-0.073791 1.9266 2.1543 3.5505 4.1946 5.017 6.3425 0.70889 1.0383 1.1221 2.2784 1.6692 3.4271-1.4597 0.12665-3.9652 0.7857-4.2144 0.29617-2.1038-4.1327-5.4803-5.2212-9.7614-5.3928-0.82031-0.032868-1.5448-2.4556-2.3225-4.1776z" fill="#3B3B80"/>
<path d="m378.46 379.2c0.91101-0.86935 1.8689-1.9787 2.4953-1.8156 1.9168 0.49939 3.7063 1.4877 5.5453 2.2859-0.6004 1.0471-1.1334 2.9255-1.8143 2.9807-1.8243 0.14795-3.7528-0.35199-5.5455-0.90228-0.44565-0.13678-0.53332-1.4398-0.68082-2.5487z" fill="#3B3B80"/>
<path d="m716.08 377.39c2.6758 0.36792 5.4317 1.0757 8.57 1.6739 2.262 1.0475 4.1415 2.2046 6.2405 3.628-5.3709 0.25943-11.201 0.93704-14.811-5.3019z" fill="#3B3B80"/>
<path d="m488.54 600.8c-0.37112-3.1748-0.41745-6.5239-0.39142-10.323 3.0284 2.9164 2.2663 6.5085 0.39142 10.323z" fill="#3B3B80"/>
<path d="m474.66 387.5c1.6885-0.16534 3.2197-0.016876 4.7508 0.13159-0.28384 0.67679-0.56769 1.3536-0.8515 2.0304-1.3522-0.61606-2.7045-1.2321-3.8993-2.162z" fill="#3C3A7E"/>
<path d="m289.23 379.15c1.1954-0.80991 2.6403-1.4206 4.4302-2.0086-1.1636 0.75101-2.6721 1.4795-4.4302 2.0086z" fill="#3B3B80"/>
<path d="m278.12 383.59c0.18918-0.51019 0.49933-0.77002 0.82645-1.3329 0.75674-0.30972 1.4965-0.31632 2.6106-0.3519-0.85577 0.62576-2.0859 1.2805-3.437 1.6848z" fill="#3B3B80"/>
<path d="m315.88 663.52c-1.0669 0.22943-2.2603 0.17163-3.6823-0.16748 1.0329-0.22742 2.2943-0.17358 3.6823 0.16748z" fill="#3B3B80"/>
<path d="m316.21 372.18c0.57361-0.44989 1.364-0.7182 2.473-0.93671-0.53964 0.40594-1.398 0.76212-2.473 0.93671z" fill="#3B3B80"/>
<path d="m310.28 372.13c1.1125-0.17206 2.4864-0.13339 4.2672-0.040466-1.064 0.1199-2.5349 0.18555-4.2672 0.040466z" fill="#3B3B80"/>
<path d="m282.97 403.1c0.058045 0.5209-0.16159 0.74564-0.75104 0.86957-0.34863-0.36981-0.45355-0.76199-0.55847-1.1542 0.38596 0.037201 0.77194 0.074402 1.3095 0.28461z" fill="#3B3B80"/>
<path d="m487.91 392.61c-0.51666-0.17181-1.1428-0.64426-1.996-1.3121 0.47748 0.20685 1.182 0.60916 1.996 1.3121z" fill="#3B3B80"/>
<path d="m295.97 376.86c0.24237-0.2561 0.8027-0.53143 1.6861-0.80844-0.24066 0.26196-0.80438 0.52557-1.6861 0.80844z" fill="#3B3B80"/>
<path d="m292.91 399.14c0.11984 0.24142-0.074066 0.49585-0.62909 0.66901-0.048706-0.21835 0.17676-0.40994 0.62909-0.66901z" fill="#3B3B80"/>
<path d="m732.17 383.32c0.22107-0.2196 0.50958-0.10275 0.76617 0.43308-0.20453 0.098144-0.42682-0.0737-0.76617-0.43308z" fill="#3B3B80"/>
<path d="m282.09 381.86c-0.11496-0.2352 0.080963-0.47955 0.63116-0.6489 0.042847 0.20462-0.18204 0.39285-0.63116 0.6489z" fill="#3B3B80"/>
<path d="m483 587.96c3.2637 4.4408 3.0721 9.5525 3.0258 14.707-0.10153 11.309-0.16834 22.621 0.039429 33.927 0.075927 4.131-1.3498 5.4828-5.4748 5.4718-42.078-0.11298-84.157-0.10742-126.24-0.044068-9.5773 0.014404-19.154 0.37915-29.076 0.82489-0.77411 0.25629-1.203 0.27026-2.2361-0.002441-6.4413-1.1204-12.278-1.9542-18.115-2.788 0 0 0.070831-0.016174-0.032013-0.29272-1.0794-0.35376-2.056-0.43085-3.0325-0.50806-0.4169-0.081909-0.8338-0.16382-1.6528-0.67725-4.1015-1.773-7.801-3.1146-11.5-4.4562 0 0-0.37402-0.042481-0.67432-0.43799-1.5426-0.82471-2.7849-1.2538-4.0273-1.683-0.18393-0.030639-0.36789-0.061279-0.96445-0.32129-0.62564-0.41113-0.86279-0.55237-1.124-0.65314-0.29459-0.068054-0.54929-0.20844-0.97693-0.95856-1.4893-1.0114-2.7657-1.4853-4.0422-1.9592 3e-5 0 0.045379 0.030091-0.020447-0.323-4.4635-5.9844-9.8752-10.103-16.982-11.692 0 0 0.098663-0.023803 0.011627-0.3515-1.879-2.3961-3.5937-4.5391-5.4888-6.5082-1.3685-1.422-3.2594-2.3989-4.4305-3.9434-5.6736-7.4824-11.59-14.836-16.544-22.781-1.9002-3.048-1.9722-7.5804-1.7339-11.364 0.056518-0.89716 4.6981-1.5718 7.263-2.2208 1.601-0.40491 3.3241-0.95746 4.8763-0.71136 1.1048 0.17511 2.3642 1.3876 2.9302 2.4651 0.80412 1.5309 1.0424 4.8268 1.5091 4.8244 2.6578-0.013855 6.062 0.055298 7.7924-1.4919 2.6457-2.3656 5.1512-2.5287 8.4786-2.0376 1.0796 0.43628 1.9167 0.67297 2.5757 1.1539 15.053 10.987 31.97 14.683 50.409 14.071 13.779-0.45752 27.603 0.44946 41.756 0.98242 2.3136 0.42902 4.2779 0.79053 6.243 0.79437 21.438 0.041687 42.877-0.054321 64.313 0.14801 2.2791 0.021485 4.5205 1.7604 6.8174 2.5983 5.5144 2.0115 11.03 4.0269 16.605 5.8589 0.76553 0.25165 1.8724-0.53021 2.8198-0.83795 3.4248-1.1124 6.8073-2.3853 10.284-3.299 4.1812-1.0989 8.4732-1.78 12.643-2.9146 0.82761-0.22516 1.3199-1.6827 2.301-2.5874 0.77985-0.003846 1.2256 0.007751 1.6713 0.019409z" fill="#2B8AF2"/>
<path d="m264.24 571.88c-3.0019-0.40527-5.5074-0.24213-8.1531 2.1235-1.7304 1.5472-5.1346 1.478-7.7924 1.4919-0.46672 0.002441-0.70496-3.2935-1.5091-4.8244-0.56601-1.0775-1.8255-2.29-2.9302-2.4651-1.5522-0.24609-3.2753 0.30646-4.8763 0.71136-2.5649 0.64893-7.2065 1.3236-7.263 2.2208-0.23831 3.7839-0.16635 8.3163 1.7339 11.364 4.9535 7.9457 10.87 15.299 16.544 22.781 1.1711 1.5445 3.062 2.5214 4.4305 3.9434 1.8952 1.9692 3.6098 4.1121 5.4464 6.5363-6.4298-5.7478-13.648-11.241-19.246-18.064-20.549-25.046-28.314-54.222-27.385-86.371 0.79997-27.694 9.9553-52.116 27.118-73.386 6.3808-7.9077 14.912-14.08 22.783-21.062-5.3935 11.19-11.157 22.373-16.768 33.633-0.85838 1.7226-1.0115 3.7966-1.5755 6.112-1.9467 5.8074-3.8089 11.211-5.819 17.38-3.9669 15.451-3.4332 30.413-2.7573 45.348 0.17035 3.7643 1.1044 7.5673 2.1854 11.205 4.7947 16.133 13.152 30.094 25.833 41.323z" fill="#2F85EA"/>
<path d="m260.05 616.39c6.9604 1.287 12.372 5.4055 16.808 11.389-5.5285-3.4606-11.095-7.2737-16.808-11.389z" fill="#2F85EA"/>
<path d="m305.21 640.31c5.5578 0.58136 11.395 1.4151 17.518 2.4815-5.5555-0.58795-11.397-1.4086-17.518-2.4815z" fill="#2F85EA"/>
<path d="m288.96 634.38c3.4477 1.0836 7.1472 2.4251 10.946 4.0973-3.4985-1.0594-7.0964-2.4493-10.946-4.0973z" fill="#2F85EA"/>
<path d="m277.08 628.4c1.1029 0.18524 2.3794 0.65918 3.7475 1.4866-1.1302-0.1637-2.3521-0.68085-3.7475-1.4866z" fill="#2F85EA"/>
<path d="m284.21 632.25c1.0394 0.17651 2.2817 0.60565 3.6554 1.3475-1.0633-0.15649-2.2578-0.62567-3.6554-1.3475z" fill="#2F85EA"/>
<path d="m302.12 639.46c0.72302-0.13324 1.6996-0.056152 2.7544 0.32434-0.78143 0.16424-1.6411 0.025146-2.7544-0.32434z" fill="#2F85EA"/>
<path d="m282.04 631.21c0.14899-0.088501 0.38614 0.052734 0.745 0.37988-0.17227 0.16919-0.43176 0.057129-0.745-0.37988z" fill="#2F85EA"/>
<path d="m355.62 370.88c-0.77814 0.20706-1.9574 0.34717-3.3886 0.28146 0.82791-0.25336 1.9077-0.30087 3.3886-0.28146z" fill="#3B397B"/>
<path d="m819.04 521.54c-3.421-0.37164-5.9891-0.15265-7.6847 3.7247-0.58185 1.3304-3.839 2.4852-5.4522 2.0723-1.429-0.36572-3.0567-2.9334-3.246-4.6757-1.1282-10.388-1.7543-20.829-2.8-31.227-0.3122-3.1039-1.4313-6.1266-2.1807-9.1865 0.54175-0.43033 1.0835-0.86063 1.6252-1.291 2.0497 1.2447 4.5237 2.1082 6.0584 3.8159 2.9322 3.2627 5.9671 5.7396 11.031 5.2229 1.173 10.36 1.9451 20.721 2.649 31.545z" fill="#3B3B80"/>
<path d="m815.77 484.69c-0.15985-0.017913-0.3421-0.29688-0.60413-0.81595 0.14075 0.024872 0.36127 0.28986 0.60413 0.81595z" fill="#3B3B80"/>
<path d="m813.73 476.71c-0.18854 0.022217-0.36346-0.21634-0.58667-0.68832 0.20593-0.059662 0.42212 0.16068 0.58667 0.68832z" fill="#3B3B80"/>
<path d="m811.77 470.69c-0.22192 0.023041-0.39722-0.23688-0.61145-0.74744 0.15167 0.015839 0.38403 0.25421 0.61145 0.74744z" fill="#3B3B80"/>
<path d="m726.9 402.55c2.3913-0.46939 5.2966-1.3324 6.0723 2.9595-1.9269-0.64978-3.8894-1.6775-6.0723-2.9595z" fill="#3B397B"/>
<path d="m662.54 644.17c-1.4229 0.98981-3.2823 2.6268-5.201 2.6994-7.9357 0.30029-15.889 0.12775-23.836 0.12726-5.7631-3.05e-4 -11.536 0.19696-17.284-0.10223-2.33-0.12134-4.6036-1.327-7.0576-2.3585 17.535-0.35889 35.225-0.3985 53.379-0.36597z" fill="#3B397B"/>
<path d="m684.55 644.01c-2.7966 4.5065-3.942 4.6207-7.4661 0.50366 2.2832-0.39221 4.6533-0.46796 7.4661-0.50366z" fill="#3B397B"/>
<path d="m591.56 644.14c-1.8022 4.4041-4.4897 3.2691-7.4258 0.38556 2.2408-0.36212 4.6134-0.40912 7.4258-0.38556z" fill="#3B397B"/>
<path d="m264.57 571.97c-13.007-11.315-21.364-25.276-26.159-41.409-1.081-3.6373-2.015-7.4403-2.1854-11.205-0.67584-14.935-1.2096-29.896 2.7031-44.968 3.8704 1.9525 7.6137 3.6009 12.12 1.0344 0.80714-0.45972 3.2094 0.60358 4.005 1.6349 2.6383 3.4196 5.0448 4.9496 9.0666 1.6936 2.7699-2.2425 6.1002-3.1753 8.1904 1.3057 0.20194 0.43283 0.5524 0.98825 0.94913 1.1093 5.3872 1.645 10.73 3.522 16.221 4.7076 3.3741 0.72855 4.8033-1.5844 4.4264-4.8882-0.34665-3.0386-1.6886-3.8502-4.7855-2.8307-1.2736 0.41931-3.1352-0.9472-4.7293-1.5014 0.81775-1.4547 1.3261-3.2753 2.5202-4.2847 2.2022-1.8614 4.8069-3.2464 8.011-5.3284 0.31692 7.8046 7.8248 4.8403 11.353 8.1851 0.33462 0.31726 1.8857 0.042327 2.196-0.41568 2.3292-3.4376 8.8858-4.5984 6.0116-11-0.21475-0.47821 1.2576-2.2985 2.2272-2.6053 2.187-0.69211 4.6335-1.3907 6.8244-1.0681 4.3052 0.63373 8.1283 0.37588 11.893-2.1169 1.0711-0.70926 3.1403 0.062835 4.7485 0.19537 6.5923 0.5433 13.492 3.3105 19.073-3.0354 0.7298-0.82974 2.4513-1.0966 3.7151-1.1007 17.826-0.056793 35.652-0.026215 53.479 0.008667 0.45288 8.85e-4 0.90518 0.29114 1.8833 0.62668-1.0671 0.98868-1.8976 1.7582-2.7282 2.5277 0.087647 0.46484 0.17526 0.92969 0.26288 1.3945 3.4188-0.24844 6.8339-0.59878 10.257-0.72308 6.2349-0.22641 12.475-0.31506 18.712-0.47092 0.96793-0.02417 1.968 0.039184 2.894-0.18396 1.4249-0.34332 2.7985-0.89963 4.1938-1.3656-0.16675 1.5464-0.8519 3.2774-0.38184 4.5969 0.75333 2.1145 2.0289 4.1977 3.6003 5.7815 0.54376 0.54806 3.1368 0.002808 3.8524-0.84122 0.63223-0.74576 0.4964-3.1608-0.23718-3.871-3.2547-3.1509-4.2437-4.9621 0.086364-8.8529 3.6579-3.2868 4.1944-9.2257 2.6299-14.543-0.40253-1.3681-0.84683-2.7239-1.2974-4.1669 4.4653-0.60834 7.2673 2.1073 7.4725 7.0645 0.25278 6.1081 0.48053 12.234 0.29227 18.339-0.18738 6.0765-1.1949 11.928-6.9113 15.805-0.7749 0.52548-0.88455 3.8908-0.39603 4.136 5.5575 2.7898 4.9866 9.3032 8.41 13.287 1.2903 1.5016 2.5811 3.8328 4.1501 4.0903 3.1647 0.51959 3.852 2.3733 4.7929 4.8537 3.165 8.3433 2.3558 16.928 1.961 25.502-0.044312 0.9624-0.172 2.2277-0.78027 2.8109-7.7164 7.3984-3.9669 16.477-3.2177 24.806 0.45474 5.056 1.0796 8.8261-4.8747 10.522-0.9115 0.25952-1.9278 2.3254-1.8061 3.4364 0.12546 1.1457 1.3712 2.6469 2.4941 3.119 4.0106 1.6859 8.3545 2.6592 12.185 4.6479 1.2826 0.66583 1.6152 3.5237 1.9942 5.4558 0.31467 1.6039 0.060211 3.3196 0.053436 5.4175-0.7485 0.4997-1.4926 0.56763-2.61 0.65149-0.81906 0.004334-1.2648-0.007263-2.513-0.016479-41.171 0.007813-81.539 0.013306-121.91 0.018799-13.804-0.29938-27.628-1.2064-41.407-0.74884-18.439 0.61218-35.355-3.0844-50.409-14.071-0.6589-0.48096-1.4961-0.71765-2.5757-1.1539z" fill="#43BFF9"/>
<path d="m314.24 452.86c-2.7083-0.40491-5.1267-0.40439-7.157-1.2919-4.6325-2.025-6.6316-5.8414-6.0059-10.895 0.47644-3.8483 4.818-7.9694 9.2957-8.5978 2.4564-0.34476 4.9817-0.25342 7.4762-0.26294 42.79-0.1636 85.579-0.38992 128.37-0.32196 3.5613 0.005645 7.6449 1.2694 10.542 3.2968 3.42 2.3931 4.3322 6.7482 2.7864 10.874-1.5884 4.2399-5.0761 6.4266-9.4724 7.1193-1.1391 0.1795-2.3268 0.061096-3.4922 0.06131-43.959 0.008056-87.917 0.014038-132.34 0.018097z" fill="#F7FEFF"/>
<path d="m393 430c-21.153-0.52173-41.968 1.741-62.387-2.8249-0.031616-0.50034-0.063263-1.0007-0.094879-1.501 1.4961-0.254 3.1128-0.23526 4.4578-0.83063 1.708-0.75604 4.2346-1.7329 4.5988-3.0975 1.5998-5.9942 6.5688-6.5013 10.975-6.5838 17.636-0.32996 35.285-0.33325 52.922-0.042725 7.4278 0.12234 14.97 0.66449 22.201 2.2213 3.475 0.74823 6.4352 4.1931 9.3765 6.7112 0.34973 0.29938-0.61438 3.3392-1.4478 3.6041-3.4473 1.0958-7.063 2.1355-10.645 2.242-9.8111 0.29175-19.636 0.10141-29.956 0.10193z" fill="#43BFF9"/>
<path d="m286.97 446.84c5.0147 7.5216 4.4587 11.505-2.0762 17.003-1.2679 1.0666-2.5576 2.1118-3.8868 3.1001-4.8333 3.5937-9.735 3.5847-12.848 0.01123-3.6052-4.1391-3.1975-10.777 1.0372-14.652 2.193-2.0069 4.5066-3.9085 6.922-5.6396 3.4339-2.461 7.0221-2.6977 10.851 0.17783z" fill="#F7FEFF"/>
<path d="m280.24 475.62c-1.8565 2.5981-3.8353 3.9164-6.8658 1.6346 1.7844-3.3541 3.874-4.3488 6.8658-1.6346z" fill="#43BFF9"/>
<path d="m428.93 383.66c0.66193 0.23587 1.1371 0.64154 1.6124 1.0472-0.20544 0.20062-0.41092 0.40122-0.61639 0.60181-0.39423-0.4931-0.78848-0.98614-0.99597-1.649z" fill="#3B397B"/>
<path d="m359.31 588.18c40.019-0.23907 80.387-0.24457 121.22-0.23694-0.17856 0.90234-0.6709 2.3599-1.4985 2.585-4.1699 1.1345-8.4619 1.8156-12.643 2.9146-3.4769 0.9137-6.8594 2.1866-10.284 3.299-0.94742 0.30774-2.0543 1.0896-2.8198 0.83795-5.5748-1.832-11.09-3.8474-16.605-5.8589-2.2969-0.83789-4.5384-2.5768-6.8174-2.5983-21.436-0.20233-42.875-0.10632-64.313-0.14801-1.9651-0.003845-3.9295-0.36536-6.243-0.79437z" fill="#2F85EA"/>
</svg>
