<svg version="1.1" id="Layer_1" xmlns="http://www.w3.org/2000/svg" xmlns:xlink="http://www.w3.org/1999/xlink" x="0px" y="0px"
	 width="100%" viewBox="0 0 3859 1474" enable-background="new 0 0 3859 1474" xml:space="preserve">
<path fill="#F3F3F3" opacity="1.000000" stroke="none" 
	d="
M1966.000000,2.000000 
	C2394.720459,2.000000 2823.440674,2.000000 3253.252441,2.784321 
	C3255.676270,4.362700 3256.940186,5.677080 3258.352295,5.861904 
	C3264.905518,6.719593 3271.559814,6.902102 3278.068115,7.987098 
	C3299.579102,11.573208 3321.200928,14.721518 3342.484375,19.387787 
	C3369.747070,25.365002 3396.283203,34.130329 3422.213867,44.446590 
	C3435.095703,49.571503 3447.422363,56.092999 3459.873535,62.694530 
	C3456.371094,67.990761 3452.435303,63.708099 3448.894531,63.746159 
	C3410.653076,64.157173 3372.405518,63.990456 3334.159668,64.054214 
	C3332.401123,64.057144 3330.643311,64.747871 3327.149902,65.483841 
	C3329.984131,67.658325 3331.228760,69.313248 3332.786377,69.696846 
	C3344.657959,72.620338 3356.826904,74.552391 3368.443359,78.240326 
	C3382.304199,82.640694 3395.998047,87.847420 3409.211182,93.910393 
	C3418.459717,98.154015 3426.502686,104.951576 3435.568115,109.680801 
	C3462.939697,123.959793 3485.178223,143.984283 3502.180420,169.515137 
	C3512.629150,185.205322 3517.735352,202.833191 3518.266113,222.035049 
	C3518.581055,233.434204 3514.798096,243.495056 3511.453125,254.391556 
	C3504.036621,268.934174 3493.083252,279.927277 3480.976562,289.127045 
	C3459.644043,305.337219 3435.533936,316.494568 3409.469971,323.226166 
	C3388.269775,328.701569 3366.802002,333.790863 3344.950439,333.802856 
	C2885.349609,334.054962 2425.748779,333.986847 1966.090088,333.047394 
	C1966.009888,246.997879 1965.991333,161.882507 1965.953979,76.767136 
	C1965.952026,72.448280 1965.789307,68.129501 1965.773682,62.888115 
	C1965.897217,41.977024 1965.948608,21.988512 1966.000000,2.000000 
z"/>
<path fill="#C3C3C3" opacity="1.000000" stroke="none" 
	d="
M3240.000000,1476.000000 
	C2815.946289,1476.000000 2391.892578,1476.000000 1966.913574,1475.062744 
	C1966.002075,1403.415283 1966.015869,1332.705200 1966.964111,1261.997070 
	C2527.197754,1261.999390 3086.496826,1261.999756 3645.796143,1262.000366 
	C3648.795898,1262.000366 3651.926514,1261.473267 3654.757080,1262.166870 
	C3657.370117,1262.807007 3659.661621,1264.759766 3661.784180,1266.720947 
	C3654.138184,1275.425171 3647.250732,1284.011597 3639.359619,1291.547119 
	C3628.369629,1302.041748 3616.798584,1311.951294 3605.168701,1321.745850 
	C3589.270752,1335.134521 3573.839844,1349.266235 3556.831055,1361.099121 
	C3535.314941,1376.067627 3512.907959,1389.934448 3489.995361,1402.676270 
	C3454.483398,1422.424194 3417.102783,1438.128540 3378.093994,1449.812012 
	C3334.756592,1462.791992 3290.794434,1472.241577 3245.436035,1474.221313 
	C3243.601562,1474.301392 3241.811035,1475.384155 3240.000000,1476.000000 
z"/>
<path fill="#216285" opacity="1.000000" stroke="none" 
	d="
M1932.000000,1476.000000 
	C1503.946289,1476.000000 1075.892578,1476.000000 646.354553,1475.404297 
	C637.910034,1474.578125 630.949829,1474.347778 623.123535,1474.098145 
	C618.811951,1474.164185 615.366394,1474.249634 611.077759,1474.104980 
	C596.011414,1471.416626 581.580383,1471.575073 567.245483,1468.787720 
	C538.525879,1463.203247 510.081207,1456.913330 482.151093,1448.202393 
	C434.051239,1433.201050 388.760590,1411.956421 345.762115,1385.937012 
	C328.581207,1375.540405 312.559052,1363.228882 296.208893,1351.012939 
	C300.168182,1345.897949 305.180420,1348.113159 309.526001,1348.112183 
	C831.752869,1347.993286 1353.979736,1348.000122 1876.206665,1347.996826 
	C1879.538696,1347.996826 1883.110962,1348.696045 1886.136719,1347.720947 
	C1889.320923,1346.694824 1893.525269,1344.651367 1894.568970,1341.988403 
	C1897.190796,1335.299683 1899.575439,1328.042603 1899.750244,1320.956543 
	C1900.349854,1296.643311 1899.959717,1272.305664 1899.959473,1247.042603 
	C1899.959595,1224.731445 1899.947388,1203.354980 1899.947021,1181.042725 
	C1899.955200,1161.396118 1899.951660,1142.685547 1899.966431,1123.042725 
	C1899.971924,1111.402466 1899.959229,1100.694336 1899.960938,1089.050049 
	C1899.970093,1060.740601 1899.964966,1033.367432 1899.979248,1005.062927 
	C1900.024536,994.764465 1900.050537,985.397400 1900.778809,975.899902 
	C1902.855835,974.002991 1905.014771,972.411438 1905.455322,970.436462 
	C1906.672607,964.980713 1910.101562,963.794739 1914.984009,963.961548 
	C1920.629028,964.154541 1926.285889,964.005493 1932.054077,964.936035 
	C1932.220337,1014.532166 1932.259399,1063.197144 1932.340332,1111.862061 
	C1932.347046,1115.850220 1932.641113,1119.837769 1932.599609,1124.752441 
	C1932.335571,1129.669922 1932.218506,1133.660400 1932.219604,1137.651001 
	C1932.247681,1246.447632 1932.291504,1355.244263 1932.312378,1464.040894 
	C1932.313110,1468.027222 1932.108887,1472.013672 1932.000000,1476.000000 
z"/>
<path fill="#FFFFFF" opacity="1.000000" stroke="none" 
	d="
M2.000000,684.000000 
	C2.000000,456.818695 2.000000,229.637375 2.000000,2.000000 
	C208.709305,2.000000 415.418945,2.000000 623.055725,2.379980 
	C623.982849,2.759960 624.031067,3.518584 623.176880,3.778651 
	C616.719238,4.596683 611.123474,5.252059 605.510986,5.696708 
	C570.631409,8.460032 536.472961,15.245618 502.829620,24.592062 
	C458.139099,37.007530 415.323761,54.240589 374.632263,76.516769 
	C333.366913,99.107094 294.592285,125.354988 258.887146,157.169128 
	C250.866623,164.141708 243.244553,170.556168 236.066727,177.434235 
	C202.917999,209.198669 172.673630,243.523010 146.342514,281.165405 
	C137.058273,294.437958 128.674866,308.340668 119.332169,322.347717 
	C111.150070,336.479431 103.515968,350.219086 95.324806,364.360809 
	C90.380455,373.334106 85.700897,381.770782 81.677658,390.509613 
	C76.285515,402.221802 71.401291,414.167816 65.851486,426.584961 
	C54.728592,451.490356 45.450935,476.326141 38.196629,502.706970 
	C34.414513,516.211121 30.962677,529.015320 26.935352,542.330078 
	C24.843897,551.196777 23.327925,559.552917 21.303783,568.483887 
	C20.045296,572.624939 19.133551,576.165955 18.572681,579.761841 
	C16.179129,595.107361 13.889239,610.469116 11.071020,626.458740 
	C9.607276,636.851685 8.691596,646.616943 7.644276,656.368103 
	C6.640676,665.712219 5.500395,675.041687 3.820475,684.248962 
	C2.813843,684.080261 2.406921,684.040100 2.000000,684.000000 
z"/>
<path fill="#FFFFFF" opacity="1.000000" stroke="none" 
	d="
M296.009399,1351.789062 
	C312.559052,1363.228882 328.581207,1375.540405 345.762115,1385.937012 
	C388.760590,1411.956421 434.051239,1433.201050 482.151093,1448.202393 
	C510.081207,1456.913330 538.525879,1463.203247 567.245483,1468.787720 
	C581.580383,1471.575073 596.011414,1471.416626 611.083496,1474.521973 
	C611.932373,1475.168823 612.000000,1476.000000 612.000000,1476.000000 
	C408.804413,1476.000000 205.608810,1476.000000 2.000000,1476.000000 
	C2.000000,1249.291748 2.000000,1022.583191 2.529046,794.912109 
	C3.406295,793.891052 3.754498,793.832458 4.650758,794.421387 
	C6.741539,811.842163 7.822533,828.674744 9.964224,845.371338 
	C11.887256,860.363098 14.975999,875.205322 17.566889,890.961060 
	C18.333229,896.330750 18.756838,900.936157 19.886759,905.361328 
	C26.586571,931.599792 33.450138,957.796509 40.306694,984.740967 
	C42.768578,992.316101 45.197632,999.152222 47.593578,1005.999817 
	C57.665493,1034.785522 69.021065,1063.034424 83.021530,1090.992676 
	C97.456383,1121.411499 113.559380,1150.041138 131.997635,1177.322754 
	C136.927933,1184.617798 142.429749,1191.526489 147.734299,1199.294312 
	C157.053085,1212.028809 166.100601,1224.247559 175.634033,1236.074707 
	C181.839890,1243.773682 188.752747,1250.902832 195.507690,1258.970459 
	C196.384079,1260.732666 196.936005,1261.981934 197.843582,1262.865967 
	C218.708710,1283.191040 239.272156,1303.844360 260.649780,1323.616943 
	C271.683167,1333.822021 284.175995,1342.448975 296.009399,1351.789062 
z"/>
<path fill="#FFFFFF" opacity="1.000000" stroke="none" 
	d="
M3460.000000,61.982738 
	C3447.422363,56.092999 3435.095703,49.571503 3422.213867,44.446590 
	C3396.283203,34.130329 3369.747070,25.365002 3342.484375,19.387787 
	C3321.200928,14.721518 3299.579102,11.573208 3278.068115,7.987098 
	C3271.559814,6.902102 3264.905518,6.719593 3258.352295,5.861904 
	C3256.940186,5.677080 3255.676270,4.362700 3254.171875,2.784321 
	C3456.527100,2.000000 3659.054443,2.000000 3862.000000,2.000000 
	C3862.000000,222.708282 3862.000000,443.416809 3861.194580,664.965637 
	C3859.601562,663.798584 3858.374756,661.845154 3858.120605,659.772461 
	C3857.638672,655.838806 3858.013916,651.797729 3857.502930,647.870361 
	C3855.761719,634.484070 3854.092773,621.076111 3851.821533,607.774536 
	C3849.552002,594.483521 3846.591309,581.310547 3843.966797,567.401245 
	C3843.357666,565.137268 3842.715332,563.557800 3842.060303,561.136475 
	C3841.757080,557.690613 3841.765381,555.010498 3841.125488,552.495422 
	C3837.888672,539.775635 3834.791992,527.006775 3831.043701,514.434753 
	C3827.782959,503.497742 3823.718750,492.800201 3819.996094,481.216370 
	C3819.600098,478.836456 3819.337891,477.196960 3818.818604,475.643402 
	C3808.310059,444.196991 3794.991943,413.906860 3780.885986,383.950592 
	C3778.934082,379.804962 3776.312012,375.974823 3773.926758,371.290619 
	C3772.399658,368.013123 3771.002441,365.409363 3769.482178,362.879791 
	C3755.376221,339.410400 3741.742676,315.636597 3726.940674,292.614227 
	C3718.263672,279.119019 3707.715820,266.826691 3697.718750,253.385956 
	C3690.022217,243.842133 3682.836670,234.711151 3675.159424,226.014282 
	C3663.078857,212.330063 3651.102783,198.506149 3638.256592,185.560562 
	C3628.234131,175.460571 3616.783447,166.794724 3606.274414,157.157028 
	C3586.416016,138.945114 3564.837646,122.926483 3542.579346,107.904861 
	C3526.361572,96.959679 3509.413818,87.033272 3492.371094,77.396317 
	C3481.993408,71.528442 3470.817383,67.072746 3460.000000,61.982738 
z"/>
<path fill="#FFFFFF" opacity="1.000000" stroke="none" 
	d="
M3240.937256,1476.000000 
	C3241.811035,1475.384155 3243.601562,1474.301392 3245.436035,1474.221313 
	C3290.794434,1472.241577 3334.756592,1462.791992 3378.093994,1449.812012 
	C3417.102783,1438.128540 3454.483398,1422.424194 3489.995361,1402.676270 
	C3512.907959,1389.934448 3535.314941,1376.067627 3556.831055,1361.099121 
	C3573.839844,1349.266235 3589.270752,1335.134521 3605.168701,1321.745850 
	C3616.798584,1311.951294 3628.369629,1302.041748 3639.359619,1291.547119 
	C3647.250732,1284.011597 3654.138184,1275.425171 3662.377930,1266.406616 
	C3669.772217,1258.434570 3676.865234,1251.819458 3682.627930,1244.198364 
	C3694.989990,1227.848755 3708.740479,1212.690552 3720.249512,1195.524048 
	C3737.984863,1169.070557 3754.780029,1142.142090 3769.915283,1114.181763 
	C3784.604248,1087.046509 3796.950439,1058.791504 3808.729736,1029.587402 
	C3817.867920,1002.676697 3826.902832,976.372803 3834.964355,949.773804 
	C3840.609619,931.145996 3844.235596,912.003967 3846.865967,892.651917 
	C3850.183594,868.243835 3854.335449,843.949646 3858.017822,819.589722 
	C3858.427246,816.880066 3858.186768,814.108154 3862.000000,814.000000 
	C3862.000000,1034.516235 3862.000000,1255.032471 3862.000000,1476.000000 
	C3655.291748,1476.000000 3448.583008,1476.000000 3240.937256,1476.000000 
z"/>
<path fill="#35BEFA" opacity="1.000000" stroke="none" 
	d="
M259.490234,156.824539 
	C294.592285,125.354988 333.366913,99.107094 374.632263,76.516769 
	C415.323761,54.240589 458.139099,37.007530 502.829620,24.592062 
	C536.472961,15.245618 570.631409,8.460032 605.510986,5.696708 
	C611.123474,5.252059 616.719238,4.596683 624.057129,3.880750 
	C631.861023,3.148522 637.930481,2.574261 644.000000,2.000000 
	C1062.041748,2.000000 1480.083618,2.000000 1899.066650,2.937309 
	C1900.034180,23.779552 1900.060425,43.684490 1899.146484,63.704796 
	C1893.874756,63.847225 1889.543213,63.897945 1885.211792,63.897984 
	C1467.360718,63.901592 1049.509766,63.973747 631.658752,63.758221 
	C599.658081,63.741714 567.935730,65.481728 536.658813,72.130974 
	C517.887939,76.121536 498.904388,80.064957 480.921173,86.541702 
	C462.597443,93.141098 445.025848,102.151199 427.792389,111.355484 
	C413.454437,119.013290 399.963104,128.327164 388.592621,140.248199 
	C381.041779,148.164658 373.550598,156.138000 365.535339,163.496185 
	C359.909576,161.938049 354.789612,160.187439 349.651489,160.132553 
	C323.155151,159.849457 296.653931,160.052887 270.155029,159.942001 
	C266.414673,159.926361 261.985535,161.440689 259.490234,156.824539 
z"/>
<path fill="#CDCDCD" opacity="1.000000" stroke="none" 
	d="
M3862.000000,813.125000 
	C3858.186768,814.108154 3858.427246,816.880066 3858.017822,819.589722 
	C3854.335449,843.949646 3850.183594,868.243835 3846.865967,892.651917 
	C3844.235596,912.003967 3840.609619,931.145996 3834.964355,949.773804 
	C3826.902832,976.372803 3817.867920,1002.676697 3807.770752,1029.563477 
	C3722.084229,1030.013428 3637.875488,1029.941406 3553.667236,1030.087769 
	C3543.771973,1030.104980 3533.879150,1031.323975 3524.292969,1031.382080 
	C3527.817627,1028.476074 3530.949707,1026.042847 3534.265381,1023.892395 
	C3558.174316,1008.384033 3581.055176,991.524963 3602.434326,972.644653 
	C3611.354980,964.766724 3620.770264,957.433289 3629.475586,949.331299 
	C3638.715576,940.731995 3647.427979,931.560669 3656.234131,922.506287 
	C3657.272705,921.438477 3657.448242,919.531555 3658.620605,917.720093 
	C3665.219971,910.882812 3671.182129,904.301208 3677.233643,897.802551 
	C3694.543945,879.213623 3709.723389,858.963440 3724.293457,837.390991 
	C3748.685303,803.105896 3768.351807,766.883118 3786.129639,729.585999 
	C3787.226807,727.284058 3787.426025,724.554199 3788.662598,721.697388 
	C3792.836670,714.004395 3796.881592,706.829041 3799.851074,699.233215 
	C3807.760010,679.004456 3815.564941,658.719482 3822.692139,638.206970 
	C3826.562012,627.069519 3828.964844,615.422241 3832.334473,603.323486 
	C3834.501221,595.955811 3836.169434,589.207642 3838.286377,582.603455 
	C3839.868652,577.667969 3842.030518,572.918274 3843.933838,568.085754 
	C3846.591309,581.310547 3849.552002,594.483521 3851.821533,607.774536 
	C3854.092773,621.076111 3855.761719,634.484070 3857.502930,647.870361 
	C3858.013916,651.797729 3857.638672,655.838806 3858.120605,659.772461 
	C3858.374756,661.845154 3859.601562,663.798584 3861.194580,665.902954 
	C3862.000000,674.049072 3862.000000,682.098206 3861.614746,691.220703 
	C3861.486084,692.862793 3861.742920,693.431396 3862.000000,694.000000 
	C3862.000000,724.041809 3862.000000,754.083557 3861.388184,785.528992 
	C3860.018311,791.397583 3858.360352,795.946899 3862.000000,800.000000 
	C3862.000000,804.083313 3862.000000,808.166687 3862.000000,813.125000 
z"/>
<path fill="#9D9D9D" opacity="1.000000" stroke="none" 
	d="
M1932.935181,1476.000000 
	C1932.108887,1472.013672 1932.313110,1468.027222 1932.312378,1464.040894 
	C1932.291504,1355.244263 1932.247681,1246.447632 1932.219604,1137.651001 
	C1932.218506,1133.660400 1932.335571,1129.669922 1933.466797,1124.793823 
	C1944.915771,1123.961060 1955.295288,1124.013672 1965.750977,1124.996338 
	C1965.894653,1171.282471 1965.962158,1216.638794 1966.029663,1261.995117 
	C1966.015869,1332.705200 1966.002075,1403.415283 1965.994141,1475.062744 
	C1955.290161,1476.000000 1944.580200,1476.000000 1932.935181,1476.000000 
z"/>
<path fill="#2A8BB9" opacity="1.000000" stroke="none" 
	d="
M4.420185,684.377563 
	C5.500395,675.041687 6.640676,665.712219 7.644276,656.368103 
	C8.691596,646.616943 9.607276,636.851685 12.006073,626.509338 
	C22.863743,625.424866 32.174824,625.454346 40.516449,632.379639 
	C42.019123,635.182617 43.008686,637.591309 44.078667,640.751709 
	C48.107105,652.335571 52.055130,663.167786 56.078934,674.737427 
	C60.769215,686.316589 65.383713,697.158264 70.073296,708.726685 
	C75.432762,720.302307 80.717140,731.151123 86.074867,742.720947 
	C94.097466,758.296997 102.046715,773.152161 109.199097,787.991577 
	C102.367989,786.650574 96.348221,784.263550 90.297028,784.181030 
	C61.866756,783.793274 33.427849,784.038696 4.754276,783.346802 
	C3.677684,780.423706 2.838839,778.211853 1.999997,776.000000 
	C2.000000,751.958191 2.000000,727.916443 2.714813,702.518188 
	C3.759812,695.567078 4.089997,689.972290 4.420185,684.377563 
z"/>
<path fill="#C3C3C3" opacity="1.000000" stroke="none" 
	d="
M1965.064819,2.000000 
	C1965.948608,21.988512 1965.897217,41.977024 1964.871948,62.944698 
	C1953.349731,63.983540 1942.801270,64.043221 1932.212769,63.160320 
	C1932.115112,42.145157 1932.057495,22.072578 1932.000000,2.000000 
	C1942.709839,2.000000 1953.419800,2.000000 1965.064819,2.000000 
z"/>
<path fill="#2D99CA" opacity="1.000000" stroke="none" 
	d="
M1931.066284,2.000000 
	C1932.057495,22.072578 1932.115112,42.145157 1932.124268,63.073067 
	C1932.076050,63.928394 1931.834839,63.868221 1930.916016,63.872169 
	C1920.050171,63.882824 1910.103149,63.889530 1900.136475,63.820072 
	C1900.116821,63.743912 1900.086792,63.589424 1900.086792,63.589424 
	C1900.060425,43.684490 1900.034180,23.779552 1900.003906,2.937309 
	C1910.044189,2.000000 1920.088379,2.000000 1931.066284,2.000000 
z"/>
<path fill="#2882AE" opacity="1.000000" stroke="none" 
	d="
M623.989563,1474.117310 
	C630.949829,1474.347778 637.910034,1474.578125 645.435181,1475.404297 
	C639.277405,1476.000000 632.554871,1476.000000 625.017456,1475.528809 
	C624.202576,1475.057495 623.989563,1474.117310 623.989563,1474.117310 
z"/>
<path fill="#E1E1E1" opacity="1.000000" stroke="none" 
	d="
M643.091797,2.000000 
	C637.930481,2.574261 631.861023,3.148522 624.911255,3.620684 
	C624.031067,3.518584 623.982849,2.759960 623.991455,2.379980 
	C630.061218,2.000000 636.122375,2.000000 643.091797,2.000000 
z"/>
<path fill="#CDCDCD" opacity="1.000000" stroke="none" 
	d="
M1.999997,776.899963 
	C2.838839,778.211853 3.677684,780.423706 4.516844,784.130981 
	C4.379008,788.342224 4.240856,791.058044 4.102702,793.773926 
	C3.754498,793.832458 3.406295,793.891052 2.529046,793.974854 
	C2.000000,788.599976 2.000000,783.199951 1.999997,776.899963 
z"/>
<path fill="#D8D8D8" opacity="1.000000" stroke="none" 
	d="
M3.820474,684.248962 
	C4.089997,689.972290 3.759812,695.567078 2.714813,701.580933 
	C2.000000,696.599976 2.000000,691.199951 2.000000,684.899963 
	C2.406921,684.040100 2.813843,684.080261 3.820474,684.248962 
z"/>
<path fill="#FFFFFF" opacity="1.000000" stroke="none" 
	d="
M3862.000000,799.125000 
	C3858.360352,795.946899 3860.018311,791.397583 3861.388184,786.466309 
	C3862.000000,790.083313 3862.000000,794.166687 3862.000000,799.125000 
z"/>
<path fill="#D8D8D8" opacity="1.000000" stroke="none" 
	d="
M623.123535,1474.098145 
	C623.989563,1474.117310 624.202576,1475.057495 624.101318,1475.528809 
	C620.571228,1476.000000 617.142517,1476.000000 612.856873,1476.000000 
	C612.000000,1476.000000 611.932373,1475.168823 611.926636,1474.751953 
	C615.366394,1474.249634 618.811951,1474.164185 623.123535,1474.098145 
z"/>
<path fill="#FFFFFF" opacity="1.000000" stroke="none" 
	d="
M3862.000000,693.500000 
	C3861.742920,693.431396 3861.486084,692.862793 3861.614746,692.147095 
	C3862.000000,692.000000 3862.000000,693.000000 3862.000000,693.500000 
z"/>
<path fill="#E9E9E9" opacity="1.000000" stroke="none" 
	d="
M3698.009766,253.993256 
	C3707.715820,266.826691 3718.263672,279.119019 3726.940674,292.614227 
	C3741.742676,315.636597 3755.376221,339.410400 3769.482178,362.879791 
	C3771.002441,365.409363 3772.399658,368.013123 3772.989746,371.291138 
	C3170.080811,371.999969 2568.036133,372.000214 1965.947266,371.064667 
	C1965.795044,358.141235 1965.687134,346.153534 1965.721924,334.121277 
	C1965.864624,334.076691 1966.147949,333.981537 1966.147949,333.981537 
	C2425.748779,333.986847 2885.349609,334.054962 3344.950439,333.802856 
	C3366.802002,333.790863 3388.269775,328.701569 3409.469971,323.226166 
	C3435.533936,316.494568 3459.644043,305.337219 3480.976562,289.127045 
	C3493.083252,279.927277 3504.036621,268.934174 3512.311035,254.390137 
	C3524.615967,253.329193 3535.526855,251.954010 3546.414062,252.121475 
	C3596.944580,252.898743 3647.525879,249.727310 3698.009766,253.993256 
z"/>
<path fill="#EEEEEE" opacity="1.000000" stroke="none" 
	d="
M3697.718750,253.385956 
	C3647.525879,249.727310 3596.944580,252.898743 3546.414062,252.121475 
	C3535.526855,251.954010 3524.615967,253.329193 3512.857910,253.995209 
	C3514.798096,243.495056 3518.581055,233.434204 3518.266113,222.035049 
	C3517.735352,202.833191 3512.629150,185.205322 3502.180420,169.515137 
	C3485.178223,143.984283 3462.939697,123.959793 3435.568115,109.680801 
	C3426.502686,104.951576 3418.459717,98.154015 3409.211182,93.910393 
	C3395.998047,87.847420 3382.304199,82.640694 3368.443359,78.240326 
	C3356.826904,74.552391 3344.657959,72.620338 3332.786377,69.696846 
	C3331.228760,69.313248 3329.984131,67.658325 3327.149902,65.483841 
	C3330.643311,64.747871 3332.401123,64.057144 3334.159668,64.054214 
	C3372.405518,63.990456 3410.653076,64.157173 3448.894531,63.746159 
	C3452.435303,63.708099 3456.371094,67.990761 3459.873535,62.694511 
	C3470.817383,67.072746 3481.993408,71.528442 3492.371094,77.396317 
	C3509.413818,87.033272 3526.361572,96.959679 3542.579346,107.904861 
	C3564.837646,122.926483 3586.416016,138.945114 3606.274414,157.157028 
	C3616.783447,166.794724 3628.234131,175.460571 3638.256592,185.560562 
	C3651.102783,198.506149 3663.078857,212.330063 3675.159424,226.014282 
	C3682.836670,234.711151 3690.022217,243.842133 3697.718750,253.385956 
z"/>
<path fill="#D8D8D8" opacity="1.000000" stroke="none" 
	d="
M1932.164551,64.015648 
	C1942.801270,64.043221 1953.349731,63.983540 1964.799805,63.867271 
	C1965.789307,68.129501 1965.952026,72.448280 1965.953979,76.767136 
	C1965.991333,161.882507 1966.009888,246.997879 1966.090088,333.047394 
	C1966.147949,333.981537 1965.864624,334.076691 1964.834106,334.081024 
	C1953.439575,334.008789 1943.075439,333.932220 1932.509277,332.945831 
	C1932.239624,246.963242 1932.176025,161.890472 1932.093872,76.817703 
	C1932.089722,72.501137 1931.924927,68.184708 1931.834961,63.868221 
	C1931.834839,63.868221 1932.076050,63.928394 1932.164551,64.015648 
z"/>
<path fill="#C8C8C8" opacity="1.000000" stroke="none" 
	d="
M1966.964111,1261.997070 
	C1965.962158,1216.638794 1965.894653,1171.282471 1965.872803,1124.973633 
	C1965.918457,1124.020996 1966.157227,1123.987061 1967.078369,1123.989258 
	C2374.614990,1123.992554 2781.230713,1124.024170 3187.846191,1123.897217 
	C3206.422607,1123.891357 3225.012695,1125.169556 3243.616211,1122.207886 
	C3261.547852,1119.353516 3279.770752,1118.384399 3297.788818,1116.004883 
	C3324.109619,1112.528687 3349.859619,1106.261353 3375.204346,1098.442139 
	C3421.741943,1084.084473 3466.447510,1065.514282 3508.129150,1040.046753 
	C3513.173340,1036.964844 3518.688232,1034.654053 3523.985107,1031.985840 
	C3533.879150,1031.323975 3543.771973,1030.104980 3553.667236,1030.087769 
	C3637.875488,1029.941406 3722.084229,1030.013428 3807.251709,1030.044067 
	C3796.950439,1058.791504 3784.604248,1087.046509 3769.915283,1114.181763 
	C3754.780029,1142.142090 3737.984863,1169.070557 3720.249512,1195.524048 
	C3708.740479,1212.690552 3694.989990,1227.848755 3682.627930,1244.198364 
	C3676.865234,1251.819458 3669.772217,1258.434570 3662.688477,1265.820068 
	C3659.661621,1264.759766 3657.370117,1262.807007 3654.757080,1262.166870 
	C3651.926514,1261.473267 3648.795898,1262.000366 3645.796143,1262.000366 
	C3086.496826,1261.999756 2527.197754,1261.999390 1966.964111,1261.997070 
z"/>
<path fill="#22688C" opacity="1.000000" stroke="none" 
	d="
M296.208893,1351.012939 
	C284.175995,1342.448975 271.683167,1333.822021 260.649780,1323.616943 
	C239.272156,1303.844360 218.708710,1283.191040 197.843582,1262.865967 
	C196.936005,1261.981934 196.384079,1260.732666 196.323639,1258.626953 
	C201.884048,1257.066772 206.787247,1256.066772 211.690582,1256.066162 
	C766.145752,1255.995850 1320.600952,1255.994507 1875.056152,1256.047852 
	C1884.010254,1256.048706 1893.013550,1256.927124 1898.987183,1248.166870 
	C1899.118042,1247.974854 1899.618774,1248.034912 1899.947021,1247.977417 
	C1899.959717,1272.305664 1900.349854,1296.643311 1899.750244,1320.956543 
	C1899.575439,1328.042603 1897.190796,1335.299683 1894.568970,1341.988403 
	C1893.525269,1344.651367 1889.320923,1346.694824 1886.136719,1347.720947 
	C1883.110962,1348.696045 1879.538696,1347.996826 1876.206665,1347.996826 
	C1353.979736,1348.000122 831.752869,1347.993286 309.526001,1348.112183 
	C305.180420,1348.113159 300.168182,1345.897949 296.208893,1351.012939 
z"/>
<path fill="#247198" opacity="1.000000" stroke="none" 
	d="
M147.669159,1198.612549 
	C142.429749,1191.526489 136.927933,1184.617798 131.997635,1177.322754 
	C113.559380,1150.041138 97.456383,1121.411499 84.046555,1090.921631 
	C89.175255,1090.088501 93.507629,1090.005859 97.840012,1090.005615 
	C207.167740,1089.998413 316.496613,1090.266968 425.822266,1089.788574 
	C449.416931,1089.685303 471.714233,1095.482910 494.313477,1100.390747 
	C514.364563,1104.745117 534.239014,1109.950806 554.357117,1113.946289 
	C568.600586,1116.775024 583.098877,1118.381470 597.523560,1120.218140 
	C609.322693,1121.720581 621.180725,1123.838867 633.013367,1123.843872 
	C1055.324951,1124.022217 1477.636597,1123.983398 1899.948242,1123.974976 
	C1899.951660,1142.685547 1899.955200,1161.396118 1899.247070,1181.173706 
	C1897.700928,1183.182007 1896.388184,1184.000244 1896.109131,1185.084595 
	C1894.322266,1192.027710 1890.129517,1195.039185 1882.925903,1194.057373 
	C1880.308960,1193.700684 1877.602783,1194.000000 1874.937256,1194.000000 
	C1304.853638,1194.000000 734.770020,1193.999878 164.686386,1194.000244 
	C161.687714,1194.000244 158.685837,1194.094849 155.691208,1193.986206 
	C152.002090,1193.852539 149.173309,1195.040161 147.669159,1198.612549 
z"/>
<path fill="#277EA8" opacity="1.000000" stroke="none" 
	d="
M1899.959717,1005.994385 
	C1899.964966,1033.367432 1899.970093,1060.740601 1899.245117,1089.180176 
	C1896.248413,1093.347290 1893.982178,1096.447998 1891.385864,1100.000000 
	C1887.401245,1100.000000 1883.087402,1100.000000 1878.773560,1100.000000 
	C1430.181030,1100.000000 981.588501,1099.922607 532.996277,1100.233643 
	C511.044983,1100.248901 490.233948,1095.205200 469.380951,1090.383545 
	C446.367737,1085.062378 424.656494,1075.293579 403.614441,1064.607666 
	C381.993073,1053.627319 360.768860,1041.816650 339.781372,1029.660522 
	C331.292023,1024.743408 323.890259,1017.948730 316.788513,1012.020020 
	C328.489532,1014.713074 339.156708,1018.092407 350.676208,1018.090088 
	C859.759216,1017.985840 1368.842285,1018.000000 1877.925293,1017.999756 
	C1879.924316,1017.999756 1881.924072,1017.959656 1883.922241,1018.002197 
	C1889.480591,1018.120300 1893.421265,1015.959656 1895.697266,1010.602844 
	C1896.467529,1008.790283 1898.502563,1007.515076 1899.959717,1005.994385 
z"/>
<path fill="#236C92" opacity="1.000000" stroke="none" 
	d="
M147.734283,1199.294312 
	C149.173309,1195.040161 152.002090,1193.852539 155.691208,1193.986206 
	C158.685837,1194.094849 161.687714,1194.000244 164.686386,1194.000244 
	C734.770020,1193.999878 1304.853638,1194.000000 1874.937256,1194.000000 
	C1877.602783,1194.000000 1880.308960,1193.700684 1882.925903,1194.057373 
	C1890.129517,1195.039185 1894.322266,1192.027710 1896.109131,1185.084595 
	C1896.388184,1184.000244 1897.700928,1183.182007 1899.235352,1182.109619 
	C1899.947388,1203.354980 1899.959595,1224.731445 1899.959473,1247.042603 
	C1899.618774,1248.034912 1899.118042,1247.974854 1898.987183,1248.166870 
	C1893.013550,1256.927124 1884.010254,1256.048706 1875.056152,1256.047852 
	C1320.600952,1255.994507 766.145752,1255.995850 211.690582,1256.066162 
	C206.787247,1256.066772 201.884048,1257.066772 196.164825,1257.943726 
	C188.752747,1250.902832 181.839890,1243.773682 175.634033,1236.074707 
	C166.100601,1224.247559 157.053085,1212.028809 147.734283,1199.294312 
z"/>
<path fill="#2882AE" opacity="1.000000" stroke="none" 
	d="
M1899.979248,1005.062866 
	C1898.502563,1007.515076 1896.467529,1008.790283 1895.697266,1010.602844 
	C1893.421265,1015.959656 1889.480591,1018.120300 1883.922241,1018.002197 
	C1881.924072,1017.959656 1879.924316,1017.999756 1877.925293,1017.999756 
	C1368.842285,1018.000000 859.759216,1017.985840 350.676208,1018.090088 
	C339.156708,1018.092407 328.489532,1014.713074 316.081543,1011.947998 
	C311.544159,1010.077148 308.424957,1008.416504 305.489655,1006.477417 
	C298.282623,1001.716736 291.160400,996.827698 283.710632,991.387695 
	C276.226044,984.497375 268.981110,978.269775 261.858521,971.905273 
	C254.510742,965.339600 247.282028,958.640625 240.791870,952.013794 
	C257.787262,958.104675 274.637268,958.100952 291.658844,958.097107 
	C819.160461,957.978394 1346.662109,958.000000 1874.163818,958.000000 
	C1876.496460,958.000000 1878.836914,957.875122 1881.160034,958.023682 
	C1887.608398,958.436157 1893.027954,957.157959 1896.001587,950.505432 
	C1896.531738,949.319702 1898.582764,948.813843 1899.952515,948.923584 
	C1900.007935,958.578857 1900.042236,967.304626 1900.076538,976.030396 
	C1900.050537,985.397400 1900.024536,994.764465 1899.979248,1005.062866 
z"/>
<path fill="#2678A0" opacity="1.000000" stroke="none" 
	d="
M284.004059,991.990234 
	C291.160400,996.827698 298.282623,1001.716736 305.489655,1006.477417 
	C308.424957,1008.416504 311.544159,1010.077148 315.286682,1011.936401 
	C323.890259,1017.948730 331.292023,1024.743408 339.781372,1029.660522 
	C360.768860,1041.816650 381.993073,1053.627319 403.614441,1064.607666 
	C424.656494,1075.293579 446.367737,1085.062378 469.380951,1090.383545 
	C490.233948,1095.205200 511.044983,1100.248901 532.996277,1100.233643 
	C981.588501,1099.922607 1430.181030,1100.000000 1878.773560,1100.000000 
	C1883.087402,1100.000000 1887.401245,1100.000000 1891.385864,1100.000000 
	C1893.982178,1096.447998 1896.248413,1093.347290 1899.230591,1090.116455 
	C1899.959229,1100.694336 1899.971924,1111.402466 1899.966431,1123.042725 
	C1477.636597,1123.983398 1055.324951,1124.022217 633.013367,1123.843872 
	C621.180725,1123.838867 609.322693,1121.720581 597.523560,1120.218140 
	C583.098877,1118.381470 568.600586,1116.775024 554.357117,1113.946289 
	C534.239014,1109.950806 514.364563,1104.745117 494.313477,1100.390747 
	C471.714233,1095.482910 449.416931,1089.685303 425.822266,1089.788574 
	C316.496613,1090.266968 207.167740,1089.998413 97.840012,1090.005615 
	C93.507629,1090.005859 89.175255,1090.088501 83.817841,1090.203613 
	C69.021065,1063.034424 57.665493,1034.785522 47.593578,1005.999817 
	C45.197632,999.152222 42.768578,992.316101 41.226654,984.738464 
	C108.914246,984.001465 175.730499,984.137695 242.545090,983.865906 
	C253.748825,983.820312 264.208984,985.608276 274.417267,990.061584 
	C277.337555,991.335510 280.793640,991.381348 284.004059,991.990234 
z"/>
<path fill="#B4B4B4" opacity="1.000000" stroke="none" 
	d="
M1932.711426,333.855652 
	C1943.075439,333.932220 1953.439575,334.008789 1964.691406,334.125610 
	C1965.687134,346.153534 1965.795044,358.141235 1965.900024,372.001038 
	C1965.933838,409.248627 1965.970581,444.624115 1965.962158,480.936096 
	C1965.952393,508.581543 1965.987671,535.290466 1965.979126,562.935791 
	C1965.965576,577.914001 1965.995850,591.955750 1965.984375,606.934387 
	C1965.980225,645.912292 1966.017578,683.953430 1966.010986,722.931580 
	C1966.002441,762.577148 1966.037720,801.285645 1966.029541,840.931274 
	C1966.016968,877.908936 1966.047729,913.949463 1966.039917,950.927246 
	C1966.053467,1009.238708 1966.105347,1066.612915 1966.157227,1123.987061 
	C1966.157227,1123.987061 1965.918457,1124.020996 1965.796631,1124.043701 
	C1955.295288,1124.013672 1944.915771,1123.961060 1933.668945,1123.866943 
	C1932.641113,1119.837769 1932.347046,1115.850220 1932.340332,1111.862061 
	C1932.259399,1063.197144 1932.220337,1014.532166 1932.186523,964.005737 
	C1932.110596,916.764160 1932.018799,871.383972 1932.050049,825.072510 
	C1932.083618,776.098450 1931.994141,728.055664 1932.024048,679.081055 
	C1932.060669,627.439392 1931.977783,576.729553 1932.009033,525.086914 
	C1932.131104,462.829712 1932.142822,401.505310 1932.130615,340.180908 
	C1932.130127,338.188599 1931.885864,336.196320 1931.995972,334.121521 
	C1932.236694,334.039032 1932.711426,333.855652 1932.711426,333.855652 
z"/>
<path fill="#236C92" opacity="1.000000" stroke="none" 
	d="
M1931.926880,826.003784 
	C1932.018799,871.383972 1932.110596,916.764160 1932.070068,963.074646 
	C1926.285889,964.005493 1920.629028,964.154541 1914.984009,963.961548 
	C1910.101562,963.794739 1906.672607,964.980713 1905.455322,970.436462 
	C1905.014771,972.411438 1902.855835,974.002991 1900.778809,975.899902 
	C1900.042236,967.304626 1900.007935,958.578857 1899.974243,947.986877 
	C1899.964233,926.078125 1899.953491,906.035522 1899.963867,885.056702 
	C1899.971680,870.747192 1899.958496,857.373962 1899.966309,843.202332 
	C1900.019531,840.275208 1900.051880,838.146484 1900.797485,835.880859 
	C1902.239136,835.117981 1903.485718,834.583984 1903.615479,833.851929 
	C1904.902344,826.592896 1909.731323,825.449036 1916.061646,825.922119 
	C1921.322754,826.315247 1926.636475,826.003357 1931.926880,826.003784 
z"/>
<path fill="#2FA3D8" opacity="1.000000" stroke="none" 
	d="
M38.526905,502.007050 
	C45.450935,476.326141 54.728592,451.490356 66.658508,426.704315 
	C73.154343,426.834778 78.395584,427.927063 83.636971,427.927734 
	C681.606628,428.004486 1279.576294,428.000000 1877.546021,427.999939 
	C1879.879272,427.999939 1882.213867,428.051270 1884.545532,427.989349 
	C1893.195679,427.759644 1894.834961,426.398926 1895.937012,417.756073 
	C1896.294189,414.953094 1896.294922,412.337677 1899.959717,412.926697 
	C1899.964478,437.237366 1899.933716,460.610016 1899.149048,484.158020 
	C1897.648804,485.339050 1896.396973,486.268677 1896.232544,487.361816 
	C1894.032471,501.992523 1894.070190,501.998230 1879.484863,502.000000 
	C1878.151611,502.000153 1876.818237,501.999969 1875.484985,501.999969 
	C1263.165649,502.002319 650.846252,502.004700 38.526905,502.007050 
z"/>
<path fill="#30A7DC" opacity="1.000000" stroke="none" 
	d="
M1899.923950,411.988647 
	C1896.294922,412.337677 1896.294189,414.953094 1895.937012,417.756073 
	C1894.834961,426.398926 1893.195679,427.759644 1884.545532,427.989349 
	C1882.213867,428.051270 1879.879272,427.999939 1877.546021,427.999939 
	C1279.576294,428.000000 681.606628,428.004486 83.636971,427.927734 
	C78.395584,427.927063 73.154343,426.834778 67.106010,426.132812 
	C71.401291,414.167816 76.285515,402.221802 81.677658,390.509613 
	C85.700897,381.770782 90.380455,373.334106 96.270523,364.374237 
	C692.299500,363.990387 1286.825684,363.995209 1881.351807,363.999878 
	C1882.684814,363.999878 1884.032349,363.869781 1885.348267,364.019073 
	C1890.487183,364.602112 1893.297485,362.026215 1895.301514,357.546112 
	C1896.249023,355.428162 1898.353638,353.827850 1899.970703,352.930511 
	C1899.979736,373.241577 1899.951782,392.615112 1899.923950,411.988647 
z"/>
<path fill="#2E9CCF" opacity="1.000000" stroke="none" 
	d="
M21.811958,567.909119 
	C23.327925,559.552917 24.843897,551.196777 27.906578,542.384521 
	C32.119614,541.952271 34.785942,541.997070 37.452267,541.997070 
	C651.743713,542.000122 1266.035156,542.000000 1880.326538,541.999817 
	C1881.993042,541.999817 1883.676270,541.845215 1885.323120,542.024719 
	C1890.454956,542.584106 1893.288940,540.059021 1895.291504,535.566101 
	C1896.237671,533.442871 1898.333740,531.832031 1899.940674,530.745544 
	C1900.018311,533.014893 1900.063965,534.527649 1900.082031,536.973511 
	C1900.019043,551.935364 1899.983643,565.964233 1899.245361,580.110229 
	C1893.648438,587.289001 1886.703003,588.138184 1878.626099,588.136169 
	C1270.830444,587.987366 663.034790,587.993835 55.239174,588.057495 
	C45.897247,588.058472 36.667686,588.158569 27.710735,583.317627 
	C25.547718,577.729736 23.679840,572.819458 21.811958,567.909119 
z"/>
<path fill="#2E9FD2" opacity="1.000000" stroke="none" 
	d="
M1899.908691,529.989014 
	C1898.333740,531.832031 1896.237671,533.442871 1895.291504,535.566101 
	C1893.288940,540.059021 1890.454956,542.584106 1885.323120,542.024719 
	C1883.676270,541.845215 1881.993042,541.999817 1880.326538,541.999817 
	C1266.035156,542.000000 651.743713,542.000122 37.452267,541.997070 
	C34.785942,541.997070 32.119614,541.952271 28.482063,541.873962 
	C30.962677,529.015320 34.414513,516.211121 38.196629,502.706970 
	C650.846252,502.004700 1263.165649,502.002319 1875.484985,501.999969 
	C1876.818237,501.999969 1878.151611,502.000153 1879.484863,502.000000 
	C1894.070190,501.998230 1894.032471,501.992523 1896.232544,487.361816 
	C1896.396973,486.268677 1897.648804,485.339050 1899.185303,485.096680 
	C1899.953125,500.569611 1899.930908,515.279297 1899.908691,529.989014 
z"/>
<path fill="#31AAE0" opacity="1.000000" stroke="none" 
	d="
M1899.933838,351.992950 
	C1898.353638,353.827850 1896.249023,355.428162 1895.301514,357.546112 
	C1893.297485,362.026215 1890.487183,364.602112 1885.348267,364.019073 
	C1884.032349,363.869781 1882.684814,363.999878 1881.351807,363.999878 
	C1286.825684,363.995209 692.299500,363.990387 96.827591,363.972168 
	C103.515968,350.219086 111.150070,336.479431 120.171265,322.461700 
	C126.464409,322.789093 131.369904,323.917603 136.276581,323.922760 
	C234.576553,324.026093 332.876678,324.000885 431.176758,323.995728 
	C434.174408,323.995544 437.257385,324.336792 440.134369,323.730438 
	C441.611908,323.419037 442.721924,321.363953 444.747681,320.144043 
	C460.121948,325.630737 475.006927,329.129974 490.732208,330.572754 
	C507.256561,332.088806 523.674683,334.087158 540.323853,334.084747 
	C988.867065,334.019989 1437.410278,334.033997 1885.953491,334.021027 
	C1890.614990,334.020874 1895.276611,333.838409 1899.948730,333.923157 
	C1899.959351,334.105255 1899.951660,334.470062 1899.632935,335.106750 
	C1899.158691,338.257904 1898.793457,340.781494 1898.902588,343.284424 
	C1899.029541,346.196686 1899.571777,349.090881 1899.933838,351.992950 
z"/>
<path fill="#32AEE5" opacity="1.000000" stroke="none" 
	d="
M443.998047,320.096863 
	C442.721924,321.363953 441.611908,323.419037 440.134369,323.730438 
	C437.257385,324.336792 434.174408,323.995544 431.176758,323.995728 
	C332.876678,324.000885 234.576553,324.026093 136.276581,323.922760 
	C131.369904,323.917603 126.464409,322.789093 120.719261,322.069641 
	C128.674866,308.340668 137.058273,294.437958 146.342514,281.165405 
	C172.673630,243.523010 202.917999,209.198669 236.066727,177.434235 
	C243.244553,170.556168 250.866623,164.141708 258.887146,157.169128 
	C261.985535,161.440689 266.414673,159.926361 270.155029,159.942001 
	C296.653931,160.052887 323.155151,159.849457 349.651489,160.132553 
	C354.789612,160.187439 359.909576,161.938049 365.241272,164.119690 
	C362.201660,171.032059 358.875397,176.685715 355.732391,182.439453 
	C348.303680,196.038773 347.489471,210.769424 347.691223,225.897873 
	C347.870636,239.352371 351.618073,251.288162 359.001251,262.375305 
	C367.016144,274.411072 377.142670,284.217834 388.909058,292.548248 
	C405.882019,304.564880 424.881378,312.423645 443.998047,320.096863 
z"/>
<path fill="#2D96C8" opacity="1.000000" stroke="none" 
	d="
M21.303789,568.483887 
	C23.679840,572.819458 25.547718,577.729736 27.724648,584.123901 
	C29.860222,592.191956 31.791605,598.749268 33.487507,605.366943 
	C35.755039,614.215271 37.839977,623.110352 40.003334,631.985352 
	C32.174824,625.454346 22.863743,625.424866 12.496584,625.875488 
	C13.889239,610.469116 16.179129,595.107361 18.572681,579.761841 
	C19.133551,576.165955 20.045296,572.624939 21.303789,568.483887 
z"/>
<path fill="#277EA8" opacity="1.000000" stroke="none" 
	d="
M283.710632,991.387695 
	C280.793640,991.381348 277.337555,991.335510 274.417267,990.061584 
	C264.208984,985.608276 253.748825,983.820312 242.545090,983.865906 
	C175.730499,984.137695 108.914246,984.001465 41.178589,984.004761 
	C33.450138,957.796509 26.586571,931.599792 19.886759,905.361328 
	C18.756838,900.936157 18.333229,896.330750 18.536318,890.927307 
	C56.654579,890.030701 93.821381,889.806519 130.984299,890.090881 
	C148.709839,890.226501 166.709045,887.605469 184.213745,894.441467 
	C184.829010,895.427429 185.351151,895.803833 186.287506,896.610229 
	C189.297089,900.122986 191.955597,903.093994 194.743515,905.938049 
	C209.811722,921.309387 224.912033,936.649231 240.001221,952.000000 
	C247.282028,958.640625 254.510742,965.339600 261.858521,971.905273 
	C268.981110,978.269775 276.226044,984.497375 283.710632,991.387695 
z"/>
<path fill="#2882AE" opacity="1.000000" stroke="none" 
	d="
M183.997711,894.002441 
	C166.709045,887.605469 148.709839,890.226501 130.984299,890.090881 
	C93.821381,889.806519 56.654579,890.030701 18.519938,890.079773 
	C14.975999,875.205322 11.887256,860.363098 9.964224,845.371338 
	C7.822533,828.674744 6.741539,811.842163 4.650759,794.421387 
	C4.240856,791.058044 4.379008,788.342224 4.754591,784.842163 
	C33.427849,784.038696 61.866756,783.793274 90.297028,784.181030 
	C96.348221,784.263550 102.367989,786.650574 109.468033,788.613281 
	C112.352097,792.170349 114.170364,795.090088 116.062317,798.710815 
	C125.939919,814.406250 135.650497,829.463074 145.616547,844.348816 
	C147.968796,847.862244 151.180923,850.799927 154.270813,854.627808 
	C164.361984,868.169556 174.179840,881.085999 183.997711,894.002441 
z"/>
<path fill="#E7E7E7" opacity="1.000000" stroke="none" 
	d="
M1966.007324,479.999603 
	C1965.970581,444.624115 1965.933838,409.248627 1965.944336,372.936768 
	C2568.036133,372.000214 3170.080811,371.999969 3773.062744,371.999237 
	C3776.312012,375.974823 3778.934082,379.804962 3780.885986,383.950592 
	C3794.991943,413.906860 3808.310059,444.196991 3818.818604,475.643402 
	C3819.337891,477.196960 3819.600098,478.836456 3819.148682,481.197815 
	C3812.074707,481.306488 3805.833984,480.082031 3799.593506,480.081146 
	C3188.398193,479.994049 2577.202637,479.999725 1966.007324,479.999603 
z"/>
<path fill="#E5E5E5" opacity="1.000000" stroke="none" 
	d="
M1965.962158,480.936096 
	C2577.202637,479.999725 3188.398193,479.994049 3799.593506,480.081146 
	C3805.833984,480.082031 3812.074707,481.306488 3819.162598,481.978302 
	C3823.718750,492.800201 3827.782959,503.497742 3831.043701,514.434753 
	C3834.791992,527.006775 3837.888672,539.775635 3841.125488,552.495422 
	C3841.765381,555.010498 3841.757080,557.690613 3841.114746,561.144226 
	C3215.462402,561.995667 2590.742676,561.997498 1966.022949,561.999390 
	C1965.987671,535.290466 1965.952393,508.581543 1965.962158,480.936096 
z"/>
<path fill="#E3E3E3" opacity="1.000000" stroke="none" 
	d="
M1965.979126,562.935791 
	C2590.742676,561.997498 3215.462402,561.995667 3841.127441,561.986084 
	C3842.715332,563.557800 3843.357666,565.137268 3843.966797,567.401245 
	C3842.030518,572.918274 3839.868652,577.667969 3838.286377,582.603455 
	C3836.169434,589.207642 3834.501221,595.955811 3831.485107,603.341187 
	C3824.423096,604.693604 3818.515625,605.918091 3812.608398,605.918884 
	C3197.081055,606.004639 2581.553467,605.998352 1966.026123,605.997559 
	C1965.995850,591.955750 1965.965576,577.914001 1965.979126,562.935791 
z"/>
<path fill="#7CCFF3" opacity="1.000000" stroke="none" 
	d="
M444.747681,320.144043 
	C424.881378,312.423645 405.882019,304.564880 388.909058,292.548248 
	C377.142670,284.217834 367.016144,274.411072 359.001251,262.375305 
	C351.618073,251.288162 347.870636,239.352371 347.691223,225.897873 
	C347.489471,210.769424 348.303680,196.038773 355.732391,182.439453 
	C358.875397,176.685715 362.201660,171.032059 365.738647,164.709412 
	C373.550598,156.138000 381.041779,148.164658 388.592621,140.248199 
	C399.963104,128.327164 413.454437,119.013290 427.792389,111.355484 
	C445.025848,102.151199 462.597443,93.141098 480.921173,86.541702 
	C498.904388,80.064957 517.887939,76.121536 536.658813,72.130974 
	C567.935730,65.481728 599.658081,63.741714 631.658752,63.758221 
	C1049.509766,63.973747 1467.360718,63.901592 1885.211792,63.897984 
	C1889.543213,63.897945 1893.874756,63.847225 1899.146484,63.704796 
	C1900.086792,63.589424 1900.116821,63.743912 1900.090820,64.767441 
	C1900.022583,155.107666 1899.980347,244.424347 1899.938110,333.741028 
	C1895.276611,333.838409 1890.614990,334.020874 1885.953491,334.021027 
	C1437.410278,334.033997 988.867065,334.019989 540.323853,334.084747 
	C523.674683,334.087158 507.256561,332.088806 490.732208,330.572754 
	C475.006927,329.129974 460.121948,325.630737 444.747681,320.144043 
z"/>
<path fill="#D8D8D8" opacity="1.000000" stroke="none" 
	d="
M1967.078369,1123.989258 
	C1966.105347,1066.612915 1966.053467,1009.238708 1966.968750,950.930908 
	C2514.387939,949.998169 3060.840088,949.999023 3607.291992,949.999939 
	C3608.624756,949.999939 3609.968750,949.887024 3611.288330,950.018799 
	C3618.171631,950.706238 3623.436768,947.891968 3628.091553,942.996582 
	C3634.747559,935.996033 3641.765381,929.341064 3648.518799,922.430847 
	C3651.182617,919.705322 3653.897461,917.432068 3658.023926,918.013672 
	C3657.448242,919.531555 3657.272705,921.438477 3656.234131,922.506287 
	C3647.427979,931.560669 3638.715576,940.731995 3629.475586,949.331299 
	C3620.770264,957.433289 3611.354980,964.766724 3602.434326,972.644653 
	C3581.055176,991.524963 3558.174316,1008.384033 3534.265381,1023.892395 
	C3530.949707,1026.042847 3527.817627,1028.476074 3524.292969,1031.382080 
	C3518.688232,1034.654053 3513.173340,1036.964844 3508.129150,1040.046753 
	C3466.447510,1065.514282 3421.741943,1084.084473 3375.204346,1098.442139 
	C3349.859619,1106.261353 3324.109619,1112.528687 3297.788818,1116.004883 
	C3279.770752,1118.384399 3261.547852,1119.353516 3243.616211,1122.207886 
	C3225.012695,1125.169556 3206.422607,1123.891357 3187.846191,1123.897217 
	C2781.230713,1124.024170 2374.614990,1123.992554 1967.078369,1123.989258 
z"/>
<path fill="#E1E1E1" opacity="1.000000" stroke="none" 
	d="
M1965.984375,606.934387 
	C2581.553467,605.998352 3197.081055,606.004639 3812.608398,605.918884 
	C3818.515625,605.918091 3824.423096,604.693604 3831.179688,604.022644 
	C3828.964844,615.422241 3826.562012,627.069519 3822.692139,638.206970 
	C3815.564941,658.719482 3807.760010,679.004456 3799.851074,699.233215 
	C3796.881592,706.829041 3792.836670,714.004395 3787.720215,721.688721 
	C3179.457520,722.002136 2572.756348,721.998352 1966.055054,721.994507 
	C1966.017578,683.953430 1965.980225,645.912292 1965.984375,606.934387 
z"/>
<path fill="#DEDEDE" opacity="1.000000" stroke="none" 
	d="
M1966.010986,722.931580 
	C2572.756348,721.998352 3179.457520,722.002136 3787.101074,722.014709 
	C3787.426025,724.554199 3787.226807,727.284058 3786.129639,729.585999 
	C3768.351807,766.883118 3748.685303,803.105896 3723.436523,837.394287 
	C3716.034912,838.669495 3709.793213,839.916443 3703.551514,839.917419 
	C3124.392090,840.004395 2545.232666,839.996094 1966.072998,839.994141 
	C1966.037720,801.285645 1966.002441,762.577148 1966.010986,722.931580 
z"/>
<path fill="#DCDCDC" opacity="1.000000" stroke="none" 
	d="
M1966.029663,840.931274 
	C2545.232666,839.996094 3124.392090,840.004395 3703.551514,839.917419 
	C3709.793213,839.916443 3716.034912,838.669495 3723.133301,838.000854 
	C3709.723389,858.963440 3694.543945,879.213623 3677.233643,897.802551 
	C3671.182129,904.301208 3665.219971,910.882812 3658.620605,917.720093 
	C3653.897461,917.432068 3651.182617,919.705322 3648.518799,922.430847 
	C3641.765381,929.341064 3634.747559,935.996033 3628.091553,942.996582 
	C3623.436768,947.891968 3618.171631,950.706238 3611.288330,950.018799 
	C3609.968750,949.887024 3608.624756,949.999939 3607.291992,949.999939 
	C3060.840088,949.999023 2514.387939,949.998169 1967.007202,949.993652 
	C1966.047729,913.949463 1966.016968,877.908936 1966.029663,840.931274 
z"/>
<path fill="#2D99CA" opacity="1.000000" stroke="none" 
	d="
M40.516449,632.379639 
	C37.839977,623.110352 35.755039,614.215271 33.487507,605.366943 
	C31.791605,598.749268 29.860222,592.191956 28.019783,584.801392 
	C36.667686,588.158569 45.897247,588.058472 55.239174,588.057495 
	C663.034790,587.993835 1270.830444,587.987366 1878.626099,588.136169 
	C1886.703003,588.138184 1893.648438,587.289001 1899.275391,581.047852 
	C1899.981934,598.576965 1899.955200,615.285522 1899.211182,632.134460 
	C1897.777588,632.919983 1896.672363,633.433533 1896.402832,634.229919 
	C1892.430542,645.969727 1892.456787,645.979126 1880.786987,645.999512 
	C1878.787476,646.002991 1876.787842,646.000000 1874.788330,646.000000 
	C1273.590088,646.000000 672.391724,646.000977 71.193459,645.990723 
	C62.035164,645.990540 52.487789,647.592957 44.973423,640.129700 
	C44.788170,639.945740 44.329433,640.037109 43.998245,640.000000 
	C43.008686,637.591309 42.019123,635.182617 40.516449,632.379639 
z"/>
<path fill="#2B90C0" opacity="1.000000" stroke="none" 
	d="
M115.988632,798.009766 
	C114.170364,795.090088 112.352097,792.170349 110.264893,788.629028 
	C102.046715,773.152161 94.097466,758.296997 86.792938,742.796387 
	C95.256950,750.686279 105.450172,750.081543 115.808167,750.079956 
	C702.674561,749.990112 1289.540894,750.000061 1876.407349,749.999878 
	C1879.406616,749.999878 1882.409546,749.904175 1885.404419,750.017944 
	C1889.836426,750.186218 1892.932983,749.096985 1894.405640,744.140381 
	C1895.114380,741.754639 1898.024536,740.022949 1899.966309,738.874634 
	C1899.412476,745.635010 1898.284790,751.523315 1898.365723,757.394958 
	C1898.515869,768.265137 1899.373169,779.125549 1899.211426,790.136658 
	C1897.951904,790.652405 1897.091553,790.914307 1896.929565,791.406189 
	C1892.676147,804.317871 1893.857910,801.586365 1881.678833,801.992371 
	C1880.014526,802.047913 1878.346802,802.000000 1876.680664,802.000000 
	C1299.195435,802.000000 721.710205,801.992981 144.224945,802.060242 
	C134.556641,802.061340 124.987137,802.266602 115.988632,798.009766 
z"/>
<path fill="#2C94C5" opacity="1.000000" stroke="none" 
	d="
M69.998215,708.000000 
	C65.383713,697.158264 60.769215,686.316589 56.924797,674.757202 
	C63.602547,674.693054 69.510124,675.917969 75.417885,675.918823 
	C676.993042,676.005615 1278.568237,676.000000 1880.143433,675.999878 
	C1882.476440,675.999878 1884.828735,675.803162 1887.138306,676.034912 
	C1892.005005,676.523193 1894.762573,674.255005 1895.706665,669.697571 
	C1896.253540,667.058105 1896.229370,664.216614 1899.951782,664.928467 
	C1899.960938,676.572876 1899.939697,687.281555 1899.190186,698.142456 
	C1897.752808,698.950745 1896.599487,699.494324 1896.400635,700.279602 
	C1892.926270,713.990295 1892.951782,713.996765 1878.710083,713.999939 
	C1877.043823,714.000305 1875.377686,714.000000 1873.711426,714.000000 
	C1281.538330,714.000000 689.365173,714.000977 97.192032,713.990723 
	C88.034149,713.990540 78.487206,715.592957 70.973328,708.129822 
	C70.788071,707.945801 70.329391,708.037109 69.998215,708.000000 
z"/>
<path fill="#2C92C2" opacity="1.000000" stroke="none" 
	d="
M70.073303,708.726685 
	C70.329391,708.037109 70.788071,707.945801 70.973328,708.129822 
	C78.487206,715.592957 88.034149,713.990540 97.192032,713.990723 
	C689.365173,714.000977 1281.538330,714.000000 1873.711426,714.000000 
	C1875.377686,714.000000 1877.043823,714.000305 1878.710083,713.999939 
	C1892.951782,713.996765 1892.926270,713.990295 1896.400635,700.279602 
	C1896.599487,699.494324 1897.752808,698.950745 1899.241699,698.650635 
	C1900.050781,699.345703 1900.080078,699.684814 1900.079346,700.958008 
	C1900.012207,713.926392 1899.974976,725.960754 1899.937744,737.995117 
	C1898.024536,740.022949 1895.114380,741.754639 1894.405640,744.140381 
	C1892.932983,749.096985 1889.836426,750.186218 1885.404419,750.017944 
	C1882.409546,749.904175 1879.406616,749.999878 1876.407349,749.999878 
	C1289.540894,750.000061 702.674561,749.990112 115.808167,750.079956 
	C105.450172,750.081543 95.256950,750.686279 86.719589,742.075500 
	C80.717140,731.151123 75.432762,720.302307 70.073303,708.726685 
z"/>
<path fill="#2D96C8" opacity="1.000000" stroke="none" 
	d="
M1899.921265,663.992798 
	C1896.229370,664.216614 1896.253540,667.058105 1895.706665,669.697571 
	C1894.762573,674.255005 1892.005005,676.523193 1887.138306,676.034912 
	C1884.828735,675.803162 1882.476440,675.999878 1880.143433,675.999878 
	C1278.568237,676.000000 676.993042,676.005615 75.417885,675.918823 
	C69.510124,675.917969 63.602547,674.693054 56.849014,674.019775 
	C52.055130,663.167786 48.107105,652.335571 44.078663,640.751709 
	C44.329433,640.037109 44.788170,639.945740 44.973423,640.129700 
	C52.487789,647.592957 62.035164,645.990540 71.193459,645.990723 
	C672.391724,646.000977 1273.590088,646.000000 1874.788330,646.000000 
	C1876.787842,646.000000 1878.787476,646.002991 1880.786987,645.999512 
	C1892.456787,645.979126 1892.430542,645.969727 1896.402832,634.229919 
	C1896.672363,633.433533 1897.777588,632.919983 1899.242432,633.068481 
	C1899.967529,643.905579 1899.944336,653.949219 1899.921265,663.992798 
z"/>
<path fill="#76B8D5" opacity="1.000000" stroke="none" 
	d="
M1899.948730,333.923157 
	C1899.980347,244.424347 1900.022583,155.107666 1900.110596,64.843605 
	C1910.103149,63.889530 1920.050171,63.882824 1930.916016,63.872169 
	C1931.924927,68.184708 1932.089722,72.501137 1932.093872,76.817703 
	C1932.176025,161.890472 1932.239624,246.963242 1932.509277,332.945831 
	C1932.711426,333.855652 1932.236694,334.039032 1931.084106,334.068634 
	C1919.938232,334.222168 1909.944946,334.346130 1899.951660,334.470062 
	C1899.951660,334.470062 1899.959351,334.105255 1899.948730,333.923157 
z"/>
<path fill="#2985B2" opacity="1.000000" stroke="none" 
	d="
M240.791870,952.013794 
	C224.912033,936.649231 209.811722,921.309387 194.743515,905.938049 
	C191.955597,903.093994 189.297089,900.122986 186.732513,896.092285 
	C197.677322,899.091370 208.956970,897.980225 220.108994,897.980652 
	C772.284180,898.002808 1324.459473,897.999939 1876.634644,897.999878 
	C1879.300537,897.999878 1881.968018,898.057312 1884.632080,897.987488 
	C1892.461792,897.782471 1892.982178,897.252502 1896.135742,889.747986 
	C1896.773193,888.230957 1898.641724,887.231201 1899.942749,885.992981 
	C1899.953491,906.035522 1899.964233,926.078125 1899.953125,947.057373 
	C1898.582764,948.813843 1896.531738,949.319702 1896.001587,950.505432 
	C1893.027954,957.157959 1887.608398,958.436157 1881.160034,958.023682 
	C1878.836914,957.875122 1876.496460,958.000000 1874.163818,958.000000 
	C1346.662109,958.000000 819.160461,957.978394 291.658844,958.097107 
	C274.637268,958.100952 257.787262,958.104675 240.791870,952.013794 
z"/>
<path fill="#2882AE" opacity="1.000000" stroke="none" 
	d="
M1899.632935,335.106750 
	C1909.944946,334.346130 1919.938232,334.222168 1930.843384,334.151123 
	C1931.885864,336.196320 1932.130127,338.188599 1932.130615,340.180908 
	C1932.142822,401.505310 1932.131104,462.829712 1931.104736,525.080933 
	C1928.783081,526.006165 1927.479004,526.032349 1926.176514,525.998474 
	C1916.755371,525.753662 1906.939941,524.470642 1901.937622,535.539368 
	C1901.771484,535.906738 1900.738525,535.882263 1900.109619,536.040466 
	C1900.063965,534.527649 1900.018311,533.014893 1899.940674,530.745544 
	C1899.930908,515.279297 1899.953125,500.569611 1899.939209,484.921265 
	C1899.933716,460.610016 1899.964478,437.237366 1899.959717,412.926697 
	C1899.951782,392.615112 1899.979736,373.241577 1899.970703,352.930481 
	C1899.571777,349.090881 1899.029541,346.196686 1898.902588,343.284424 
	C1898.793457,340.781494 1899.158691,338.257904 1899.632935,335.106750 
z"/>
<path fill="#2678A0" opacity="1.000000" stroke="none" 
	d="
M1900.082031,536.973511 
	C1900.738525,535.882263 1901.771484,535.906738 1901.937622,535.539368 
	C1906.939941,524.470642 1916.755371,525.753662 1926.176514,525.998474 
	C1927.479004,526.032349 1928.783081,526.006165 1930.990723,526.013794 
	C1931.977783,576.729553 1932.060669,627.439392 1931.111816,679.077759 
	C1926.457397,680.005310 1922.834961,679.996460 1919.212402,680.004761 
	C1908.307129,680.029663 1908.653564,680.143127 1905.315674,690.567810 
	C1904.280029,693.802124 1905.872559,699.175781 1900.109253,700.023926 
	C1900.080078,699.684814 1900.050781,699.345703 1899.969971,698.498413 
	C1899.939697,687.281555 1899.960938,676.572876 1899.951782,664.928467 
	C1899.944336,653.949219 1899.967529,643.905579 1899.959595,632.927979 
	C1899.955200,615.285522 1899.981934,598.576965 1899.978516,580.930786 
	C1899.983643,565.964233 1900.019043,551.935364 1900.082031,536.973511 
z"/>
<path fill="#247198" opacity="1.000000" stroke="none" 
	d="
M1900.079346,700.958008 
	C1905.872559,699.175781 1904.280029,693.802124 1905.315674,690.567810 
	C1908.653564,680.143127 1908.307129,680.029663 1919.212402,680.004761 
	C1922.834961,679.996460 1926.457397,680.005310 1930.992188,680.009644 
	C1931.994141,728.055664 1932.083618,776.098450 1932.050049,825.072510 
	C1926.636475,826.003357 1921.322754,826.315247 1916.061646,825.922119 
	C1909.731323,825.449036 1904.902344,826.592896 1903.615479,833.851929 
	C1903.485718,834.583984 1902.239136,835.117981 1900.764893,834.942078 
	C1899.991211,819.423523 1899.963623,804.706726 1899.935913,789.989990 
	C1899.373169,779.125549 1898.515869,768.265137 1898.365723,757.394958 
	C1898.284790,751.523315 1899.412476,745.635010 1899.966309,738.874634 
	C1899.974976,725.960754 1900.012207,713.926392 1900.079346,700.958008 
z"/>
<path fill="#2A8BB9" opacity="1.000000" stroke="none" 
	d="
M1899.211426,790.136658 
	C1899.963623,804.706726 1899.991211,819.423523 1900.051514,835.078979 
	C1900.051880,838.146484 1900.019531,840.275208 1899.250244,843.339050 
	C1897.792847,844.914856 1896.681152,845.422302 1896.410889,846.216248 
	C1892.411133,857.969360 1892.437744,857.978882 1880.802368,857.999451 
	C1878.802856,858.002991 1876.803467,858.000000 1874.803955,858.000000 
	C1318.949097,858.000000 763.094299,858.018799 207.239532,857.914856 
	C189.442734,857.911499 171.363754,860.410522 153.997498,854.002441 
	C151.180923,850.799927 147.968796,847.862244 145.616547,844.348816 
	C135.650497,829.463074 125.939919,814.406250 116.062309,798.710815 
	C124.987137,802.266602 134.556641,802.061340 144.224945,802.060242 
	C721.710205,801.992981 1299.195435,802.000000 1876.680664,802.000000 
	C1878.346802,802.000000 1880.014526,802.047913 1881.678833,801.992371 
	C1893.857910,801.586365 1892.676147,804.317871 1896.929565,791.406189 
	C1897.091553,790.914307 1897.951904,790.652405 1899.211426,790.136658 
z"/>
<path fill="#2A89B7" opacity="1.000000" stroke="none" 
	d="
M154.270828,854.627808 
	C171.363754,860.410522 189.442734,857.911499 207.239532,857.914856 
	C763.094299,858.018799 1318.949097,858.000000 1874.803955,858.000000 
	C1876.803467,858.000000 1878.802856,858.002991 1880.802368,857.999451 
	C1892.437744,857.978882 1892.411133,857.969360 1896.410889,846.216248 
	C1896.681152,845.422302 1897.792847,844.914856 1899.229248,844.137451 
	C1899.958496,857.373962 1899.971680,870.747192 1899.963867,885.056702 
	C1898.641724,887.231201 1896.773193,888.230957 1896.135742,889.747986 
	C1892.982178,897.252502 1892.461792,897.782471 1884.632080,897.987488 
	C1881.968018,898.057312 1879.300537,897.999878 1876.634644,897.999878 
	C1324.459473,897.999939 772.284180,898.002808 220.108994,897.980652 
	C208.956970,897.980225 197.677322,899.091370 186.441208,895.491821 
	C185.351151,895.803833 184.829010,895.427429 184.213745,894.441467 
	C174.179840,881.085999 164.361984,868.169556 154.270828,854.627808 
z"/>
</svg>