<svg version="1.1" id="Layer_1" xmlns="http://www.w3.org/2000/svg" xmlns:xlink="http://www.w3.org/1999/xlink" x="0px" y="0px"
	 width="100%" viewBox="0 0 1024 1024" enable-background="new 0 0 1024 1024" xml:space="preserve">
<path fill="#000000" opacity="1.000000" stroke="none" 
	d="
M576.000000,1025.000000 
	C384.000000,1025.000000 192.500000,1025.000000 1.000000,1025.000000 
	C1.000000,683.666687 1.000000,342.333344 1.000000,1.000000 
	C342.333344,1.000000 683.666687,1.000000 1025.000000,1.000000 
	C1025.000000,342.333344 1025.000000,683.666687 1025.000000,1025.000000 
	C875.500000,1025.000000 726.000000,1025.000000 576.000000,1025.000000 
M674.995117,819.995117 
	C674.995117,819.995117 674.982361,819.998901 675.720337,819.993591 
	C677.108398,817.654968 678.496399,815.316406 680.152039,812.319763 
	C683.104248,807.268433 686.056458,802.217102 689.528259,796.959900 
	C689.693970,796.645508 689.859741,796.331055 690.000000,796.000000 
	C690.000000,796.000000 690.023376,796.020996 690.699707,795.788147 
	C691.114868,795.287598 691.697449,794.851929 691.920471,794.276855 
	C696.958130,781.289307 702.584351,768.483459 706.743469,755.218140 
	C709.567993,746.209290 710.809998,736.605469 711.848511,727.167419 
	C712.644104,719.936951 712.048706,712.549622 712.007812,705.232361 
	C711.979065,700.084473 711.842468,694.937195 711.858582,689.486572 
	C711.858582,689.486572 711.893433,689.167847 712.456543,689.012085 
	C712.310669,688.681885 712.164856,688.351685 712.020813,687.982422 
	C712.020813,687.982422 711.982422,687.975159 712.003784,687.041626 
	C712.367065,654.304626 713.072083,621.567017 713.018311,588.830688 
	C712.923645,531.111572 712.303284,473.393402 712.057007,415.674164 
	C712.009705,404.588745 712.959656,393.499603 712.932739,382.413422 
	C712.897339,367.838715 712.559631,353.256134 711.925720,338.695526 
	C711.650879,332.382019 710.911438,325.961456 709.346985,319.854919 
	C704.345947,300.334930 698.732483,280.911804 687.883057,263.691101 
	C680.794373,252.439789 673.413452,241.202835 664.798279,231.126633 
	C654.297729,218.845398 642.153442,208.071732 628.156372,199.598373 
	C616.939026,192.807785 605.763123,186.047333 593.196289,181.894745 
	C586.209106,179.585922 579.447510,176.600388 572.488831,174.196320 
	C569.358154,173.114761 566.013489,172.597794 562.731384,172.021500 
	C556.561157,170.938126 550.365784,169.997696 543.723694,168.223053 
	C541.902344,168.123993 540.079285,167.915604 538.259827,167.943100 
	C523.099609,168.172211 507.879089,166.885117 492.830170,169.936401 
	C488.120056,170.891388 483.309753,171.342209 478.576141,172.194901 
	C475.450043,172.758026 472.276825,173.343414 469.304047,174.415833 
	C462.753082,176.779053 456.297852,179.412811 449.836975,182.018936 
	C443.542389,184.557968 436.770050,186.383652 431.129456,189.971878 
	C420.369324,196.816849 409.105774,202.706650 399.214111,211.276062 
	C391.479279,217.976959 383.784210,224.766769 376.684631,232.055771 
	C370.634979,238.266876 365.249390,245.396393 360.837311,252.867950 
	C354.044250,264.371643 347.302490,276.113556 342.477753,288.509033 
	C338.257874,299.350555 336.204193,311.141327 334.127838,322.680817 
	C332.109528,333.897461 330.181824,345.320801 330.110229,356.665344 
	C329.741516,415.117340 329.980408,473.573212 330.020416,532.027710 
	C330.021790,534.018982 330.163239,536.010071 330.127380,538.931702 
	C330.099548,557.054321 330.038879,575.177002 330.051086,593.299622 
	C330.072784,625.562073 330.138611,657.824585 330.031708,690.997864 
	C330.077576,700.973022 330.123413,710.948181 330.014038,721.786499 
	C330.990753,727.673096 331.794861,733.594849 332.982941,739.438477 
	C334.974640,749.234985 336.752747,759.110596 339.452759,768.719055 
	C343.413544,782.813965 350.916962,795.366638 358.459686,807.763428 
	C361.224396,812.307251 365.395874,815.995178 369.010406,820.787537 
	C372.013611,824.192078 375.016785,827.596680 378.007690,830.992432 
	C378.007690,830.992432 377.998749,830.979980 378.015594,831.692383 
	C379.345459,832.803955 380.675354,833.915588 382.008850,834.991211 
	C382.008850,834.991211 381.972778,834.994568 382.005737,835.751404 
	C385.162964,839.488037 387.710510,844.097900 391.586884,846.804626 
	C405.614349,856.599243 419.916901,866.032043 434.475494,875.018372 
	C440.528290,878.754578 447.432037,881.154480 454.050507,883.918457 
	C459.316833,886.117859 464.639343,888.299133 470.120758,889.830383 
	C474.587036,891.078064 479.475159,890.846985 483.911865,892.162842 
	C492.844299,894.812134 501.866730,896.111877 511.158813,896.025146 
	C521.821777,895.925598 532.488770,896.122742 543.148865,895.920593 
	C545.958130,895.867432 548.752747,894.835632 551.546509,894.218933 
	C554.824036,893.495544 558.074402,892.634338 561.370850,892.015503 
	C565.525757,891.235413 569.732117,890.727234 573.884216,889.934143 
	C576.693604,889.397583 579.593872,888.915344 582.197876,887.807739 
	C588.641357,885.067017 594.731018,881.358215 601.336426,879.162415 
	C615.304626,874.519226 626.563354,865.422607 638.608826,857.611877 
	C640.727234,856.238159 642.206421,853.878540 644.000000,852.000000 
	C644.000000,852.000000 643.974976,851.980347 644.715332,851.985168 
	C651.771240,845.457031 659.019043,839.119873 665.793518,832.311707 
	C668.713074,829.377502 670.652954,825.468506 672.994507,821.993042 
	C672.994507,821.993042 673.002075,822.036804 673.718994,822.005005 
	C674.145691,821.330933 674.572388,820.656799 674.995117,819.995117 
z"/>
<path fill="#C6ECEF" opacity="1.000000" stroke="none" 
	d="
M689.008667,797.165710 
	C686.056458,802.217102 683.104248,807.268433 679.705933,812.763794 
	C677.834045,815.471558 676.408203,817.735229 674.982361,819.998901 
	C674.982361,819.998901 674.995117,819.995117 674.663391,819.985535 
	C673.888489,820.662903 673.445251,821.349854 673.002075,822.036804 
	C673.002075,822.036804 672.994507,821.993042 672.672363,822.021484 
	C671.808289,822.417786 671.183472,822.705200 670.736755,823.165466 
	C663.263306,830.866272 655.778503,838.556824 648.382141,846.331360 
	C646.743896,848.053345 645.435303,850.089050 643.974976,851.980347 
	C643.974976,851.980347 644.000000,852.000000 643.626465,851.923340 
	C641.275146,853.020264 639.249329,854.120605 637.328064,855.380493 
	C629.963440,860.209839 622.939209,865.652466 615.237122,869.857300 
	C576.286316,891.122192 534.953796,898.717346 490.941986,891.151489 
	C453.897766,884.783325 421.573669,868.749878 392.996552,844.691223 
	C389.253662,841.540100 385.644104,838.230652 381.972778,834.994568 
	C381.972778,834.994568 382.008850,834.991211 381.999298,834.660645 
	C380.659424,833.213318 379.329071,832.096680 377.998749,830.979980 
	C377.998749,830.979980 378.007690,830.992432 378.058167,830.613159 
	C377.992920,829.213196 377.877228,828.192444 378.117249,827.226440 
	C380.035278,828.223328 381.661438,829.074646 383.150055,830.121582 
	C401.303284,842.888428 421.846191,847.436279 443.327240,844.605408 
	C469.410004,841.168213 490.918549,828.701233 506.510742,806.863281 
	C515.596375,794.138245 521.993225,780.134827 522.746826,764.637878 
	C523.941406,740.070374 523.841614,715.430603 523.901855,690.820435 
	C523.944946,673.204590 523.168274,655.588013 523.086243,637.970276 
	C522.937561,606.004517 523.017090,574.037476 523.075195,542.071167 
	C523.078308,540.349792 523.760803,538.629517 524.573853,536.775024 
	C564.585388,536.574829 604.150085,536.538696 643.714661,536.429749 
	C665.815308,536.368896 687.915710,536.187134 710.256470,536.122437 
	C710.496826,536.185120 710.989868,536.125793 710.981689,536.586609 
	C710.969666,585.307068 710.953186,633.566650 711.004944,681.826233 
	C711.007141,683.876221 711.642212,685.925537 711.982422,687.975159 
	C711.982422,687.975159 712.020813,687.982422 711.898804,688.278687 
	C711.815735,688.772644 711.854614,688.970276 711.893433,689.167847 
	C711.893433,689.167847 711.858582,689.486572 711.561829,689.997803 
	C710.902893,698.447998 710.068848,706.398926 710.268921,714.323730 
	C710.819336,736.124878 705.790344,756.716125 697.739563,776.744995 
	C695.158264,783.166626 692.594910,789.595459 690.023315,796.020996 
	C690.023376,796.020996 690.000000,796.000000 689.754822,796.105713 
	C689.342651,796.529541 689.175659,796.847595 689.008667,797.165710 
z"/>
<path fill="#6FC0D9" opacity="1.000000" stroke="none" 
	d="
M711.993103,687.508423 
	C711.642212,685.925537 711.007141,683.876221 711.004944,681.826233 
	C710.953186,633.566650 710.969666,585.307068 710.984619,536.108582 
	C711.001526,474.895782 711.051208,414.621735 710.958435,354.347931 
	C710.946655,346.706848 710.976624,338.927429 709.652222,331.448517 
	C699.072998,271.710083 668.846252,225.217361 615.726013,194.750900 
	C587.118591,178.343445 556.035706,170.737717 523.180176,170.466431 
	C524.813232,169.729065 526.325073,169.084824 527.851257,169.048706 
	C533.291870,168.919998 538.737305,168.998032 544.180908,168.997818 
	C550.365784,169.997696 556.561157,170.938126 562.731384,172.021500 
	C566.013489,172.597794 569.358154,173.114761 572.488831,174.196320 
	C579.447510,176.600388 586.209106,179.585922 593.196289,181.894745 
	C605.763123,186.047333 616.939026,192.807785 628.156372,199.598373 
	C642.153442,208.071732 654.297729,218.845398 664.798279,231.126633 
	C673.413452,241.202835 680.794373,252.439789 687.883057,263.691101 
	C698.732483,280.911804 704.345947,300.334930 709.346985,319.854919 
	C710.911438,325.961456 711.650879,332.382019 711.925720,338.695526 
	C712.559631,353.256134 712.897339,367.838715 712.932739,382.413422 
	C712.959656,393.499603 712.009705,404.588745 712.057007,415.674164 
	C712.303284,473.393402 712.923645,531.111572 713.018311,588.830688 
	C713.072083,621.567017 712.367065,654.304626 711.993103,687.508423 
z"/>
<path fill="#4EC9F1" opacity="1.000000" stroke="none" 
	d="
M543.952271,168.610443 
	C538.737305,168.998032 533.291870,168.919998 527.851257,169.048706 
	C526.325073,169.084824 524.813232,169.729065 523.047546,170.623260 
	C522.800293,171.152130 522.443359,171.351807 522.088501,171.226440 
	C521.485291,171.077255 521.237000,171.053421 520.522705,171.001038 
	C511.936707,171.407745 503.744537,171.307480 495.711182,172.387787 
	C478.019989,174.766846 461.019653,179.833817 444.607666,186.907822 
	C409.928223,201.855652 381.912872,224.871597 361.226562,256.455872 
	C356.000519,264.435120 352.301575,273.414581 347.910431,281.965637 
	C347.919983,281.996857 347.937012,281.934021 347.673401,282.133636 
	C346.929260,283.558655 346.448700,284.784088 345.806335,286.280579 
	C345.397858,287.347076 345.151154,288.142517 344.677277,289.173218 
	C344.215179,290.244720 343.980225,291.080933 343.529175,292.195374 
	C342.174011,295.966919 341.034973,299.460205 339.657745,303.222290 
	C338.915344,305.648804 338.411102,307.806549 337.682190,310.252258 
	C337.253632,312.002380 337.049774,313.464508 336.648346,315.137817 
	C336.344666,315.906738 336.238586,316.464478 336.080688,317.391785 
	C335.983307,318.754761 335.937683,319.748169 335.695282,320.904755 
	C335.366058,321.374695 335.233612,321.681488 335.063751,322.359253 
	C334.996643,323.474945 334.966919,324.219757 334.709290,325.234955 
	C334.364624,326.674683 334.247925,327.843994 334.090088,329.384521 
	C334.032196,330.502228 334.015503,331.248718 333.925903,332.332947 
	C333.634338,333.787262 333.415680,334.903809 333.146729,336.485107 
	C333.024323,343.605225 332.952209,350.260620 332.666199,357.232788 
	C332.417969,359.354370 332.383698,361.159180 332.274231,363.428894 
	C332.217957,375.270172 332.236877,386.646545 332.190186,398.474609 
	C332.166718,402.276428 332.208893,405.626465 332.192657,409.414062 
	C332.171387,411.908081 332.208527,413.964539 332.180969,416.483734 
	C332.158447,424.956909 332.200592,432.967316 332.187836,441.379883 
	C332.170166,442.860687 332.207458,443.939362 332.181091,445.428497 
	C332.159760,447.219543 332.202057,448.600098 332.201355,450.334198 
	C332.178253,451.161469 332.198090,451.635193 332.161194,452.504547 
	C332.135773,454.231720 332.167084,455.563293 332.151428,457.360596 
	C332.160797,461.557343 332.217194,465.288300 332.207214,469.386597 
	C332.185974,470.495636 332.231140,471.237366 332.215088,472.432007 
	C332.197144,475.932434 332.240417,478.979919 332.214752,482.488892 
	C332.098724,500.714264 332.051636,518.478149 332.046509,536.536743 
	C331.935181,537.196045 331.781891,537.560608 331.396423,537.921875 
	C330.855499,537.940491 330.547211,537.968079 330.239410,538.001282 
	C330.163239,536.010071 330.021790,534.018982 330.020416,532.027710 
	C329.980408,473.573212 329.741516,415.117340 330.110229,356.665344 
	C330.181824,345.320801 332.109528,333.897461 334.127838,322.680817 
	C336.204193,311.141327 338.257874,299.350555 342.477753,288.509033 
	C347.302490,276.113556 354.044250,264.371643 360.837311,252.867950 
	C365.249390,245.396393 370.634979,238.266876 376.684631,232.055771 
	C383.784210,224.766769 391.479279,217.976959 399.214111,211.276062 
	C409.105774,202.706650 420.369324,196.816849 431.129456,189.971878 
	C436.770050,186.383652 443.542389,184.557968 449.836975,182.018936 
	C456.297852,179.412811 462.753082,176.779053 469.304047,174.415833 
	C472.276825,173.343414 475.450043,172.758026 478.576141,172.194901 
	C483.309753,171.342209 488.120056,170.891388 492.830170,169.936401 
	C507.879089,166.885117 523.099609,168.172211 538.259827,167.943100 
	C540.079285,167.915604 541.902344,168.123993 543.952271,168.610443 
z"/>
<path fill="#6FC0D9" opacity="1.000000" stroke="none" 
	d="
M381.989258,835.372986 
	C385.644104,838.230652 389.253662,841.540100 392.996552,844.691223 
	C421.573669,868.749878 453.897766,884.783325 490.941986,891.151489 
	C534.953796,898.717346 576.286316,891.122192 615.237122,869.857300 
	C622.939209,865.652466 629.963440,860.209839 637.328064,855.380493 
	C639.249329,854.120605 641.275146,853.020264 643.616821,851.910400 
	C642.206421,853.878540 640.727234,856.238159 638.608826,857.611877 
	C626.563354,865.422607 615.304626,874.519226 601.336426,879.162415 
	C594.731018,881.358215 588.641357,885.067017 582.197876,887.807739 
	C579.593872,888.915344 576.693604,889.397583 573.884216,889.934143 
	C569.732117,890.727234 565.525757,891.235413 561.370850,892.015503 
	C558.074402,892.634338 554.824036,893.495544 551.546509,894.218933 
	C548.752747,894.835632 545.958130,895.867432 543.148865,895.920593 
	C532.488770,896.122742 521.821777,895.925598 511.158813,896.025146 
	C501.866730,896.111877 492.844299,894.812134 483.911865,892.162842 
	C479.475159,890.846985 474.587036,891.078064 470.120758,889.830383 
	C464.639343,888.299133 459.316833,886.117859 454.050507,883.918457 
	C447.432037,881.154480 440.528290,878.754578 434.475494,875.018372 
	C419.916901,866.032043 405.614349,856.599243 391.586884,846.804626 
	C387.710510,844.097900 385.162964,839.488037 381.989258,835.372986 
z"/>
<path fill="#6FC0D9" opacity="1.000000" stroke="none" 
	d="
M330.183411,538.466492 
	C330.547211,537.968079 330.855499,537.940491 331.516266,538.385742 
	C331.903076,544.514587 331.947662,550.176147 331.971130,555.837830 
	C332.196075,610.121887 332.485321,664.405823 332.611267,718.690125 
	C332.674225,745.819580 340.282898,770.915283 353.099030,794.479370 
	C357.842773,803.201233 364.051971,811.125977 369.426025,819.579102 
	C369.259216,819.743896 368.925629,820.073486 368.925598,820.073486 
	C365.395874,815.995178 361.224396,812.307251 358.459686,807.763428 
	C350.916962,795.366638 343.413544,782.813965 339.452759,768.719055 
	C336.752747,759.110596 334.974640,749.234985 332.982941,739.438477 
	C331.794861,733.594849 330.990753,727.673096 330.330200,721.027222 
	C330.492920,710.207703 330.339447,700.147339 330.185974,690.087036 
	C330.138611,657.824585 330.072784,625.562073 330.051086,593.299622 
	C330.038879,575.177002 330.099548,557.054321 330.183411,538.466492 
z"/>
<path fill="#6FC0D9" opacity="1.000000" stroke="none" 
	d="
M690.361511,795.904541 
	C692.594910,789.595459 695.158264,783.166626 697.739563,776.744995 
	C705.790344,756.716125 710.819336,736.124878 710.268921,714.323730 
	C710.068848,706.398926 710.902893,698.447998 711.509583,690.149292 
	C711.842468,694.937195 711.979065,700.084473 712.007812,705.232361 
	C712.048706,712.549622 712.644104,719.936951 711.848511,727.167419 
	C710.809998,736.605469 709.567993,746.209290 706.743469,755.218140 
	C702.584351,768.483459 696.958130,781.289307 691.920471,794.276855 
	C691.697449,794.851929 691.114868,795.287598 690.361511,795.904541 
z"/>
<path fill="#6FC0D9" opacity="1.000000" stroke="none" 
	d="
M644.345154,851.982788 
	C645.435303,850.089050 646.743896,848.053345 648.382141,846.331360 
	C655.778503,838.556824 663.263306,830.866272 670.736755,823.165466 
	C671.183472,822.705200 671.808289,822.417786 672.694092,822.026123 
	C670.652954,825.468506 668.713074,829.377502 665.793518,832.311707 
	C659.019043,839.119873 651.771240,845.457031 644.345154,851.982788 
z"/>
<path fill="#6FC0D9" opacity="1.000000" stroke="none" 
	d="
M377.761536,827.171753 
	C377.877228,828.192444 377.992920,829.213196 378.064301,830.617554 
	C375.016785,827.596680 372.013611,824.192078 368.968018,820.430542 
	C368.925629,820.073486 369.259216,819.743896 369.678650,819.788635 
	C372.652557,822.279480 375.207062,824.725647 377.761536,827.171753 
z"/>
<path fill="#4EC9F1" opacity="1.000000" stroke="none" 
	d="
M330.108826,690.542480 
	C330.339447,700.147339 330.492920,710.207703 330.407837,720.595703 
	C330.123413,710.948181 330.077576,700.973022 330.108826,690.542480 
z"/>
<path fill="#6FC0D9" opacity="1.000000" stroke="none" 
	d="
M675.351318,819.996216 
	C676.408203,817.735229 677.834045,815.471558 679.572144,813.092834 
	C678.496399,815.316406 677.108398,817.654968 675.351318,819.996216 
z"/>
<path fill="#6FC0D9" opacity="1.000000" stroke="none" 
	d="
M378.007172,831.336182 
	C379.329071,832.096680 380.659424,833.213318 381.997498,834.678589 
	C380.675354,833.915588 379.345459,832.803955 378.007172,831.336182 
z"/>
<path fill="#6FC0D9" opacity="1.000000" stroke="none" 
	d="
M673.360535,822.020874 
	C673.445251,821.349854 673.888489,820.662903 674.665405,819.979370 
	C674.572388,820.656799 674.145691,821.330933 673.360535,822.020874 
z"/>
<path fill="#6FC0D9" opacity="1.000000" stroke="none" 
	d="
M712.174988,689.089966 
	C711.854614,688.970276 711.815735,688.772644 711.897888,688.298218 
	C712.164856,688.351685 712.310669,688.681885 712.174988,689.089966 
z"/>
<path fill="#6FC0D9" opacity="1.000000" stroke="none" 
	d="
M689.268433,797.062805 
	C689.175659,796.847595 689.342651,796.529541 689.767578,796.114014 
	C689.859741,796.331055 689.693970,796.645508 689.268433,797.062805 
z"/>
<path fill="#01396E" opacity="1.000000" stroke="none" 
	d="
M522.443359,171.351807 
	C522.443359,171.351807 522.800293,171.152130 522.932861,170.995300 
	C556.035706,170.737717 587.118591,178.343445 615.726013,194.750900 
	C668.846252,225.217361 699.072998,271.710083 709.652222,331.448517 
	C710.976624,338.927429 710.946655,346.706848 710.958435,354.347931 
	C711.051208,414.621735 711.001526,474.895782 710.992798,535.647766 
	C710.989868,536.125793 710.496826,536.185120 710.250122,535.809143 
	C707.762024,535.285889 705.520569,535.010803 703.279053,535.009949 
	C645.656250,534.988037 588.033447,534.980042 530.410706,535.052429 
	C528.222351,535.055176 526.035034,535.883118 523.609741,536.397156 
	C523.372314,536.467773 522.958130,536.195801 522.993042,535.713013 
	C523.054321,520.818726 523.080688,506.407288 523.468994,491.934204 
	C524.886719,490.016266 526.696899,488.221039 526.853088,486.291931 
	C527.276855,481.057465 526.895569,475.763763 527.021484,470.498016 
	C527.290161,459.265961 527.544861,448.030731 528.055176,436.808136 
	C528.537109,426.209900 529.738281,415.631958 529.890076,405.034576 
	C530.048767,393.957672 529.013733,382.866669 529.067322,371.784607 
	C529.175049,349.491089 529.682129,327.199615 529.992737,304.906860 
	C530.082397,298.473114 530.287537,292.029388 530.045288,285.605133 
	C529.641174,274.891907 528.865112,264.193176 528.380676,253.482224 
	C528.294495,251.575836 528.600159,249.556046 529.181763,247.734497 
	C530.500793,243.603439 527.503174,237.583405 523.050781,235.537064 
	C522.692078,228.632034 522.152283,222.192627 522.144104,215.752548 
	C522.132874,206.824402 522.521118,197.895737 522.803528,188.530182 
	C522.819824,185.732162 522.770874,183.371262 522.796692,180.576599 
	C522.838135,178.093277 522.804810,176.043701 522.826721,173.723755 
	C522.735779,172.752884 522.589539,172.052338 522.443359,171.351807 
z"/>
<path fill="#FEFDF0" opacity="1.000000" stroke="none" 
	d="
M522.958130,536.195801 
	C522.958130,536.195801 523.372314,536.467773 523.652588,536.555664 
	C523.932861,536.643555 524.127014,536.908752 524.127014,536.908752 
	C523.760803,538.629517 523.078308,540.349792 523.075195,542.071167 
	C523.017090,574.037476 522.937561,606.004517 523.086243,637.970276 
	C523.168274,655.588013 523.944946,673.204590 523.901855,690.820435 
	C523.841614,715.430603 523.941406,740.070374 522.746826,764.637878 
	C521.993225,780.134827 515.596375,794.138245 506.510742,806.863281 
	C490.918549,828.701233 469.410004,841.168213 443.327240,844.605408 
	C421.846191,847.436279 401.303284,842.888428 383.150055,830.121582 
	C381.661438,829.074646 380.035278,828.223328 378.117249,827.226440 
	C375.207062,824.725647 372.652557,822.279480 369.845459,819.623840 
	C364.051971,811.125977 357.842773,803.201233 353.099030,794.479370 
	C340.282898,770.915283 332.674225,745.819580 332.611267,718.690125 
	C332.485321,664.405823 332.196075,610.121887 331.971130,555.837830 
	C331.947662,550.176147 331.903076,544.514587 331.748413,538.389038 
	C331.781891,537.560608 331.935181,537.196045 332.512756,536.586304 
	C338.622955,536.346558 344.308868,536.352051 350.338318,536.568909 
	C354.792053,536.642029 358.902222,536.503784 363.476807,536.375488 
	C372.579376,536.422546 381.217529,536.459595 390.174622,536.600708 
	C390.711029,536.652100 390.928436,536.599487 391.603455,536.573914 
	C417.963196,536.540894 443.865326,536.480835 470.146820,536.604736 
	C474.716949,536.701355 478.907715,536.613892 483.476715,536.557861 
	C486.150848,536.532349 488.446747,536.475342 490.903748,536.568481 
	C491.462952,536.621277 491.861053,536.523926 492.652527,536.457642 
	C501.036835,536.384521 509.027771,536.280151 517.270996,536.272217 
	C517.696960,536.320862 517.870667,536.273132 518.441895,536.342285 
	C520.212280,536.371399 521.585205,536.283569 522.958130,536.195801 
z"/>
<path fill="#063866" opacity="1.000000" stroke="none" 
	d="
M524.573853,536.775024 
	C524.127014,536.908752 523.932861,536.643555 523.890015,536.485046 
	C526.035034,535.883118 528.222351,535.055176 530.410706,535.052429 
	C588.033447,534.980042 645.656250,534.988037 703.279053,535.009949 
	C705.520569,535.010803 707.762024,535.285889 710.009827,535.746460 
	C687.915710,536.187134 665.815308,536.368896 643.714661,536.429749 
	C604.150085,536.538696 564.585388,536.574829 524.573853,536.775024 
z"/>
<path fill="#0692D3" opacity="1.000000" stroke="none" 
	d="
M336.845947,314.926636 
	C337.049774,313.464508 337.253632,312.002380 338.040039,310.182800 
	C339.047058,307.534729 339.471497,305.244110 339.895935,302.953491 
	C341.034973,299.460205 342.174011,295.966919 343.874634,292.174133 
	C344.592316,290.895752 344.748383,289.916840 344.904449,288.937927 
	C345.151154,288.142517 345.397858,287.347076 346.160858,286.194397 
	C347.097107,284.536102 347.517059,283.235077 347.937012,281.934021 
	C347.937012,281.934021 347.919983,281.996857 348.303467,281.935669 
	C350.544403,281.951263 353.722473,281.498596 354.006226,282.206360 
	C354.789215,284.159271 355.039154,286.859955 354.288757,288.795349 
	C351.850372,295.084442 348.870605,301.163666 345.979797,307.589203 
	C348.195923,308.641541 349.996735,309.496674 352.483765,310.677673 
	C346.783386,314.799194 347.088623,318.163879 351.934052,322.079773 
	C353.169006,323.077820 352.964355,326.916321 352.184509,328.983093 
	C351.647461,330.406311 349.030457,331.735016 347.253265,331.863525 
	C342.869324,332.180481 342.235809,334.916321 341.993927,338.318939 
	C341.749542,341.757294 342.373993,344.083038 346.701782,344.121796 
	C350.706482,344.157654 354.132996,345.903870 353.459106,350.709778 
	C352.842285,355.108978 355.134521,355.939362 358.580872,355.992035 
	C360.579834,356.022583 362.580231,356.035461 364.578857,355.996674 
	C367.688202,355.936310 369.646210,357.121765 370.021393,360.470795 
	C370.500000,364.743103 373.384888,364.896912 376.091309,363.093170 
	C379.484344,360.831818 384.342194,360.050964 385.275848,354.809082 
	C385.444214,353.863800 387.128784,352.763885 388.288849,352.496368 
	C392.431732,351.541016 393.045959,348.147705 391.718262,345.575378 
	C388.380432,339.108643 393.500458,337.013550 396.659149,333.473694 
	C399.435516,330.362244 402.143677,326.835754 403.622437,323.006226 
	C405.671967,317.698456 406.605255,311.949921 407.893890,306.361877 
	C408.619751,303.214325 409.099396,300.010010 409.725372,296.853943 
	C409.760742,296.876648 409.688080,296.814148 410.043640,296.814453 
	C415.186859,292.137970 419.974548,287.461182 425.286987,282.271759 
	C426.102966,283.826569 427.125732,285.775330 428.037994,287.513611 
	C430.145630,287.513611 432.146729,287.219452 434.022583,287.578918 
	C437.262177,288.199768 439.716980,288.685028 440.485840,284.079529 
	C440.704865,282.767700 444.247253,281.542816 446.404327,281.227753 
	C447.421112,281.079254 448.882843,283.075012 449.927063,284.285400 
	C450.861298,285.368225 451.499023,286.706757 452.267578,287.932495 
	C453.715729,286.826263 455.307220,285.858978 456.561890,284.565094 
	C457.402710,283.697937 457.478241,281.935303 458.395996,281.324951 
	C461.193878,279.464233 464.233917,277.967712 467.418945,276.196381 
	C467.426300,276.225525 468.193298,277.487701 467.842804,278.199890 
	C466.658142,280.607300 465.077087,282.819672 463.642914,285.114075 
	C467.671082,287.918274 470.792572,287.876160 471.482391,284.476837 
	C472.359497,280.154755 474.845520,279.755554 478.309418,279.972565 
	C480.632782,280.118073 482.978424,280.108154 485.303497,279.978088 
	C488.735931,279.786102 489.989685,281.302155 490.069061,284.707428 
	C490.177002,289.335968 490.770264,293.954590 491.218781,298.571320 
	C491.257355,298.968109 491.769958,299.318878 492.139587,299.789337 
	C493.487701,299.232697 494.764740,298.705383 497.462311,297.591492 
	C497.653320,306.833496 497.985992,315.214844 497.887390,323.591064 
	C497.862793,325.682159 496.249786,327.709137 495.733429,329.853851 
	C495.297729,331.663544 494.550201,334.229645 495.401672,335.371918 
	C498.846558,339.993347 498.961945,341.682587 495.422485,346.487671 
	C494.624115,347.571533 494.472534,349.489655 494.712219,350.907288 
	C495.242493,354.043823 496.819275,357.092224 496.891541,360.201630 
	C497.162384,371.857300 497.017700,383.523132 496.992889,395.185089 
	C496.979584,401.444336 497.948090,407.888977 493.171753,413.210815 
	C492.377197,414.096130 492.194336,415.698334 492.079987,417.000092 
	C491.008484,429.201996 490.563843,441.493835 488.736755,453.578064 
	C487.959839,458.716614 488.117401,463.255920 488.665771,468.363586 
	C489.773132,478.677490 489.187469,489.200623 488.815247,499.620117 
	C488.749756,501.454956 486.686066,503.814484 484.913147,504.865631 
	C481.449768,506.918976 477.005127,507.540344 473.922760,509.968292 
	C466.763702,515.607300 458.943085,512.104980 451.429901,512.623047 
	C448.869843,508.059235 444.358521,505.323975 441.019653,501.493896 
	C439.867218,500.171906 438.908081,498.681396 437.860657,497.267822 
	C436.565826,498.756195 435.260132,500.235291 433.979950,501.736115 
	C433.097656,502.770477 432.398804,504.538269 431.360748,504.756836 
	C427.975342,505.469757 424.457794,505.973969 421.020081,505.836060 
	C419.393982,505.770782 416.493896,504.109863 416.458954,503.093201 
	C416.214020,495.969757 410.395050,498.187775 406.829254,497.285156 
	C404.428558,496.677490 401.617218,497.921600 398.984161,497.959259 
	C391.064636,498.072449 383.141998,498.047455 375.221497,497.977386 
	C372.101135,497.949799 370.460052,499.003326 368.750671,502.034454 
	C366.359467,506.274658 362.415314,509.640900 359.112671,513.360718 
	C358.913483,513.585083 358.516327,513.734436 358.205963,513.743958 
	C354.218506,513.866455 353.958496,516.479797 353.942841,519.623474 
	C353.921600,523.873840 352.706451,527.479248 347.839691,528.686646 
	C346.640411,528.984070 345.736816,530.323669 344.549530,530.852539 
	C342.506927,531.762390 339.136688,533.625305 338.459198,532.949036 
	C336.172577,530.666443 333.422668,527.473511 333.360413,524.574768 
	C333.089630,511.961914 333.768402,499.330719 333.919067,486.704071 
	C333.937592,485.151917 332.855652,483.586639 332.283691,482.027435 
	C332.240417,478.979919 332.197144,475.932434 332.499023,472.357727 
	C332.653961,470.893433 332.463776,469.956360 332.273590,469.019287 
	C332.217194,465.288300 332.160797,461.557343 332.357605,457.114014 
	C332.479858,454.970764 332.348907,453.539856 332.217957,452.108948 
	C332.198090,451.635193 332.178253,451.161469 332.518433,450.234894 
	C332.667175,448.194061 332.455963,446.606049 332.244720,445.018036 
	C332.207458,443.939362 332.170166,442.860687 332.542725,441.246643 
	C333.142914,432.726074 333.344482,424.741058 333.469299,416.754852 
	C333.473022,416.516663 332.671661,416.265900 332.245667,416.020996 
	C332.208527,413.964539 332.171387,411.908081 332.541290,409.284393 
	C334.332733,405.047791 335.305664,401.405090 332.255798,398.022888 
	C332.236877,386.646545 332.217957,375.270172 332.588104,363.313690 
	C332.944824,360.794373 332.912445,358.855164 332.880096,356.915985 
	C332.952209,350.260620 333.024323,343.605225 333.454407,336.392517 
	C333.874542,334.555145 333.936676,333.275177 333.998810,331.995178 
	C334.015503,331.248718 334.032196,330.502228 334.407166,329.298157 
	C334.822662,327.548553 334.879944,326.256531 334.937225,324.964539 
	C334.966919,324.219757 334.996643,323.474945 335.261688,322.200623 
	C335.628723,321.361267 335.760376,321.051422 335.892059,320.741608 
	C335.937683,319.748169 335.983307,318.754761 336.351990,317.334961 
	C336.731995,316.247955 336.788971,315.587311 336.845947,314.926636 
z"/>
<path fill="#088FCD" opacity="1.000000" stroke="none" 
	d="
M409.690002,296.831268 
	C409.099396,300.010010 408.619751,303.214325 407.893890,306.361877 
	C406.605255,311.949921 405.671967,317.698456 403.622437,323.006226 
	C402.143677,326.835754 399.435516,330.362244 396.659149,333.473694 
	C393.500458,337.013550 388.380432,339.108643 391.718262,345.575378 
	C393.045959,348.147705 392.431732,351.541016 388.288849,352.496368 
	C387.128784,352.763885 385.444214,353.863800 385.275848,354.809082 
	C384.342194,360.050964 379.484344,360.831818 376.091309,363.093170 
	C373.384888,364.896912 370.500000,364.743103 370.021393,360.470795 
	C369.646210,357.121765 367.688202,355.936310 364.578857,355.996674 
	C362.580231,356.035461 360.579834,356.022583 358.580872,355.992035 
	C355.134521,355.939362 352.842285,355.108978 353.459106,350.709778 
	C354.132996,345.903870 350.706482,344.157654 346.701782,344.121796 
	C342.373993,344.083038 341.749542,341.757294 341.993927,338.318939 
	C342.235809,334.916321 342.869324,332.180481 347.253265,331.863525 
	C349.030457,331.735016 351.647461,330.406311 352.184509,328.983093 
	C352.964355,326.916321 353.169006,323.077820 351.934052,322.079773 
	C347.088623,318.163879 346.783386,314.799194 352.483765,310.677673 
	C349.996735,309.496674 348.195923,308.641541 345.979797,307.589203 
	C348.870605,301.163666 351.850372,295.084442 354.288757,288.795349 
	C355.039154,286.859955 354.789215,284.159271 354.006226,282.206360 
	C353.722473,281.498596 350.544403,281.951263 348.293945,281.904449 
	C352.301575,273.414581 356.000519,264.435120 361.226562,256.455872 
	C381.912872,224.871597 409.928223,201.855652 444.607666,186.907822 
	C461.019653,179.833817 478.019989,174.766846 495.711182,172.387787 
	C503.744537,171.307480 511.936707,171.407745 520.535767,171.331223 
	C521.600342,172.458008 522.185913,173.226059 522.771484,173.994110 
	C522.804810,176.043701 522.838135,178.093277 522.470337,180.689484 
	C521.377014,183.491455 520.684814,185.746826 519.642456,188.051285 
	C518.132568,189.201935 516.421143,190.092041 515.904358,191.440094 
	C512.980530,199.066666 511.822174,206.917007 513.995789,215.423187 
	C513.994629,217.568405 513.992432,219.284653 513.607422,221.115891 
	C512.818848,222.230927 512.066223,223.228745 512.059692,224.231400 
	C511.978027,236.762619 511.941925,249.295303 512.090820,261.825256 
	C512.107422,263.223450 513.332764,264.607330 514.062134,266.408478 
	C514.084473,271.879425 514.042236,276.939697 513.733276,282.300293 
	C513.644409,287.200378 514.033264,291.803497 513.960815,296.399323 
	C513.734131,310.778107 513.373413,325.155243 512.985962,339.530914 
	C512.726501,349.155518 512.011780,358.778320 512.066345,368.398743 
	C512.183289,389.014832 512.917969,409.628754 512.926941,430.243774 
	C512.935303,449.526154 512.374817,468.809662 511.985016,488.091034 
	C511.736542,500.379669 511.335938,512.665222 511.017822,524.952515 
	C510.898865,529.546753 511.104431,533.971985 517.011597,535.269043 
	C517.011597,535.772766 517.015137,535.974304 517.018738,536.175781 
	C509.027771,536.280151 501.036835,536.384521 492.273743,536.350464 
	C491.248657,536.280884 490.995667,536.349609 490.742676,536.418335 
	C488.446747,536.475342 486.150848,536.532349 483.118713,536.352844 
	C478.177521,536.217834 473.972504,536.319275 469.767487,536.420715 
	C443.865326,536.480835 417.963196,536.540894 391.483459,536.410522 
	C390.555817,536.312195 390.205719,536.404419 389.855652,536.496582 
	C381.217529,536.459595 372.579376,536.422546 363.198059,536.067566 
	C358.301483,535.952271 354.148132,536.154846 349.994781,536.357544 
	C344.308868,536.352051 338.622955,536.346558 332.470795,536.291626 
	C332.051636,518.478149 332.098724,500.714264 332.214722,482.488892 
	C332.855652,483.586639 333.937592,485.151917 333.919067,486.704071 
	C333.768402,499.330719 333.089630,511.961914 333.360413,524.574768 
	C333.422668,527.473511 336.172577,530.666443 338.459198,532.949036 
	C339.136688,533.625305 342.506927,531.762390 344.549530,530.852539 
	C345.736816,530.323669 346.640411,528.984070 347.839691,528.686646 
	C352.706451,527.479248 353.921600,523.873840 353.942841,519.623474 
	C353.958496,516.479797 354.218506,513.866455 358.205963,513.743958 
	C358.516327,513.734436 358.913483,513.585083 359.112671,513.360718 
	C362.415314,509.640900 366.359467,506.274658 368.750671,502.034454 
	C370.460052,499.003326 372.101135,497.949799 375.221497,497.977386 
	C383.141998,498.047455 391.064636,498.072449 398.984161,497.959259 
	C401.617218,497.921600 404.428558,496.677490 406.829254,497.285156 
	C410.395050,498.187775 416.214020,495.969757 416.458954,503.093201 
	C416.493896,504.109863 419.393982,505.770782 421.020081,505.836060 
	C424.457794,505.973969 427.975342,505.469757 431.360748,504.756836 
	C432.398804,504.538269 433.097656,502.770477 433.979950,501.736115 
	C435.260132,500.235291 436.565826,498.756195 437.860657,497.267822 
	C438.908081,498.681396 439.867218,500.171906 441.019653,501.493896 
	C444.358521,505.323975 448.869843,508.059235 451.429901,512.623047 
	C458.943085,512.104980 466.763702,515.607300 473.922760,509.968292 
	C477.005127,507.540344 481.449768,506.918976 484.913147,504.865631 
	C486.686066,503.814484 488.749756,501.454956 488.815247,499.620117 
	C489.187469,489.200623 489.773132,478.677490 488.665771,468.363586 
	C488.117401,463.255920 487.959839,458.716614 488.736755,453.578064 
	C490.563843,441.493835 491.008484,429.201996 492.079987,417.000092 
	C492.194336,415.698334 492.377197,414.096130 493.171753,413.210815 
	C497.948090,407.888977 496.979584,401.444336 496.992889,395.185089 
	C497.017700,383.523132 497.162384,371.857300 496.891541,360.201630 
	C496.819275,357.092224 495.242493,354.043823 494.712219,350.907288 
	C494.472534,349.489655 494.624115,347.571533 495.422485,346.487671 
	C498.961945,341.682587 498.846558,339.993347 495.401672,335.371918 
	C494.550201,334.229645 495.297729,331.663544 495.733429,329.853851 
	C496.249786,327.709137 497.862793,325.682159 497.887390,323.591064 
	C497.985992,315.214844 497.653320,306.833496 497.462311,297.591492 
	C494.764740,298.705383 493.487701,299.232697 492.139587,299.789337 
	C491.769958,299.318878 491.257355,298.968109 491.218781,298.571320 
	C490.770264,293.954590 490.177002,289.335968 490.069061,284.707428 
	C489.989685,281.302155 488.735931,279.786102 485.303497,279.978088 
	C482.978424,280.108154 480.632782,280.118073 478.309418,279.972565 
	C474.845520,279.755554 472.359497,280.154755 471.482391,284.476837 
	C470.792572,287.876160 467.671082,287.918274 463.642914,285.114075 
	C465.077087,282.819672 466.658142,280.607300 467.842804,278.199890 
	C468.193298,277.487701 467.426300,276.225525 467.418945,276.196381 
	C464.233917,277.967712 461.193878,279.464233 458.395996,281.324951 
	C457.478241,281.935303 457.402710,283.697937 456.561890,284.565094 
	C455.307220,285.858978 453.715729,286.826263 452.267578,287.932495 
	C451.499023,286.706757 450.861298,285.368225 449.927063,284.285400 
	C448.882843,283.075012 447.421112,281.079254 446.404327,281.227753 
	C444.247253,281.542816 440.704865,282.767700 440.485840,284.079529 
	C439.716980,288.685028 437.262177,288.199768 434.022583,287.578918 
	C432.146729,287.219452 430.145630,287.513611 428.037994,287.513611 
	C427.125732,285.775330 426.102966,283.826569 425.286987,282.271759 
	C419.974548,287.461182 415.186859,292.137970 410.088989,296.449799 
	C416.296692,281.835632 425.981537,269.993561 438.513977,260.819550 
	C446.200287,255.193024 455.019257,251.140350 463.089722,246.003952 
	C469.875580,241.685089 471.672913,235.402466 468.534241,229.328827 
	C464.408234,221.344711 455.917664,219.062225 446.631866,223.614029 
	C432.989044,230.301559 420.146454,238.081161 409.278168,248.990555 
	C390.860443,267.477905 378.501617,288.906921 375.385162,315.163269 
	C374.458893,322.967072 377.202423,329.807434 382.494751,332.567017 
	C390.661499,336.825409 399.314972,331.629730 402.059082,321.332001 
	C404.259735,313.073700 407.121582,304.991577 409.690002,296.831268 
z"/>
<path fill="#088FCD" opacity="1.000000" stroke="none" 
	d="
M332.180969,416.483734 
	C332.671661,416.265900 333.473022,416.516663 333.469299,416.754852 
	C333.344482,424.741058 333.142914,432.726074 332.597656,440.844482 
	C332.200592,432.967316 332.158447,424.956909 332.180969,416.483734 
z"/>
<path fill="#088FCD" opacity="1.000000" stroke="none" 
	d="
M332.190186,398.474609 
	C335.305664,401.405090 334.332733,405.047791 332.599701,408.846863 
	C332.208893,405.626465 332.166718,402.276428 332.190186,398.474609 
z"/>
<path fill="#1496D0" opacity="1.000000" stroke="none" 
	d="
M339.657776,303.222290 
	C339.471497,305.244110 339.047058,307.534729 338.264740,309.894836 
	C338.411102,307.806549 338.915344,305.648804 339.657776,303.222290 
z"/>
<path fill="#088FCD" opacity="1.000000" stroke="none" 
	d="
M332.666199,357.232788 
	C332.912445,358.855164 332.944824,360.794373 332.663300,362.848755 
	C332.383698,361.159180 332.417969,359.354370 332.666199,357.232788 
z"/>
<path fill="#088FCD" opacity="1.000000" stroke="none" 
	d="
M332.181091,445.428497 
	C332.455963,446.606049 332.667175,448.194061 332.561371,449.881378 
	C332.202057,448.600098 332.159760,447.219543 332.181091,445.428497 
z"/>
<path fill="#1496D0" opacity="1.000000" stroke="none" 
	d="
M334.709290,325.234955 
	C334.879944,326.256531 334.822662,327.548553 334.448334,328.926941 
	C334.247925,327.843994 334.364624,326.674683 334.709290,325.234955 
z"/>
<path fill="#088FCD" opacity="1.000000" stroke="none" 
	d="
M344.677277,289.173218 
	C344.748383,289.916840 344.592316,290.895752 344.090759,291.895905 
	C343.980225,291.080933 344.215179,290.244720 344.677277,289.173218 
z"/>
<path fill="#088FCD" opacity="1.000000" stroke="none" 
	d="
M332.207214,469.386597 
	C332.463776,469.956360 332.653961,470.893433 332.560242,471.904816 
	C332.231140,471.237366 332.185974,470.495636 332.207214,469.386597 
z"/>
<path fill="#1496D0" opacity="1.000000" stroke="none" 
	d="
M333.925903,332.332947 
	C333.936676,333.275177 333.874542,334.555145 333.504700,335.927765 
	C333.415680,334.903809 333.634338,333.787262 333.925903,332.332947 
z"/>
<path fill="#088FCD" opacity="1.000000" stroke="none" 
	d="
M347.673401,282.133636 
	C347.517059,283.235077 347.097107,284.536102 346.322632,285.923340 
	C346.448700,284.784088 346.929260,283.558655 347.673401,282.133636 
z"/>
<path fill="#088FCD" opacity="1.000000" stroke="none" 
	d="
M332.161194,452.504547 
	C332.348907,453.539856 332.479858,454.970764 332.404602,456.648254 
	C332.167084,455.563293 332.135773,454.231720 332.161194,452.504547 
z"/>
<path fill="#1496D0" opacity="1.000000" stroke="none" 
	d="
M522.826721,173.723755 
	C522.185913,173.226059 521.600342,172.458008 521.001709,171.359772 
	C521.237000,171.053421 521.485291,171.077255 522.088501,171.226440 
	C522.589539,172.052338 522.735779,172.752884 522.826721,173.723755 
z"/>
<path fill="#1496D0" opacity="1.000000" stroke="none" 
	d="
M336.648346,315.137817 
	C336.788971,315.587311 336.731995,316.247955 336.403778,316.965424 
	C336.238586,316.464478 336.344666,315.906738 336.648346,315.137817 
z"/>
<path fill="#1496D0" opacity="1.000000" stroke="none" 
	d="
M335.695282,320.904755 
	C335.760376,321.051422 335.628723,321.361267 335.299103,321.829712 
	C335.233612,321.681488 335.366058,321.374695 335.695282,320.904755 
z"/>
<path fill="#063866" opacity="1.000000" stroke="none" 
	d="
M523.106934,236.002396 
	C527.503174,237.583405 530.500793,243.603439 529.181763,247.734497 
	C528.600159,249.556046 528.294495,251.575836 528.380676,253.482224 
	C528.865112,264.193176 529.641174,274.891907 530.045288,285.605133 
	C530.287537,292.029388 530.082397,298.473114 529.992737,304.906860 
	C529.682129,327.199615 529.175049,349.491089 529.067322,371.784607 
	C529.013733,382.866669 530.048767,393.957672 529.890076,405.034576 
	C529.738281,415.631958 528.537109,426.209900 528.055176,436.808136 
	C527.544861,448.030731 527.290161,459.265961 527.021484,470.498016 
	C526.895569,475.763763 527.276855,481.057465 526.853088,486.291931 
	C526.696899,488.221039 524.886719,490.016266 523.414856,491.468384 
	C523.049744,465.021729 523.100769,438.979309 523.391907,412.610626 
	C523.484009,405.881226 523.336060,399.478058 523.145996,392.720459 
	C523.134705,391.892029 523.165527,391.418060 523.364014,390.787537 
	C523.419373,390.106049 523.307007,389.581146 523.140320,388.595703 
	C523.120605,384.731445 523.155212,381.327667 523.421509,377.594177 
	C523.768860,370.457275 524.008911,363.649078 523.954651,356.843231 
	C523.920715,352.582031 523.443909,348.324402 523.115417,343.629456 
	C523.097778,341.441162 523.130615,339.688599 523.398682,337.613464 
	C523.470947,333.213623 523.307983,329.136292 523.095337,324.589020 
	C523.066101,294.746826 523.086487,265.374603 523.106934,236.002396 
z"/>
<path fill="#2E90C3" opacity="1.000000" stroke="none" 
	d="
M523.151855,412.936859 
	C523.100769,438.979309 523.049744,465.021729 523.052856,491.530029 
	C523.080688,506.407288 523.054321,520.818726 522.993042,535.712952 
	C521.585205,536.283569 520.212280,536.371399 518.409546,536.033142 
	C517.967041,535.400635 517.954346,535.194214 518.280762,534.981934 
	C519.069702,534.954468 519.519409,534.932922 520.356689,534.821411 
	C521.166321,533.234314 521.981812,531.726318 521.940674,530.242188 
	C521.784668,524.611633 521.043640,518.987366 521.070007,513.363342 
	C521.310181,462.109955 521.799866,410.857483 521.924438,359.604004 
	C521.976868,338.033936 521.156799,316.463135 521.040894,294.891022 
	C520.869080,262.920105 520.970886,230.947708 520.967773,198.524399 
	C520.980591,195.050522 520.981934,192.028198 521.276367,189.002167 
	C521.959045,188.988068 522.348633,188.977692 522.738281,188.967316 
	C522.521118,197.895737 522.132874,206.824402 522.144104,215.752548 
	C522.152283,222.192627 522.692078,228.632034 523.050781,235.537064 
	C523.086487,265.374603 523.066101,294.746826 523.035156,325.042694 
	C523.070923,329.956238 523.117188,333.946136 523.163452,337.936035 
	C523.130615,339.688599 523.097778,341.441162 523.056335,344.088348 
	C523.095093,355.963287 523.142456,366.943573 523.189819,377.923889 
	C523.155212,381.327667 523.120605,384.731445 523.085754,388.908630 
	C523.122437,390.102722 523.159363,390.523407 523.196289,390.944061 
	C523.165527,391.418060 523.134705,391.892029 523.084106,393.177856 
	C523.093506,400.305420 523.122681,406.621124 523.151855,412.936859 
z"/>
<path fill="#1496D0" opacity="1.000000" stroke="none" 
	d="
M522.803528,188.530197 
	C522.348633,188.977692 521.959045,188.988068 521.070435,188.878906 
	C520.315491,188.555206 520.122559,188.302826 519.992676,188.002213 
	C520.684814,185.746826 521.377014,183.491455 522.395569,181.123215 
	C522.770874,183.371262 522.819824,185.732162 522.803528,188.530197 
z"/>
<path fill="#6FC0D9" opacity="1.000000" stroke="none" 
	d="
M350.338318,536.568848 
	C354.148132,536.154846 358.301483,535.952271 362.733612,536.057617 
	C358.902222,536.503784 354.792053,536.642029 350.338318,536.568848 
z"/>
<path fill="#6FC0D9" opacity="1.000000" stroke="none" 
	d="
M470.146820,536.604736 
	C473.972504,536.319275 478.177521,536.217834 482.740540,536.321411 
	C478.907715,536.613892 474.716949,536.701355 470.146820,536.604736 
z"/>
<path fill="#6FC0D9" opacity="1.000000" stroke="none" 
	d="
M490.903748,536.568481 
	C490.995667,536.349609 491.248657,536.280884 491.880371,536.319336 
	C491.861053,536.523926 491.462952,536.621277 490.903748,536.568481 
z"/>
<path fill="#6FC0D9" opacity="1.000000" stroke="none" 
	d="
M390.174622,536.600708 
	C390.205719,536.404419 390.555817,536.312195 391.025879,536.383423 
	C390.928436,536.599487 390.711029,536.652100 390.174622,536.600708 
z"/>
<path fill="#1496D0" opacity="1.000000" stroke="none" 
	d="
M517.941650,534.987793 
	C517.954346,535.194214 517.967041,535.400635 518.012024,535.916199 
	C517.870667,536.273132 517.696960,536.320862 517.270996,536.272217 
	C517.015137,535.974304 517.011597,535.772766 517.243225,535.275452 
	C517.478455,534.979614 517.941650,534.987793 517.941650,534.987793 
z"/>
<path fill="#F7FCF3" opacity="1.000000" stroke="none" 
	d="
M409.725372,296.853943 
	C407.121582,304.991577 404.259735,313.073700 402.059082,321.332001 
	C399.314972,331.629730 390.661499,336.825409 382.494751,332.567017 
	C377.202423,329.807434 374.458893,322.967072 375.385162,315.163269 
	C378.501617,288.906921 390.860443,267.477905 409.278168,248.990555 
	C420.146454,238.081161 432.989044,230.301559 446.631866,223.614029 
	C455.917664,219.062225 464.408234,221.344711 468.534241,229.328827 
	C471.672913,235.402466 469.875580,241.685089 463.089722,246.003952 
	C455.019257,251.140350 446.200287,255.193024 438.513977,260.819550 
	C425.981537,269.993561 416.296692,281.835632 409.733459,296.449493 
	C409.688080,296.814148 409.760742,296.876648 409.725372,296.853943 
z"/>
<path fill="#1496D0" opacity="1.000000" stroke="none" 
	d="
M520.956299,198.975952 
	C520.970886,230.947708 520.869080,262.920105 521.040894,294.891022 
	C521.156799,316.463135 521.976868,338.033936 521.924438,359.604004 
	C521.799866,410.857483 521.310181,462.109955 521.070007,513.363342 
	C521.043640,518.987366 521.784668,524.611633 521.940674,530.242188 
	C521.981812,531.726318 521.166321,533.234314 520.361816,534.430786 
	C519.472656,529.426147 519.079285,524.706299 518.427490,520.022461 
	C517.747253,515.134399 516.243652,510.296661 516.110168,505.409332 
	C515.771240,492.999786 516.067871,480.574249 515.963196,468.156311 
	C515.920044,463.034424 515.164551,457.904053 515.340515,452.798492 
	C515.545227,446.858093 516.879089,440.941925 516.895996,435.012878 
	C516.926392,424.389771 516.071350,413.764648 516.080750,403.140808 
	C516.090820,391.683441 516.989502,380.225006 516.933105,368.769806 
	C516.800476,341.819122 516.370422,314.869385 515.913330,287.921753 
	C515.879761,285.937592 514.665405,283.973450 514.000000,282.000000 
	C514.042236,276.939697 514.084473,271.879425 514.296387,266.138367 
	C514.309998,262.687225 514.030762,259.917389 514.018799,257.146423 
	C513.966797,245.098099 513.992676,233.049454 513.990234,221.000916 
	C513.992432,219.284653 513.994629,217.568405 514.324463,215.222153 
	C515.103027,212.776871 515.510315,210.949402 516.013794,209.148804 
	C517.044373,205.463150 515.933105,200.724014 520.956299,198.975952 
z"/>
<path fill="#0692D3" opacity="1.000000" stroke="none" 
	d="
M513.733276,282.300293 
	C514.665405,283.973450 515.879761,285.937592 515.913330,287.921753 
	C516.370422,314.869385 516.800476,341.819122 516.933105,368.769806 
	C516.989502,380.225006 516.090820,391.683441 516.080750,403.140808 
	C516.071350,413.764648 516.926392,424.389771 516.895996,435.012878 
	C516.879089,440.941925 515.545227,446.858093 515.340515,452.798492 
	C515.164551,457.904053 515.920044,463.034424 515.963196,468.156311 
	C516.067871,480.574249 515.771240,492.999786 516.110168,505.409332 
	C516.243652,510.296661 517.747253,515.134399 518.427490,520.022461 
	C519.079285,524.706299 519.472656,529.426147 519.974365,534.520752 
	C519.519409,534.932922 519.069702,534.954468 518.280762,534.981934 
	C517.941650,534.987793 517.478455,534.979614 517.246826,534.973145 
	C511.104431,533.971985 510.898865,529.546753 511.017822,524.952515 
	C511.335938,512.665222 511.736542,500.379669 511.985016,488.091034 
	C512.374817,468.809662 512.935303,449.526154 512.926941,430.243774 
	C512.917969,409.628754 512.183289,389.014832 512.066345,368.398743 
	C512.011780,358.778320 512.726501,349.155518 512.985962,339.530914 
	C513.373413,325.155243 513.734131,310.778107 513.960815,296.399323 
	C514.033264,291.803497 513.644409,287.200378 513.733276,282.300293 
z"/>
<path fill="#0692D3" opacity="1.000000" stroke="none" 
	d="
M520.967773,198.524399 
	C515.933105,200.724014 517.044373,205.463150 516.013794,209.148804 
	C515.510315,210.949402 515.103027,212.776871 514.323486,214.793198 
	C511.822174,206.917007 512.980530,199.066666 515.904358,191.440094 
	C516.421143,190.092041 518.132568,189.201935 519.642456,188.051285 
	C520.122559,188.302826 520.315491,188.555206 520.777405,188.882629 
	C520.981934,192.028198 520.980591,195.050522 520.967773,198.524399 
z"/>
<path fill="#0692D3" opacity="1.000000" stroke="none" 
	d="
M513.607422,221.115891 
	C513.992676,233.049454 513.966797,245.098099 514.018799,257.146423 
	C514.030762,259.917389 514.309998,262.687225 514.231873,265.727722 
	C513.332764,264.607330 512.107422,263.223450 512.090820,261.825256 
	C511.941925,249.295303 511.978027,236.762619 512.059692,224.231400 
	C512.066223,223.228745 512.818848,222.230927 513.607422,221.115891 
z"/>
<path fill="#01396E" opacity="1.000000" stroke="none" 
	d="
M523.421570,377.594177 
	C523.142456,366.943573 523.095093,355.963287 523.106812,344.524048 
	C523.443909,348.324402 523.920715,352.582031 523.954651,356.843231 
	C524.008911,363.649078 523.768860,370.457275 523.421570,377.594177 
z"/>
<path fill="#01396E" opacity="1.000000" stroke="none" 
	d="
M523.391968,412.610626 
	C523.122681,406.621124 523.093506,400.305420 523.126221,393.532288 
	C523.336060,399.478058 523.484009,405.881226 523.391968,412.610626 
z"/>
<path fill="#01396E" opacity="1.000000" stroke="none" 
	d="
M523.398682,337.613464 
	C523.117188,333.946136 523.070923,329.956238 523.084839,325.512665 
	C523.307983,329.136292 523.470947,333.213623 523.398682,337.613464 
z"/>
<path fill="#01396E" opacity="1.000000" stroke="none" 
	d="
M523.364014,390.787537 
	C523.159363,390.523407 523.122437,390.102722 523.140076,389.369141 
	C523.307007,389.581146 523.419373,390.106049 523.364014,390.787537 
z"/>
</svg>