<svg version="1.1" id="Layer_1" xmlns="http://www.w3.org/2000/svg" xmlns:xlink="http://www.w3.org/1999/xlink" x="0px" y="0px"
	 width="100%" viewBox="0 0 1024 1024" enable-background="new 0 0 1024 1024" xml:space="preserve">
<path fill="#000000" opacity="1.000000" stroke="none" 
	d="
M698.000000,1025.000000 
	C465.333344,1025.000000 233.166672,1025.000000 1.000000,1025.000000 
	C1.000000,683.666687 1.000000,342.333344 1.000000,1.000000 
	C342.333344,1.000000 683.666687,1.000000 1025.000000,1.000000 
	C1025.000000,342.333344 1025.000000,683.666687 1025.000000,1025.000000 
	C916.166687,1025.000000 807.333313,1025.000000 698.000000,1025.000000 
M624.969421,284.416351 
	C624.656494,284.254333 624.343628,284.092285 624.010437,283.997070 
	C624.010437,283.997070 624.067017,283.956177 624.059204,283.245209 
	C620.343933,279.591766 616.820618,275.710052 612.844727,272.366608 
	C610.267151,270.199066 607.028687,268.817566 603.461121,266.803070 
	C600.655701,264.863464 597.850281,262.923859 595.056152,260.197723 
	C590.523071,254.179123 584.194092,251.301041 576.672424,249.277481 
	C575.114075,248.847687 573.555786,248.417877 571.643799,247.918610 
	C571.643799,247.918610 571.284546,247.889587 571.089478,247.163956 
	C566.730347,245.475800 562.371155,243.787643 557.189270,242.013809 
	C551.456238,240.681915 545.723206,239.350006 539.201843,237.916245 
	C538.145264,237.965393 537.088745,238.014526 535.535339,237.793427 
	C535.326294,237.482758 535.117249,237.172089 534.602661,236.116669 
	C533.596741,235.740677 532.607056,235.094299 531.582336,235.032974 
	C525.384033,234.661987 519.177795,234.424774 512.095398,234.003418 
	C508.411774,234.389053 504.728149,234.774673 500.412384,235.016647 
	C499.909851,235.283783 499.407288,235.550934 498.292419,235.972549 
	C497.819885,236.300644 497.347382,236.628738 495.968750,236.991455 
	C488.031982,237.252487 480.061890,236.915466 472.413635,239.909958 
	C467.190796,241.954819 461.444611,242.851089 456.496979,245.369888 
	C447.396027,250.003128 438.714386,255.459198 429.852081,260.562073 
	C417.625214,267.602264 407.975250,277.708618 398.780151,288.044708 
	C391.767273,295.927826 385.412811,304.652252 380.183228,313.811859 
	C369.993774,331.658539 366.641113,351.493073 365.980804,371.823730 
	C365.567078,384.562012 364.956940,397.306274 365.014862,410.045227 
	C365.202209,451.264130 365.656952,492.481842 366.017792,533.699951 
	C366.022095,534.193604 366.146973,534.686157 366.170654,536.092957 
	C366.185638,544.998230 366.200623,553.903442 366.026337,563.764587 
	C366.030579,588.496948 366.021423,613.229309 366.074982,637.961609 
	C366.077942,639.335999 366.600250,640.709290 366.981812,643.004700 
	C367.167023,649.146606 366.451385,655.479126 367.702728,661.395508 
	C371.813080,680.829468 379.046661,698.983643 389.940491,715.855042 
	C397.535248,727.617065 406.282593,738.239319 417.025391,746.831482 
	C426.597534,754.487427 437.126984,761.223450 448.005585,766.881958 
	C456.798798,771.455627 466.560486,774.539551 476.223938,776.963257 
	C485.884277,779.386169 495.917816,780.986328 505.857788,781.451843 
	C516.919128,781.969788 528.115295,782.660095 539.078979,778.939453 
	C546.427673,776.445618 554.638794,776.308777 561.778503,773.421936 
	C576.780884,767.356018 591.664978,760.767944 604.078918,749.907776 
	C610.077332,744.660156 616.965637,740.133423 621.894470,734.024475 
	C630.662109,723.157532 639.268860,712.129883 645.234741,699.166504 
	C652.297729,683.819153 658.704285,668.492737 659.697937,650.750610 
	C659.818298,648.437317 660.044312,646.123901 660.043518,643.810669 
	C660.022095,582.094116 659.955994,520.377502 659.976685,458.660919 
	C659.978333,453.750732 660.552246,448.840698 660.975281,443.012787 
	C660.980530,421.332977 661.003113,399.653168 660.948242,377.973511 
	C660.944885,376.652618 660.328247,375.333313 659.932861,373.077484 
	C660.251404,362.884674 660.055054,352.705566 657.025330,342.875671 
	C654.995239,336.289124 652.610352,329.794586 650.048401,323.393250 
	C645.900757,313.030151 640.395386,303.425659 632.999756,294.992279 
	C632.999756,294.992279 633.069153,294.965637 632.965149,294.422089 
	C632.652954,294.258179 632.340698,294.094238 632.009766,293.995728 
	C632.009766,293.995728 632.068726,293.961700 632.066223,293.237823 
	C629.731323,290.473511 627.396423,287.709198 624.997131,284.989014 
	C624.997131,284.989014 625.069092,284.961151 624.969421,284.416351 
z"/>
<path fill="#C7EAF5" opacity="1.000000" stroke="none" 
	d="
M366.215607,562.808716 
	C366.200623,553.903442 366.185638,544.998230 366.367798,535.248901 
	C366.649445,529.755127 367.031219,525.086182 366.734070,520.460938 
	C366.442688,515.924500 368.343262,514.468506 372.531616,514.910522 
	C374.009979,515.066650 375.519928,514.918274 377.015472,514.916748 
	C422.214478,514.870911 467.413483,514.826050 513.032959,514.929077 
	C514.311890,515.214783 515.170410,515.352417 516.219910,515.809326 
	C517.325195,516.404602 518.239197,516.921143 519.153809,516.921997 
	C563.816162,516.962463 608.478638,516.971436 653.140930,516.894714 
	C654.412354,516.892578 655.682129,515.926819 657.210754,515.279907 
	C657.647766,515.077393 657.826599,515.005371 658.196289,515.014648 
	C658.387146,515.095825 658.801575,515.111450 658.868713,515.568848 
	C658.942871,561.113037 658.949951,606.199890 658.956970,651.286682 
	C658.704285,668.492737 652.297729,683.819153 645.234741,699.166504 
	C639.268860,712.129883 630.662109,723.157532 621.894470,734.024475 
	C616.965637,740.133423 610.077332,744.660156 604.078918,749.907776 
	C591.664978,760.767944 576.780884,767.356018 561.778503,773.421936 
	C554.638794,776.308777 546.427673,776.445618 539.078979,778.939453 
	C528.115295,782.660095 516.919128,781.969788 505.857788,781.451843 
	C495.917816,780.986328 485.884277,779.386169 476.223938,776.963257 
	C466.560486,774.539551 456.798798,771.455627 448.005585,766.881958 
	C437.126984,761.223450 426.597534,754.487427 417.025391,746.831482 
	C406.282593,738.239319 397.535248,727.617065 389.940491,715.855042 
	C379.046661,698.983643 371.813080,680.829468 367.702728,661.395508 
	C366.451385,655.479126 367.167023,649.146606 366.963348,642.071289 
	C366.869293,616.832581 366.803986,592.527222 366.697174,568.222107 
	C366.689240,566.416931 366.383118,564.613159 366.215607,562.808716 
M444.022369,761.526306 
	C449.939362,764.153320 455.726654,767.138733 461.799164,769.335876 
	C476.382996,774.612549 491.298950,778.339172 507.011414,778.158569 
	C510.970490,778.113159 512.103882,776.921631 512.122498,773.001099 
	C512.301331,735.367737 512.733643,697.735535 512.926086,660.102173 
	C512.970215,651.468567 512.107056,642.830811 512.135132,634.196472 
	C512.172424,622.727844 512.932983,611.260315 512.911011,599.793152 
	C512.883911,585.658691 512.161560,571.525635 512.134338,557.391174 
	C512.112061,545.819275 512.634949,534.245300 512.988220,522.674438 
	C513.090820,519.314453 512.765991,516.861267 508.322723,516.902710 
	C463.194275,517.323303 418.064789,517.634277 372.935242,517.922241 
	C370.294403,517.939087 368.981262,518.660095 368.952911,521.586853 
	C368.696716,548.052185 368.182129,574.515869 368.083923,600.981384 
	C368.032074,614.946045 368.548035,628.917053 369.029999,642.877502 
	C369.218292,648.331360 369.318176,653.946106 370.679718,659.169189 
	C373.666626,670.627686 377.073639,682.008301 380.969177,693.190674 
	C386.243835,708.331970 395.375977,721.233398 406.325867,732.770264 
	C417.143463,744.167786 430.075836,752.942200 444.022369,761.526306 
z"/>
<path fill="#06A0EE" opacity="1.000000" stroke="none" 
	d="
M512.612488,514.780945 
	C467.413483,514.826050 422.214478,514.870911 377.015472,514.916748 
	C375.519928,514.918274 374.009979,515.066650 372.531616,514.910522 
	C368.343262,514.468506 366.442688,515.924500 366.734070,520.460938 
	C367.031219,525.086182 366.649445,529.755127 366.390228,534.792114 
	C366.146973,534.686157 366.022095,534.193604 366.017792,533.699951 
	C365.656952,492.481842 365.202209,451.264130 365.014862,410.045227 
	C364.956940,397.306274 365.567078,384.562012 365.980804,371.823730 
	C366.641113,351.493073 369.993774,331.658539 380.183228,313.811859 
	C385.412811,304.652252 391.767273,295.927826 398.780151,288.044708 
	C407.975250,277.708618 417.625214,267.602264 429.852081,260.562073 
	C438.714386,255.459198 447.396027,250.003128 456.496979,245.369888 
	C461.444611,242.851089 467.190796,241.954819 472.413635,239.909958 
	C480.061890,236.915466 488.031982,237.252487 496.734894,236.949478 
	C497.968933,236.544357 498.436829,236.181198 498.904755,235.818069 
	C499.407288,235.550934 499.909851,235.283783 500.977509,235.314331 
	C505.849762,238.986221 509.483978,237.124741 512.974182,234.142822 
	C519.177795,234.424774 525.384033,234.661987 531.582336,235.032974 
	C532.607056,235.094299 533.596741,235.740677 534.304321,236.585907 
	C529.700439,236.975433 525.394897,236.895737 520.764038,236.602844 
	C517.953186,236.926270 515.467712,237.462860 512.898926,238.462311 
	C512.871826,248.950256 512.928101,258.975342 512.916382,269.465088 
	C512.909241,277.619293 512.970093,285.308838 512.965088,293.395752 
	C512.946289,294.862915 512.993469,295.932709 512.970764,297.466705 
	C512.907837,315.395416 512.921265,332.859924 512.920715,350.324432 
	C512.918945,404.546906 512.911926,458.769409 512.819458,513.283386 
	C512.692078,513.976929 512.652283,514.378906 512.612488,514.780945 
M443.500000,512.000000 
	C464.023224,512.000061 484.546875,511.933441 505.069275,512.063782 
	C508.611176,512.086243 510.058685,511.271027 510.082458,507.366852 
	C510.265533,477.313995 510.765564,447.263062 510.966949,417.210205 
	C511.125458,393.556854 510.998779,369.901550 510.998749,346.247131 
	C510.998749,333.988831 511.117584,321.728943 510.955719,309.472778 
	C510.852722,301.675598 510.310822,293.884827 510.006561,286.089600 
	C509.715179,278.623688 509.287994,271.156128 509.271912,263.688538 
	C509.257965,257.222870 509.797028,250.757553 509.948517,244.288727 
	C509.980133,242.938690 509.384705,241.573959 509.078247,240.215988 
	C508.544739,240.265579 508.011261,240.315186 507.477783,240.364777 
	C507.318207,242.217621 507.148438,244.069672 507.000793,245.923462 
	C506.490692,252.327377 506.992249,259.024689 505.231445,265.062866 
	C502.979919,272.784027 498.957092,279.997223 495.554871,287.363403 
	C495.127319,288.289093 493.939453,289.137329 492.923096,289.471375 
	C487.681976,291.193939 482.013824,291.928253 478.498505,297.089661 
	C477.961487,297.878113 476.021057,297.993683 474.748535,297.943420 
	C471.363525,297.809814 469.638794,299.171875 470.016357,302.636017 
	C470.658875,308.531494 467.618774,312.782043 463.815063,316.665497 
	C459.395782,321.177338 454.395203,325.221313 450.554199,330.172272 
	C445.804810,336.294098 439.836761,341.863434 439.924988,350.795654 
	C440.148010,373.380890 439.999115,395.969788 439.999054,418.557220 
	C439.999023,430.054810 440.097687,441.553589 439.960449,453.049530 
	C439.881805,459.637573 438.350037,465.831757 434.233643,471.261780 
	C432.482269,473.572021 431.129730,476.228302 429.871979,478.859253 
	C427.771301,483.253479 425.958618,487.784637 423.898865,492.199463 
	C422.283569,495.661652 423.695221,498.016235 426.913055,498.637207 
	C429.945190,499.222412 431.419739,500.135193 430.991852,503.381134 
	C430.495087,507.149933 427.618134,505.660553 425.568512,505.992828 
	C419.089508,507.043182 412.606354,508.067596 406.124786,509.102051 
	C406.186737,509.995697 406.248688,510.889343 406.310608,511.782990 
	C418.356689,512.246582 430.438721,511.885345 443.500000,512.000000 
M423.759094,470.500214 
	C433.042847,469.836395 436.898712,465.817444 436.906891,456.548737 
	C436.938232,421.078156 437.038879,385.606842 436.821808,350.137604 
	C436.782349,343.687927 438.471283,338.607544 443.120789,334.098572 
	C449.913177,327.511505 456.351257,320.557434 462.895355,313.716736 
	C465.620087,310.868439 467.948090,307.669647 466.657562,303.468658 
	C465.138336,298.522980 461.678894,295.346954 456.674500,293.845215 
	C451.837341,292.393585 447.821625,293.729614 444.425629,297.272919 
	C436.017212,306.046112 427.607086,314.817902 419.240021,323.630524 
	C415.199890,327.885803 412.814301,332.866943 412.779144,338.869568 
	C412.698273,352.687805 412.494141,366.505463 412.454498,380.323700 
	C412.382385,405.469330 412.363892,430.615173 412.386261,455.760895 
	C412.393829,464.277069 415.505280,468.441711 423.759094,470.500214 
z"/>
<path fill="#042F6C" opacity="1.000000" stroke="none" 
	d="
M512.984436,269.000427 
	C512.928101,258.975342 512.871826,248.950256 513.333496,238.463318 
	C516.264099,237.606323 518.676758,237.211182 521.089417,236.816025 
	C525.394897,236.895737 529.700439,236.975433 534.457092,236.958282 
	C535.117249,237.172089 535.326294,237.482758 536.009399,238.161316 
	C537.652405,238.358826 538.821289,238.188477 539.990173,238.018097 
	C545.723206,239.350006 551.456238,240.681915 557.678894,242.392090 
	C562.540527,244.476776 566.912537,246.183182 571.284546,247.889587 
	C571.284546,247.889587 571.643799,247.918610 571.978760,248.251648 
	C573.897766,249.380722 575.481873,250.176773 577.417603,251.020050 
	C583.527771,254.372925 589.286316,257.678589 595.044861,260.984253 
	C597.850281,262.923859 600.655701,264.863464 603.870361,267.258514 
	C609.691772,272.754700 615.058960,277.845642 620.563782,282.783051 
	C621.405334,283.537811 622.883362,283.582886 624.067017,283.956177 
	C624.067017,283.956177 624.010437,283.997070 623.999390,284.284302 
	C624.348572,284.701385 624.708801,284.831268 625.069092,284.961151 
	C625.069092,284.961151 624.997131,284.989014 624.850098,285.290161 
	C624.754028,286.080719 624.804993,286.570160 624.662109,287.278625 
	C625.354614,288.315369 626.241028,289.133057 627.385742,290.097656 
	C628.091553,290.883453 628.539062,291.522369 629.078064,292.309845 
	C629.306824,292.648682 629.477417,292.802002 629.940063,293.153259 
	C630.822144,293.579376 631.445435,293.770538 632.068726,293.961700 
	C632.068726,293.961700 632.009766,293.995728 632.003601,294.281311 
	C632.354675,294.699799 632.711914,294.832733 633.069153,294.965637 
	C633.069153,294.965637 632.999756,294.992279 632.856445,295.313599 
	C633.534241,297.393768 634.355408,299.152649 634.943481,301.092957 
	C635.199829,301.796692 635.689209,302.319000 636.174011,302.858276 
	C636.169434,302.875305 636.137207,302.889526 636.091614,303.294189 
	C635.306885,304.782257 634.812378,306.338196 633.787109,306.869019 
	C628.804932,309.448425 624.019714,307.371613 619.422791,305.538422 
	C617.219055,304.659698 614.096130,303.183655 613.632751,301.396515 
	C612.329102,296.367706 608.939941,296.490448 605.005188,295.824127 
	C600.520325,295.064606 594.605042,296.782196 592.371887,290.314331 
	C592.131470,289.617828 590.436768,289.335999 589.368774,289.027771 
	C584.681946,287.675110 578.405762,289.688934 576.390076,282.622986 
	C576.163818,281.829803 574.134766,281.132538 572.927185,281.108032 
	C566.776428,280.983246 560.594543,280.759399 554.476501,281.242371 
	C550.479919,281.557892 545.640564,281.418762 544.929749,287.561340 
	C544.821533,288.497192 541.853088,289.953705 540.517456,289.676514 
	C538.911926,289.343262 537.595459,287.456818 536.232788,286.159882 
	C534.891113,284.882965 533.648193,283.502319 532.361938,282.167175 
	C531.574707,283.950043 530.507202,285.666870 530.067871,287.531677 
	C529.451111,290.149689 529.301270,292.877747 528.951660,295.558716 
	C528.271179,295.518127 527.590637,295.477509 526.910095,295.436920 
	C526.606750,293.411713 526.091492,291.391724 526.041382,289.360321 
	C525.910217,284.039246 526.087158,278.709229 525.884399,273.392548 
	C525.843994,272.331604 524.828064,270.691650 523.957764,270.459595 
	C523.157593,270.246216 521.701721,271.370239 520.976013,272.263611 
	C519.906189,273.580505 519.227783,275.215424 518.321777,276.822968 
	C516.292786,273.849274 514.638611,271.424866 512.984436,269.000427 
z"/>
<path fill="#1D89C7" opacity="1.000000" stroke="none" 
	d="
M659.327454,651.018677 
	C658.949951,606.199890 658.942871,561.113037 658.911987,515.300842 
	C658.870789,514.395325 658.853333,514.215149 658.872681,513.697998 
	C658.875122,512.911316 658.840820,512.461609 658.872314,511.545959 
	C658.984558,490.510986 659.016724,469.941956 659.103088,449.373138 
	C659.110596,447.584961 659.476196,445.798340 659.971680,443.990143 
	C660.465210,443.956390 660.662720,443.943512 660.860229,443.930603 
	C660.552246,448.840698 659.978333,453.750732 659.976685,458.660919 
	C659.955994,520.377502 660.022095,582.094116 660.043518,643.810669 
	C660.044312,646.123901 659.818298,648.437317 659.327454,651.018677 
z"/>
<path fill="#1D89C7" opacity="1.000000" stroke="none" 
	d="
M635.176636,300.911530 
	C634.355408,299.152649 633.534241,297.393768 632.884460,295.289062 
	C640.395386,303.425659 645.900757,313.030151 650.048401,323.393250 
	C652.610352,329.794586 654.995239,336.289124 657.025330,342.875671 
	C660.055054,352.705566 660.251404,362.884674 659.978943,374.009827 
	C659.947144,379.025513 659.869263,383.108795 659.599731,386.816772 
	C659.314148,383.129333 659.044800,379.811371 659.155945,376.506165 
	C659.688171,360.675659 657.179260,345.271240 651.009644,330.783356 
	C646.896851,321.125702 641.151733,312.163177 636.137207,302.889526 
	C636.137207,302.889526 636.169434,302.875305 636.147095,302.578064 
	C635.808716,301.824402 635.492676,301.367950 635.176636,300.911530 
z"/>
<path fill="#06A0EE" opacity="1.000000" stroke="none" 
	d="
M366.120972,563.286621 
	C366.383118,564.613159 366.689240,566.416931 366.697174,568.222107 
	C366.803986,592.527222 366.869293,616.832581 366.912842,641.610474 
	C366.600250,640.709290 366.077942,639.335999 366.074982,637.961609 
	C366.021423,613.229309 366.030579,588.496948 366.120972,563.286621 
z"/>
<path fill="#06A0EE" opacity="1.000000" stroke="none" 
	d="
M659.791443,387.192108 
	C659.869263,383.108795 659.947144,379.025513 660.010986,374.477722 
	C660.328247,375.333313 660.944885,376.652618 660.948242,377.973511 
	C661.003113,399.653168 660.980530,421.332977 660.917725,443.471680 
	C660.662720,443.943512 660.465210,443.956390 659.970276,443.518585 
	C659.711975,432.790283 659.751160,422.512665 659.872742,411.783844 
	C659.904968,409.811676 659.854858,408.290741 659.765381,406.317261 
	C659.747742,399.640533 659.769592,393.416321 659.791443,387.192108 
z"/>
<path fill="#1D89C7" opacity="1.000000" stroke="none" 
	d="
M624.063110,283.600708 
	C622.883362,283.582886 621.405334,283.537811 620.563782,282.783051 
	C615.058960,277.845642 609.691772,272.754700 604.182983,267.398926 
	C607.028687,268.817566 610.267151,270.199066 612.844727,272.366608 
	C616.820618,275.710052 620.343933,279.591766 624.063110,283.600708 
z"/>
<path fill="#1D89C7" opacity="1.000000" stroke="none" 
	d="
M595.050537,260.591003 
	C589.286316,257.678589 583.527771,254.372925 577.402710,250.749115 
	C577.033203,250.249954 577.030273,250.068970 577.027344,249.888000 
	C584.194092,251.301041 590.523071,254.179123 595.050537,260.591003 
z"/>
<path fill="#01A6F4" opacity="1.000000" stroke="none" 
	d="
M512.534790,234.073120 
	C509.483978,237.124741 505.849762,238.986221 501.293579,235.386169 
	C504.728149,234.774673 508.411774,234.389053 512.534790,234.073120 
z"/>
<path fill="#023072" opacity="1.000000" stroke="none" 
	d="
M571.187012,247.526764 
	C566.912537,246.183182 562.540527,244.476776 558.090271,242.434937 
	C562.371155,243.787643 566.730347,245.475800 571.187012,247.526764 
z"/>
<path fill="#1D89C7" opacity="1.000000" stroke="none" 
	d="
M632.067505,293.599762 
	C631.445435,293.770538 630.822144,293.579376 629.894043,292.976196 
	C629.446045,292.343689 629.245178,292.209412 628.986633,292.161316 
	C628.539062,291.522369 628.091553,290.883453 627.299683,289.791504 
	C626.255615,288.578857 625.555786,287.819214 624.856018,287.059570 
	C624.804993,286.570160 624.754028,286.080719 624.882324,285.268097 
	C627.396423,287.709198 629.731323,290.473511 632.067505,293.599762 
z"/>
<path fill="#023072" opacity="1.000000" stroke="none" 
	d="
M576.849854,249.582733 
	C577.030273,250.068970 577.033203,250.249954 577.051025,250.701889 
	C575.481873,250.176773 573.897766,249.380722 572.155579,248.286377 
	C573.555786,248.417877 575.114075,248.847687 576.849854,249.582733 
z"/>
<path fill="#023072" opacity="1.000000" stroke="none" 
	d="
M539.596008,237.967178 
	C538.821289,238.188477 537.652405,238.358826 536.257812,238.296432 
	C537.088745,238.014526 538.145264,237.965393 539.596008,237.967178 
z"/>
<path fill="#01A6F4" opacity="1.000000" stroke="none" 
	d="
M498.598572,235.895294 
	C498.436829,236.181198 497.968933,236.544357 497.187927,236.932175 
	C497.347382,236.628738 497.819885,236.300644 498.598572,235.895294 
z"/>
<path fill="#1D89C7" opacity="1.000000" stroke="none" 
	d="
M625.019287,284.688751 
	C624.708801,284.831268 624.348572,284.701385 624.009521,284.250885 
	C624.343628,284.092285 624.656494,284.254333 625.019287,284.688751 
z"/>
<path fill="#1D89C7" opacity="1.000000" stroke="none" 
	d="
M633.017151,294.693848 
	C632.711914,294.832733 632.354675,294.699799 632.012939,294.248596 
	C632.340698,294.094238 632.652954,294.258179 633.017151,294.693848 
z"/>
<path fill="#FEFFFF" opacity="1.000000" stroke="none" 
	d="
M443.695618,761.354492 
	C430.075836,752.942200 417.143463,744.167786 406.325867,732.770264 
	C395.375977,721.233398 386.243835,708.331970 380.969177,693.190674 
	C377.073639,682.008301 373.666626,670.627686 370.679718,659.169189 
	C369.318176,653.946106 369.218292,648.331360 369.029999,642.877502 
	C368.548035,628.917053 368.032074,614.946045 368.083923,600.981384 
	C368.182129,574.515869 368.696716,548.052185 368.952911,521.586853 
	C368.981262,518.660095 370.294403,517.939087 372.935242,517.922241 
	C418.064789,517.634277 463.194275,517.323303 508.322723,516.902710 
	C512.765991,516.861267 513.090820,519.314453 512.988220,522.674438 
	C512.634949,534.245300 512.112061,545.819275 512.134338,557.391174 
	C512.161560,571.525635 512.883911,585.658691 512.911011,599.793152 
	C512.932983,611.260315 512.172424,622.727844 512.135132,634.196472 
	C512.107056,642.830811 512.970215,651.468567 512.926086,660.102173 
	C512.733643,697.735535 512.301331,735.367737 512.122498,773.001099 
	C512.103882,776.921631 510.970490,778.113159 507.011414,778.158569 
	C491.298950,778.339172 476.382996,774.612549 461.799164,769.335876 
	C455.726654,767.138733 449.939362,764.153320 443.695618,761.354492 
z"/>
<path fill="#EFFEFE" opacity="1.000000" stroke="none" 
	d="
M656.952637,515.410400 
	C655.682129,515.926819 654.412354,516.892578 653.140930,516.894714 
	C608.478638,516.971436 563.816162,516.962463 519.153809,516.921997 
	C518.239197,516.921143 517.325195,516.404602 516.679932,515.727905 
	C563.616821,515.354919 610.284729,515.382690 656.952637,515.410400 
z"/>
<path fill="#042F6C" opacity="1.000000" stroke="none" 
	d="
M657.210754,515.279907 
	C610.284729,515.382690 563.616821,515.354919 516.488892,515.408569 
	C515.170410,515.352417 514.311890,515.214783 513.032959,514.929077 
	C512.652283,514.378906 512.692078,513.976929 513.296509,513.285522 
	C530.616272,512.996643 547.372681,512.869690 564.126160,513.037231 
	C577.875977,513.174805 591.622375,513.926147 605.370178,513.921753 
	C619.497559,513.917297 633.626282,513.374817 647.751221,512.959229 
	C651.442383,512.850647 655.121765,512.338684 658.806519,512.011902 
	C658.840820,512.461609 658.875122,512.911316 658.699524,513.811768 
	C658.275940,514.448303 658.114563,514.671936 658.005493,514.933411 
	C657.826599,515.005371 657.647766,515.077393 657.210754,515.279907 
z"/>
<path fill="#023072" opacity="1.000000" stroke="none" 
	d="
M658.196289,515.014648 
	C658.114563,514.671936 658.275940,514.448303 658.662781,514.148743 
	C658.853333,514.215149 658.870789,514.395325 658.844849,514.843445 
	C658.801575,515.111450 658.387146,515.095825 658.196289,515.014648 
z"/>
<path fill="#023072" opacity="1.000000" stroke="none" 
	d="
M658.872314,511.545959 
	C655.121765,512.338684 651.442383,512.850647 647.751221,512.959229 
	C633.626282,513.374817 619.497559,513.917297 605.370178,513.921753 
	C591.622375,513.926147 577.875977,513.174805 564.126160,513.037231 
	C547.372681,512.869690 530.616272,512.996643 513.384033,512.994019 
	C512.911926,458.769409 512.918945,404.546906 512.920715,350.324432 
	C512.921265,332.859924 512.907837,315.395416 513.330261,297.556946 
	C514.506287,299.605072 515.492920,301.983582 515.942749,304.459595 
	C516.598999,308.071869 516.869385,311.754242 517.304260,315.406738 
	C520.023987,311.114624 525.187805,307.823334 521.193726,301.938904 
	C520.321472,300.653809 520.967957,297.989960 521.528931,296.148041 
	C522.962158,291.442139 520.183899,288.544922 518.055725,285.016266 
	C516.122864,288.086761 514.576965,290.542572 513.031006,292.998383 
	C512.970093,285.308838 512.909241,277.619293 512.916382,269.465088 
	C514.638611,271.424866 516.292786,273.849274 518.321777,276.822968 
	C519.227783,275.215424 519.906189,273.580505 520.976013,272.263611 
	C521.701721,271.370239 523.157593,270.246216 523.957764,270.459595 
	C524.828064,270.691650 525.843994,272.331604 525.884399,273.392548 
	C526.087158,278.709229 525.910217,284.039246 526.041382,289.360321 
	C526.091492,291.391724 526.606750,293.411713 526.910095,295.436920 
	C527.590637,295.477509 528.271179,295.518127 528.951660,295.558716 
	C529.301270,292.877747 529.451111,290.149689 530.067871,287.531677 
	C530.507202,285.666870 531.574707,283.950043 532.361938,282.167175 
	C533.648193,283.502319 534.891113,284.882965 536.232788,286.159882 
	C537.595459,287.456818 538.911926,289.343262 540.517456,289.676514 
	C541.853088,289.953705 544.821533,288.497192 544.929749,287.561340 
	C545.640564,281.418762 550.479919,281.557892 554.476501,281.242371 
	C560.594543,280.759399 566.776428,280.983246 572.927185,281.108032 
	C574.134766,281.132538 576.163818,281.829803 576.390076,282.622986 
	C578.405762,289.688934 584.681946,287.675110 589.368774,289.027771 
	C590.436768,289.335999 592.131470,289.617828 592.371887,290.314331 
	C594.605042,296.782196 600.520325,295.064606 605.005188,295.824127 
	C608.939941,296.490448 612.329102,296.367706 613.632751,301.396515 
	C614.096130,303.183655 617.219055,304.659698 619.422791,305.538422 
	C624.019714,307.371613 628.804932,309.448425 633.787109,306.869019 
	C634.812378,306.338196 635.306885,304.782257 636.091614,303.294189 
	C641.151733,312.163177 646.896851,321.125702 651.009644,330.783356 
	C657.179260,345.271240 659.688171,360.675659 659.155945,376.506165 
	C659.044800,379.811371 659.314148,383.129333 659.599731,386.816772 
	C659.769592,393.416321 659.747742,399.640533 659.580566,406.625610 
	C659.553589,409.002655 659.671936,410.618866 659.790405,412.235077 
	C659.751160,422.512665 659.711975,432.790283 659.674194,443.539429 
	C659.476196,445.798340 659.110596,447.584961 659.103088,449.373138 
	C659.016724,469.941956 658.984558,490.510986 658.872314,511.545959 
z"/>
<path fill="#01A6F4" opacity="1.000000" stroke="none" 
	d="
M443.000000,512.000000 
	C430.438721,511.885345 418.356689,512.246582 406.310608,511.782990 
	C406.248688,510.889343 406.186737,509.995697 406.124786,509.102051 
	C412.606354,508.067596 419.089508,507.043182 425.568512,505.992828 
	C427.618134,505.660553 430.495087,507.149933 430.991852,503.381134 
	C431.419739,500.135193 429.945190,499.222412 426.913055,498.637207 
	C423.695221,498.016235 422.283569,495.661652 423.898865,492.199463 
	C425.958618,487.784637 427.771301,483.253479 429.871979,478.859253 
	C431.129730,476.228302 432.482269,473.572021 434.233643,471.261780 
	C438.350037,465.831757 439.881805,459.637573 439.960449,453.049530 
	C440.097687,441.553589 439.999023,430.054810 439.999054,418.557220 
	C439.999115,395.969788 440.148010,373.380890 439.924988,350.795654 
	C439.836761,341.863434 445.804810,336.294098 450.554199,330.172272 
	C454.395203,325.221313 459.395782,321.177338 463.815063,316.665497 
	C467.618774,312.782043 470.658875,308.531494 470.016357,302.636017 
	C469.638794,299.171875 471.363525,297.809814 474.748535,297.943420 
	C476.021057,297.993683 477.961487,297.878113 478.498505,297.089661 
	C482.013824,291.928253 487.681976,291.193939 492.923096,289.471375 
	C493.939453,289.137329 495.127319,288.289093 495.554871,287.363403 
	C498.957092,279.997223 502.979919,272.784027 505.231445,265.062866 
	C506.992249,259.024689 506.490692,252.327377 507.000793,245.923462 
	C507.148438,244.069672 507.318207,242.217621 507.477783,240.364777 
	C508.011261,240.315186 508.544739,240.265579 509.078247,240.215988 
	C509.384705,241.573959 509.980133,242.938690 509.948517,244.288727 
	C509.797028,250.757553 509.257965,257.222870 509.271912,263.688538 
	C509.287994,271.156128 509.715179,278.623688 510.006561,286.089600 
	C510.310822,293.884827 510.852722,301.675598 510.955719,309.472778 
	C511.117584,321.728943 510.998749,333.988831 510.998749,346.247131 
	C510.998779,369.901550 511.125458,393.556854 510.966949,417.210205 
	C510.765564,447.263062 510.265533,477.313995 510.082458,507.366852 
	C510.058685,511.271027 508.611176,512.086243 505.069275,512.063782 
	C484.546875,511.933441 464.023224,512.000061 443.000000,512.000000 
z"/>
<path fill="#EFFEFE" opacity="1.000000" stroke="none" 
	d="
M423.378998,470.449524 
	C415.505280,468.441711 412.393829,464.277069 412.386261,455.760895 
	C412.363892,430.615173 412.382385,405.469330 412.454498,380.323700 
	C412.494141,366.505463 412.698273,352.687805 412.779144,338.869568 
	C412.814301,332.866943 415.199890,327.885803 419.240021,323.630524 
	C427.607086,314.817902 436.017212,306.046112 444.425629,297.272919 
	C447.821625,293.729614 451.837341,292.393585 456.674500,293.845215 
	C461.678894,295.346954 465.138336,298.522980 466.657562,303.468658 
	C467.948090,307.669647 465.620087,310.868439 462.895355,313.716736 
	C456.351257,320.557434 449.913177,327.511505 443.120789,334.098572 
	C438.471283,338.607544 436.782349,343.687927 436.821808,350.137604 
	C437.038879,385.606842 436.938232,421.078156 436.906891,456.548737 
	C436.898712,465.817444 433.042847,469.836395 423.378998,470.449524 
z"/>
<path fill="#042F6C" opacity="1.000000" stroke="none" 
	d="
M512.965088,293.395752 
	C514.576965,290.542572 516.122864,288.086761 518.055725,285.016266 
	C520.183899,288.544922 522.962158,291.442139 521.528931,296.148041 
	C520.967957,297.989960 520.321472,300.653809 521.193726,301.938904 
	C525.187805,307.823334 520.023987,311.114624 517.304260,315.406738 
	C516.869385,311.754242 516.598999,308.071869 515.942749,304.459595 
	C515.492920,301.983582 514.506287,299.605072 513.400146,297.092743 
	C512.993469,295.932709 512.946289,294.862915 512.965088,293.395752 
z"/>
<path fill="#023072" opacity="1.000000" stroke="none" 
	d="
M520.764038,236.602844 
	C518.676758,237.211182 516.264099,237.606323 513.416870,238.000458 
	C515.467712,237.462860 517.953186,236.926270 520.764038,236.602844 
z"/>
<path fill="#023072" opacity="1.000000" stroke="none" 
	d="
M624.662109,287.278625 
	C625.555786,287.819214 626.255615,288.578857 627.041382,289.644623 
	C626.241028,289.133057 625.354614,288.315369 624.662109,287.278625 
z"/>
<path fill="#023072" opacity="1.000000" stroke="none" 
	d="
M634.943542,301.092957 
	C635.492676,301.367950 635.808716,301.824402 636.151733,302.561066 
	C635.689209,302.319000 635.199829,301.796692 634.943542,301.092957 
z"/>
<path fill="#023072" opacity="1.000000" stroke="none" 
	d="
M629.078064,292.309814 
	C629.245178,292.209412 629.446045,292.343689 629.635254,292.741211 
	C629.477417,292.802002 629.306824,292.648682 629.078064,292.309814 
z"/>
<path fill="#1D89C7" opacity="1.000000" stroke="none" 
	d="
M659.872681,411.783844 
	C659.671936,410.618866 659.553589,409.002655 659.619995,407.078125 
	C659.854858,408.290741 659.904968,409.811676 659.872681,411.783844 
z"/>
</svg>